GeoramaSemiCondensed-ThinItalic.ufo
<glyph name="exclam" format="2">
  <advance width="155.4"/>
  <unicode hex="0021"/>
  <outline>
    <contour>
      <point x="67.0" y="264.0" type="line"/>
      <point x="85.0" y="264.0" type="line"/>
      <point x="160.0" y="740.0" type="line"/>
      <point x="142.0" y="740.0" type="line"/>
    </contour>
    <contour>
      <point x="21.6" y="10.0" type="curve" smooth="yes"/>
      <point x="20.6" y="1.8"/>
      <point x="22.200000000000003" y="0.0"/>
      <point x="33.0" y="0.0" type="curve" smooth="yes"/>
      <point x="49.400000000000006" y="0.0"/>
      <point x="49.6" y="1.0"/>
      <point x="52.6" y="24.0" type="curve" smooth="yes"/>
      <point x="53.6" y="33.0"/>
      <point x="50.400000000000006" y="34.0"/>
      <point x="40.400000000000006" y="34.0" type="curve" smooth="yes"/>
      <point x="25.6" y="34.0"/>
      <point x="24.6" y="33.0"/>
    </contour>
  </outline>
</glyph>
<glyph name="numbersign" format="2">
  <advance width="406.8"/>
  <unicode hex="0023"/>
  <outline>
    <contour>
      <point x="102.4" y="483.2" type="line"/>
      <point x="180.2" y="483.2" type="line"/>
      <point x="101.6" y="215.2" type="line"/>
      <point x="30.6" y="215.2" type="line"/>
      <point x="27.0" y="197.4" type="line"/>
      <point x="96.2" y="197.4" type="line"/>
      <point x="37.6" y="0.0" type="line"/>
      <point x="58.400000000000006" y="0.0" type="line"/>
      <point x="116.0" y="197.4" type="line"/>
      <point x="226.8" y="197.4" type="line"/>
      <point x="169.2" y="0.0" type="line"/>
      <point x="189.2" y="0.0" type="line"/>
      <point x="246.8" y="197.4" type="line"/>
      <point x="325.8" y="197.4" type="line"/>
      <point x="328.6" y="215.2" type="line"/>
      <point x="252.4" y="215.2" type="line"/>
      <point x="330.8" y="483.2" type="line"/>
      <point x="400.4" y="483.2" type="line"/>
      <point x="403.4" y="501.0" type="line"/>
      <point x="336.4" y="501.0" type="line"/>
      <point x="395.6" y="700.0" type="line"/>
      <point x="375.6" y="700.0" type="line"/>
      <point x="316.4" y="501.0" type="line"/>
      <point x="205.6" y="501.0" type="line"/>
      <point x="264.8" y="700.0" type="line"/>
      <point x="244.8" y="700.0" type="line"/>
      <point x="185.6" y="501.0" type="line"/>
      <point x="105.4" y="501.0" type="line"/>
    </contour>
    <contour>
      <point x="200.2" y="483.2" type="line"/>
      <point x="311.0" y="483.2" type="line"/>
      <point x="232.4" y="215.2" type="line"/>
      <point x="121.6" y="215.2" type="line"/>
    </contour>
  </outline>
</glyph>
<glyph name="dollar" format="2">
  <advance width="406.8"/>
  <unicode hex="0024"/>
  <outline>
    <contour>
      <point x="388.20000000000005" y="689.0" type="line"/>
      <point x="370.6" y="697.2"/>
      <point x="336.0" y="708.8"/>
      <point x="289.6" y="710.0" type="curve"/>
      <point x="304.8" y="805.0" type="line"/>
      <point x="286.8" y="805.0" type="line"/>
      <point x="271.0" y="709.2" type="line"/>
      <point x="168.2" y="703.4"/>
      <point x="101.4" y="613.4"/>
      <point x="101.4" y="524.2" type="curve" smooth="yes"/>
      <point x="101.4" y="369.2"/>
      <point x="310.8" y="318.8"/>
      <point x="310.8" y="172.6" type="curve" smooth="yes"/>
      <point x="310.8" y="81.0"/>
      <point x="230.0" y="9.8"/>
      <point x="142.8" y="9.8" type="curve" smooth="yes"/>
      <point x="92.2" y="9.8"/>
      <point x="38.6" y="23.0"/>
      <point x="15.0" y="34.8" type="curve"/>
      <point x="4.600000000000001" y="16.4" type="line"/>
      <point x="28.4" y="6.0"/>
      <point x="78.4" y="-8.8"/>
      <point x="134.0" y="-10.0" type="curve"/>
      <point x="119.0" y="-105.0" type="line"/>
      <point x="137.0" y="-105.0" type="line"/>
      <point x="152.0" y="-9.2" type="line"/>
      <point x="259.6" y="-3.4000000000000004"/>
      <point x="330.8" y="82.0"/>
      <point x="330.8" y="177.2" type="curve" smooth="yes"/>
      <point x="330.8" y="330.6"/>
      <point x="121.2" y="379.8"/>
      <point x="121.2" y="526.6" type="curve" smooth="yes"/>
      <point x="121.2" y="612.2"/>
      <point x="195.0" y="691.8"/>
      <point x="277.6" y="691.8" type="curve" smooth="yes"/>
      <point x="327.2" y="691.8"/>
      <point x="354.8" y="682.8"/>
      <point x="378.6" y="672.2" type="curve"/>
    </contour>
  </outline>
</glyph>
<glyph name="ampersand" format="2">
  <advance width="465.20000000000005"/>
  <unicode hex="0026"/>
  <outline>
    <contour>
      <point x="164.4" y="-10.0" type="curve" smooth="yes"/>
      <point x="276.6" y="-10.0"/>
      <point x="379.2" y="136.0"/>
      <point x="377.0" y="291.0" type="curve"/>
      <point x="359.0" y="295.6" type="line"/>
      <point x="362.8" y="154.8"/>
      <point x="266.4" y="8.2"/>
      <point x="166.0" y="8.2" type="curve" smooth="yes"/>
      <point x="86.8" y="8.2"/>
      <point x="45.6" y="55.0"/>
      <point x="45.6" y="132.8" type="curve" smooth="yes"/>
      <point x="45.6" y="287.6"/>
      <point x="160.4" y="390.0"/>
      <point x="290.8" y="390.0" type="curve" smooth="yes"/>
      <point x="300.0" y="390.0" type="line"/>
      <point x="302.4" y="408.4" type="line"/>
      <point x="295.0" y="408.4" type="line" smooth="yes"/>
      <point x="218.4" y="408.4"/>
      <point x="170.8" y="456.0"/>
      <point x="170.8" y="543.4" type="curve" smooth="yes"/>
      <point x="170.8" y="624.0"/>
      <point x="221.2" y="692.6"/>
      <point x="299.4" y="692.6" type="curve" smooth="yes"/>
      <point x="339.2" y="692.6"/>
      <point x="374.4" y="679.0"/>
      <point x="403.8" y="652.0" type="curve"/>
      <point x="413.6" y="667.6" type="line"/>
      <point x="386.4" y="694.0"/>
      <point x="344.2" y="710.0"/>
      <point x="301.6" y="710.0" type="curve" smooth="yes"/>
      <point x="209.4" y="710.0"/>
      <point x="151.6" y="634.4"/>
      <point x="151.6" y="541.8" type="curve" smooth="yes"/>
      <point x="151.6" y="468.4"/>
      <point x="188.2" y="417.8"/>
      <point x="241.8" y="402.0" type="curve"/>
      <point x="118.2" y="380.4"/>
      <point x="26.4" y="274.6"/>
      <point x="26.4" y="132.0" type="curve" smooth="yes"/>
      <point x="26.4" y="44.2"/>
      <point x="72.6" y="-10.0"/>
    </contour>
    <contour>
      <point x="254.8" y="261.4" type="line"/>
      <point x="259.4" y="288.8"/>
      <point x="278.6" y="302.2"/>
      <point x="303.2" y="302.2" type="curve" smooth="yes"/>
      <point x="346.2" y="302.2"/>
      <point x="365.2" y="280.8"/>
      <point x="415.6" y="280.8" type="curve" smooth="yes"/>
      <point x="451.0" y="280.8"/>
      <point x="474.20000000000005" y="300.8"/>
      <point x="481.4" y="331.6" type="curve"/>
      <point x="464.8" y="338.8" type="line"/>
      <point x="459.20000000000005" y="314.0"/>
      <point x="440.8" y="298.2"/>
      <point x="413.4" y="298.2" type="curve" smooth="yes"/>
      <point x="374.6" y="298.2"/>
      <point x="343.4" y="319.6"/>
      <point x="301.8" y="319.6" type="curve" smooth="yes"/>
      <point x="269.8" y="319.6"/>
      <point x="245.8" y="302.2"/>
      <point x="238.0" y="269.4" type="curve"/>
    </contour>
  </outline>
</glyph>
<glyph name="quotesingle" format="2">
  <advance width="125.0"/>
  <unicode hex="0027"/>
  <outline>
    <contour>
      <point x="80.0" y="427.0" type="line"/>
      <point x="93.0" y="427.0" type="line"/>
      <point x="140.0" y="700.0" type="line"/>
      <point x="119.0" y="700.0" type="line"/>
    </contour>
  </outline>
</glyph>
<glyph name="parenleft" format="2">
  <advance width="221.6"/>
  <unicode hex="0028"/>
  <outline>
    <contour>
      <point x="46.8" y="8.600000000000001" type="curve" smooth="yes"/>
      <point x="46.8" y="-107.2"/>
      <point x="71.6" y="-194.4"/>
      <point x="122.6" y="-220.0" type="curve"/>
      <point x="133.6" y="-203.6" type="line"/>
      <point x="93.0" y="-186.4"/>
      <point x="65.0" y="-103.8"/>
      <point x="65.0" y="14.0" type="curve" smooth="yes"/>
      <point x="65.0" y="221.4"/>
      <point x="157.2" y="668.2"/>
      <point x="279.0" y="730.4" type="curve"/>
      <point x="274.0" y="749.2" type="line"/>
      <point x="127.0" y="673.6"/>
      <point x="46.8" y="230.8"/>
    </contour>
  </outline>
</glyph>
<glyph name="parenright" format="2">
  <advance width="221.6"/>
  <unicode hex="0029"/>
  <outline>
    <contour>
      <point x="172.6" y="521.0" type="curve" smooth="yes"/>
      <point x="172.6" y="638.0"/>
      <point x="148.2" y="724.4"/>
      <point x="97.0" y="750.0" type="curve"/>
      <point x="87.6" y="730.8" type="line"/>
      <point x="131.8" y="708.4"/>
      <point x="154.4" y="630.0"/>
      <point x="154.4" y="526.0" type="curve" smooth="yes"/>
      <point x="154.4" y="314.0"/>
      <point x="62.8" y="-139.0"/>
      <point x="-60.8" y="-201.6" type="curve"/>
      <point x="-55.0" y="-220.0" type="line"/>
      <point x="83.0" y="-141.0"/>
      <point x="172.6" y="290.6"/>
    </contour>
  </outline>
</glyph>
<glyph name="asterisk" format="2">
  <advance width="232.8"/>
  <unicode hex="002A"/>
  <outline>
    <contour>
      <point x="76.2" y="379.8" type="line"/>
      <point x="149.6" y="483.0" type="line"/>
      <point x="189.0" y="380.6" type="line"/>
      <point x="203.6" y="390.2" type="line"/>
      <point x="163.6" y="499.0" type="line"/>
      <point x="263.2" y="545.4" type="line"/>
      <point x="259.4" y="561.2" type="line"/>
      <point x="162.8" y="518.4" type="line"/>
      <point x="183.2" y="649.2" type="line"/>
      <point x="166.8" y="649.2" type="line"/>
      <point x="146.4" y="519.2" type="line"/>
      <point x="62.8" y="562.0" type="line"/>
      <point x="55.2" y="547.0" type="line"/>
      <point x="139.4" y="500.6" type="line"/>
      <point x="63.4" y="390.6" type="line"/>
    </contour>
  </outline>
</glyph>
<glyph name="plus" format="2">
  <advance width="374.4"/>
  <unicode hex="002B"/>
  <outline>
    <contour>
      <point x="146.4" y="72.0" type="line"/>
      <point x="165.2" y="72.0" type="line"/>
      <point x="198.0" y="279.2" type="line"/>
      <point x="331.6" y="279.2" type="line"/>
      <point x="334.6" y="298.0" type="line"/>
      <point x="201.0" y="298.0" type="line"/>
      <point x="234.0" y="506.0" type="line"/>
      <point x="215.2" y="506.0" type="line"/>
      <point x="182.2" y="298.0" type="line"/>
      <point x="47.8" y="298.0" type="line"/>
      <point x="44.8" y="279.2" type="line"/>
      <point x="179.2" y="279.2" type="line"/>
    </contour>
  </outline>
</glyph>
<glyph name="comma" format="2">
  <advance width="115.0"/>
  <unicode hex="002C"/>
  <outline>
    <contour>
      <point x="10.4" y="32.8" type="line"/>
      <point x="12.0" y="22.0"/>
      <point x="12.4" y="10.2"/>
      <point x="12.4" y="-0.8000000000000003" type="curve" smooth="yes"/>
      <point x="12.4" y="-66.0"/>
      <point x="-24.2" y="-153.2"/>
      <point x="-75.2" y="-187.0" type="curve"/>
      <point x="-69.2" y="-202.4" type="line"/>
      <point x="5.200000000000001" y="-153.8"/>
      <point x="31.8" y="-45.2"/>
      <point x="31.8" y="3.0" type="curve" smooth="yes"/>
      <point x="31.8" y="15.2"/>
      <point x="31.200000000000003" y="26.4"/>
      <point x="28.6" y="40.2" type="curve"/>
    </contour>
  </outline>
</glyph>
<glyph name="hyphen" format="2">
  <advance width="227.6"/>
  <unicode hex="002D"/>
  <outline>
    <contour>
      <point x="24.6" y="253.4" type="line"/>
      <point x="196.2" y="253.4" type="line"/>
      <point x="200.0" y="272.4" type="line"/>
      <point x="28.4" y="272.4" type="line"/>
    </contour>
  </outline>
</glyph>
<glyph name="period" format="2">
  <advance width="115.0"/>
  <unicode hex="002E"/>
  <outline>
    <contour>
      <point x="1.0" y="10.0" type="curve" smooth="yes"/>
      <point x="0.0" y="1.8"/>
      <point x="1.6000000000000014" y="0.0"/>
      <point x="12.4" y="0.0" type="curve" smooth="yes"/>
      <point x="28.8" y="0.0"/>
      <point x="29.0" y="1.0"/>
      <point x="32.0" y="24.0" type="curve" smooth="yes"/>
      <point x="33.0" y="33.0"/>
      <point x="29.8" y="34.0"/>
      <point x="19.8" y="34.0" type="curve" smooth="yes"/>
      <point x="5.0" y="34.0"/>
      <point x="4.0" y="33.0"/>
    </contour>
  </outline>
</glyph>
<glyph name="zero" format="2">
  <advance width="406.8"/>
  <unicode hex="0030"/>
  <outline>
    <contour>
      <point x="165.60000000000002" y="-10.0" type="curve" smooth="yes"/>
      <point x="325.6" y="-10.0"/>
      <point x="406.0" y="338.8"/>
      <point x="406.0" y="529.0" type="curve" smooth="yes"/>
      <point x="406.0" y="659.4"/>
      <point x="359.4" y="710.0"/>
      <point x="263.4" y="710.0" type="curve" smooth="yes"/>
      <point x="103.2" y="710.0"/>
      <point x="23.200000000000003" y="361.6"/>
      <point x="23.200000000000003" y="171.4" type="curve" smooth="yes"/>
      <point x="23.200000000000003" y="41.0"/>
      <point x="70.0" y="-10.0"/>
    </contour>
    <contour>
      <point x="165.60000000000002" y="9.0" type="curve" smooth="yes"/>
      <point x="82.4" y="9.0"/>
      <point x="41.4" y="55.0"/>
      <point x="42.2" y="170.6" type="curve" smooth="yes"/>
      <point x="43.8" y="368.6"/>
      <point x="122.6" y="691.0"/>
      <point x="263.4" y="691.0" type="curve" smooth="yes"/>
      <point x="347.0" y="691.0"/>
      <point x="387.8" y="645.4"/>
      <point x="387.0" y="529.8" type="curve" smooth="yes"/>
      <point x="385.4" y="332.0"/>
      <point x="306.2" y="9.0"/>
    </contour>
  </outline>
</glyph>
<glyph name="one" format="2">
  <advance width="406.8"/>
  <unicode hex="0031"/>
  <outline>
    <contour>
      <point x="7.200000000000003" y="0.0" type="line"/>
      <point x="344.4" y="0.0" type="line"/>
      <point x="347.4" y="19.8" type="line"/>
      <point x="196.60000000000002" y="19.8" type="line"/>
      <point x="305.0" y="702.0" type="line"/>
      <point x="294.0" y="702.0" type="line"/>
      <point x="82.0" y="563.8" type="line"/>
      <point x="90.8" y="549.0" type="line"/>
      <point x="280.6" y="669.0" type="line"/>
      <point x="177.8" y="19.8" type="line"/>
      <point x="10.200000000000003" y="19.8" type="line"/>
    </contour>
  </outline>
</glyph>
<glyph name="two" format="2">
  <advance width="406.8"/>
  <unicode hex="0032"/>
  <outline>
    <contour>
      <point x="17.400000000000002" y="17.0" type="curve"/>
      <point x="19.0" y="0.0" type="line"/>
      <point x="326.20000000000005" y="0.0" type="line"/>
      <point x="328.6" y="19.0" type="line"/>
      <point x="44.6" y="19.0" type="line"/>
      <point x="227.4" y="203.4"/>
      <point x="358.2" y="411.4"/>
      <point x="358.2" y="586.8" type="curve" smooth="yes"/>
      <point x="358.2" y="666.2"/>
      <point x="312.6" y="710.0"/>
      <point x="241.2" y="710.0" type="curve" smooth="yes"/>
      <point x="192.8" y="710.0"/>
      <point x="146.2" y="691.8"/>
      <point x="107.2" y="654.6" type="curve"/>
      <point x="116.2" y="640.6" type="line"/>
      <point x="158.6" y="676.6"/>
      <point x="195.2" y="691.4"/>
      <point x="238.4" y="691.4" type="curve" smooth="yes"/>
      <point x="298.8" y="691.4"/>
      <point x="339.2" y="653.0"/>
      <point x="339.2" y="580.4" type="curve" smooth="yes"/>
      <point x="338.4" y="423.6"/>
      <point x="215.2" y="220.0"/>
    </contour>
  </outline>
</glyph>
<glyph name="three" format="2">
  <advance width="407.0"/>
  <unicode hex="0033"/>
  <outline>
    <contour>
      <point x="-13.0" y="44.0" type="line"/>
      <point x="23.5" y="8.5"/>
      <point x="76.5" y="-10.0"/>
      <point x="143.5" y="-10.0" type="curve" smooth="yes"/>
      <point x="266.0" y="-10.0"/>
      <point x="344.5" y="92.0"/>
      <point x="344.5" y="239.5" type="curve" smooth="yes"/>
      <point x="344.5" y="317.5"/>
      <point x="311.5" y="360.5"/>
      <point x="263.5" y="371.0" type="curve"/>
      <point x="316.5" y="389.0"/>
      <point x="369.5" y="462.0"/>
      <point x="369.5" y="566.0" type="curve" smooth="yes"/>
      <point x="369.5" y="651.0"/>
      <point x="320.0" y="710.0"/>
      <point x="232.5" y="710.0" type="curve" smooth="yes"/>
      <point x="195.0" y="710.0"/>
      <point x="144.0" y="698.5"/>
      <point x="107.5" y="676.0" type="curve"/>
      <point x="117.5" y="660.5" type="line"/>
      <point x="156.0" y="683.5"/>
      <point x="196.5" y="691.0"/>
      <point x="232.0" y="691.0" type="curve" smooth="yes"/>
      <point x="304.0" y="691.0"/>
      <point x="350.5" y="640.5"/>
      <point x="350.5" y="565.5" type="curve" smooth="yes"/>
      <point x="350.5" y="458.5"/>
      <point x="287.0" y="378.0"/>
      <point x="218.5" y="378.0" type="curve" smooth="yes"/>
      <point x="141.5" y="378.0" type="line"/>
      <point x="138.5" y="360.0" type="line"/>
      <point x="222.0" y="360.0" type="line" smooth="yes"/>
      <point x="287.5" y="360.0"/>
      <point x="324.0" y="321.0"/>
      <point x="324.0" y="235.0" type="curve" smooth="yes"/>
      <point x="324.0" y="102.0"/>
      <point x="250.5" y="9.0"/>
      <point x="145.5" y="9.0" type="curve" smooth="yes"/>
      <point x="82.5" y="9.0"/>
      <point x="39.0" y="25.0"/>
      <point x="1.5" y="57.0" type="curve"/>
    </contour>
  </outline>
</glyph>
<glyph name="four" format="2">
  <advance width="407.0"/>
  <unicode hex="0034"/>
  <outline>
    <contour>
      <point x="26.0" y="194.5" type="line"/>
      <point x="264.0" y="194.5" type="line"/>
      <point x="233.0" y="-1.5" type="line"/>
      <point x="252.0" y="-1.5" type="line"/>
      <point x="282.5" y="194.5" type="line"/>
      <point x="368.5" y="194.5" type="line"/>
      <point x="371.5" y="214.5" type="line"/>
      <point x="285.5" y="214.5" type="line"/>
      <point x="362.0" y="698.0" type="line"/>
      <point x="349.5" y="704.0" type="line"/>
      <point x="23.5" y="211.5" type="line"/>
    </contour>
    <contour>
      <point x="46.5" y="214.5" type="line"/>
      <point x="336.0" y="645.0" type="line"/>
      <point x="267.0" y="214.5" type="line"/>
    </contour>
  </outline>
</glyph>
<glyph name="five" format="2">
  <advance width="406.8"/>
  <unicode hex="0035"/>
  <outline>
    <contour>
      <point x="2.6000000000000014" y="47.8" type="line"/>
      <point x="34.2" y="11.0"/>
      <point x="77.4" y="-10.0"/>
      <point x="140.2" y="-10.0" type="curve" smooth="yes"/>
      <point x="299.2" y="-10.0"/>
      <point x="349.8" y="150.0"/>
      <point x="349.8" y="252.6" type="curve" smooth="yes"/>
      <point x="349.8" y="336.4"/>
      <point x="310.2" y="385.8"/>
      <point x="225.60000000000002" y="385.8" type="curve" smooth="yes"/>
      <point x="102.0" y="385.8" type="line"/>
      <point x="168.0" y="680.2" type="line"/>
      <point x="388.0" y="680.2" type="line"/>
      <point x="391.20000000000005" y="700.0" type="line"/>
      <point x="153.4" y="700.0" type="line"/>
      <point x="80.6" y="376.8" type="line"/>
      <point x="89.2" y="366.0" type="line"/>
      <point x="220.8" y="366.0" type="line" smooth="yes"/>
      <point x="299.6" y="366.0"/>
      <point x="330.4" y="323.6"/>
      <point x="330.4" y="249.0" type="curve" smooth="yes"/>
      <point x="330.4" y="158.6"/>
      <point x="276.0" y="9.0"/>
      <point x="144.2" y="9.0" type="curve" smooth="yes"/>
      <point x="83.0" y="9.0"/>
      <point x="45.800000000000004" y="32.6"/>
      <point x="18.400000000000002" y="61.0" type="curve"/>
    </contour>
  </outline>
</glyph>
<glyph name="six" format="2">
  <advance width="407.0"/>
  <unicode hex="0036"/>
  <note>
14
</note>
  <outline>
    <contour>
      <point x="186.5" y="-10.0" type="curve" smooth="yes"/>
      <point x="296.5" y="-10.0"/>
      <point x="369.5" y="98.5"/>
      <point x="369.5" y="250.5" type="curve" smooth="yes"/>
      <point x="369.5" y="356.0"/>
      <point x="320.5" y="405.0"/>
      <point x="231.5" y="405.0" type="curve" smooth="yes"/>
      <point x="168.5" y="405.0"/>
      <point x="94.5" y="367.5"/>
      <point x="51.0" y="289.0" type="curve"/>
      <point x="46.5" y="244.0" type="line"/>
      <point x="86.5" y="329.5"/>
      <point x="157.5" y="386.0"/>
      <point x="232.0" y="386.0" type="curve" smooth="yes"/>
      <point x="311.5" y="386.0"/>
      <point x="350.0" y="338.5"/>
      <point x="350.0" y="248.0" type="curve" smooth="yes"/>
      <point x="350.0" y="112.0"/>
      <point x="281.5" y="8.5"/>
      <point x="187.0" y="8.5" type="curve" smooth="yes"/>
      <point x="98.5" y="8.5"/>
      <point x="51.5" y="68.5"/>
      <point x="51.5" y="184.5" type="curve" smooth="yes"/>
      <point x="51.5" y="339.5"/>
      <point x="85.5" y="479.5"/>
      <point x="141.0" y="572.5" type="curve" smooth="yes"/>
      <point x="184.5" y="646.0"/>
      <point x="242.0" y="691.0"/>
      <point x="309.0" y="691.0" type="curve" smooth="yes"/>
      <point x="347.0" y="691.0"/>
      <point x="378.5" y="682.0"/>
      <point x="411.0" y="662.5" type="curve"/>
      <point x="422.0" y="678.5" type="line"/>
      <point x="387.0" y="700.5"/>
      <point x="352.0" y="710.0"/>
      <point x="308.5" y="710.0" type="curve" smooth="yes"/>
      <point x="143.5" y="710.0"/>
      <point x="32.5" y="476.5"/>
      <point x="32.5" y="180.0" type="curve" smooth="yes"/>
      <point x="32.5" y="55.0"/>
      <point x="85.0" y="-10.0"/>
    </contour>
  </outline>
</glyph>
<glyph name="seven" format="2">
  <advance width="406.8"/>
  <unicode hex="0037"/>
  <note>
9
</note>
  <outline>
    <contour>
      <point x="99.0" y="0.0" type="curve"/>
      <point x="118.80000000000001" y="0.0" type="line"/>
      <point x="138.4" y="119.8"/>
      <point x="174.8" y="228.0"/>
      <point x="277.6" y="425.8" type="curve" smooth="yes"/>
      <point x="410.8" y="682.8" type="line"/>
      <point x="413.8" y="700.0" type="line"/>
      <point x="92.8" y="700.0" type="line"/>
      <point x="89.8" y="680.0" type="line"/>
      <point x="388.6" y="680.0" type="line"/>
      <point x="266.4" y="447.0" type="line" smooth="yes"/>
      <point x="168.8" y="261.0"/>
      <point x="122.2" y="147.4"/>
    </contour>
  </outline>
</glyph>
<glyph name="eight" format="2">
  <advance width="407.0"/>
  <unicode hex="0038"/>
  <outline>
    <contour>
      <point x="172.0" y="-10.0" type="curve" smooth="yes"/>
      <point x="292.0" y="-10.0"/>
      <point x="365.5" y="74.5"/>
      <point x="365.5" y="192.0" type="curve" smooth="yes"/>
      <point x="365.5" y="390.5"/>
      <point x="104.0" y="353.0"/>
      <point x="104.0" y="532.0" type="curve" smooth="yes"/>
      <point x="104.0" y="627.5"/>
      <point x="168.5" y="691.0"/>
      <point x="261.0" y="691.0" type="curve" smooth="yes"/>
      <point x="347.0" y="691.0"/>
      <point x="386.5" y="645.0"/>
      <point x="386.5" y="576.5" type="curve" smooth="yes"/>
      <point x="386.5" y="478.5"/>
      <point x="340.5" y="408.0"/>
      <point x="250.5" y="357.0" type="curve"/>
      <point x="265.5" y="347.0" type="line"/>
      <point x="353.5" y="397.0"/>
      <point x="405.5" y="472.0"/>
      <point x="405.5" y="576.5" type="curve" smooth="yes"/>
      <point x="405.5" y="656.0"/>
      <point x="360.5" y="710.0"/>
      <point x="261.5" y="710.0" type="curve" smooth="yes"/>
      <point x="155.5" y="710.0"/>
      <point x="85.0" y="638.0"/>
      <point x="85.0" y="526.5" type="curve" smooth="yes"/>
      <point x="85.0" y="344.0"/>
      <point x="346.5" y="380.5"/>
      <point x="346.5" y="190.5" type="curve" smooth="yes"/>
      <point x="346.5" y="84.0"/>
      <point x="279.5" y="9.0"/>
      <point x="173.0" y="9.0" type="curve" smooth="yes"/>
      <point x="77.0" y="9.0"/>
      <point x="24.5" y="59.5"/>
      <point x="24.5" y="142.5" type="curve" smooth="yes"/>
      <point x="24.5" y="246.0"/>
      <point x="83.0" y="338.0"/>
      <point x="184.0" y="384.5" type="curve"/>
      <point x="168.0" y="396.0" type="line"/>
      <point x="66.0" y="344.0"/>
      <point x="5.0" y="253.0"/>
      <point x="5.0" y="137.5" type="curve" smooth="yes"/>
      <point x="5.0" y="45.5"/>
      <point x="62.5" y="-10.0"/>
    </contour>
  </outline>
</glyph>
<glyph name="nine" format="2">
  <advance width="407.0"/>
  <unicode hex="0039"/>
  <outline>
    <contour>
      <point x="243.5" y="710.0" type="curve" smooth="yes"/>
      <point x="133.5" y="710.0"/>
      <point x="60.5" y="601.5"/>
      <point x="60.5" y="449.5" type="curve" smooth="yes"/>
      <point x="60.5" y="344.0"/>
      <point x="109.5" y="295.0"/>
      <point x="198.5" y="295.0" type="curve" smooth="yes"/>
      <point x="261.5" y="295.0"/>
      <point x="335.5" y="332.5"/>
      <point x="379.0" y="411.0" type="curve"/>
      <point x="383.5" y="456.0" type="line"/>
      <point x="343.5" y="370.5"/>
      <point x="272.5" y="314.0"/>
      <point x="198.0" y="314.0" type="curve" smooth="yes"/>
      <point x="118.5" y="314.0"/>
      <point x="80.0" y="361.5"/>
      <point x="80.0" y="452.0" type="curve" smooth="yes"/>
      <point x="80.0" y="588.0"/>
      <point x="148.5" y="691.5"/>
      <point x="243.0" y="691.5" type="curve" smooth="yes"/>
      <point x="331.5" y="691.5"/>
      <point x="378.5" y="631.5"/>
      <point x="378.5" y="515.5" type="curve" smooth="yes"/>
      <point x="378.5" y="360.5"/>
      <point x="344.5" y="220.5"/>
      <point x="289.0" y="127.5" type="curve" smooth="yes"/>
      <point x="245.5" y="54.0"/>
      <point x="188.0" y="9.0"/>
      <point x="123.5" y="9.0" type="curve" smooth="yes"/>
      <point x="85.5" y="9.0"/>
      <point x="52.0" y="17.5"/>
      <point x="19.0" y="42.5" type="curve"/>
      <point x="8.0" y="26.5" type="line"/>
      <point x="43.5" y="-1.0"/>
      <point x="80.5" y="-10.0"/>
      <point x="124.0" y="-10.0" type="curve" smooth="yes"/>
      <point x="284.5" y="-10.0"/>
      <point x="397.5" y="223.5"/>
      <point x="397.5" y="520.0" type="curve" smooth="yes"/>
      <point x="397.5" y="645.0"/>
      <point x="345.0" y="710.0"/>
    </contour>
  </outline>
</glyph>
<glyph name="less" format="2">
  <advance width="375.4"/>
  <unicode hex="003C"/>
  <outline>
    <contour>
      <point x="301.0" y="85.0" type="line"/>
      <point x="304.0" y="106.8" type="line"/>
      <point x="62.6" y="289.0" type="line"/>
      <point x="362.2" y="472.0" type="line"/>
      <point x="365.2" y="495.6" type="line"/>
      <point x="49.4" y="302.2" type="line"/>
      <point x="45.6" y="279.0" type="line"/>
    </contour>
  </outline>
</glyph>
<glyph name="equal" format="2">
  <advance width="375.2"/>
  <unicode hex="003D"/>
  <outline>
    <contour>
      <point x="318.6" y="197.0" type="line"/>
      <point x="31.8" y="197.0" type="line"/>
      <point x="28.8" y="177.4" type="line"/>
      <point x="315.6" y="177.4" type="line"/>
    </contour>
    <contour>
      <point x="350.6" y="403.6" type="line"/>
      <point x="63.8" y="403.6" type="line"/>
      <point x="60.8" y="384.0" type="line"/>
      <point x="347.6" y="384.0" type="line"/>
    </contour>
  </outline>
</glyph>
<glyph name="greater" format="2">
  <advance width="375.4"/>
  <unicode hex="003E"/>
  <outline>
    <contour>
      <point x="331.6" y="276.6" type="line"/>
      <point x="335.4" y="299.8" type="line"/>
      <point x="79.2" y="494.0" type="line"/>
      <point x="76.2" y="472.2" type="line"/>
      <point x="318.4" y="289.8" type="line"/>
      <point x="18.8" y="107.8" type="line"/>
      <point x="15.0" y="83.4" type="line"/>
    </contour>
  </outline>
</glyph>
<glyph name="question" format="2">
  <advance width="305.2"/>
  <unicode hex="003F"/>
  <outline>
    <contour>
      <point x="125.80000000000001" y="263.4" type="line"/>
      <point x="143.8" y="263.4" type="line"/>
      <point x="155.6" y="339.0" type="line"/>
      <point x="264.2" y="415.6"/>
      <point x="331.6" y="476.8"/>
      <point x="331.6" y="621.8" type="curve" smooth="yes"/>
      <point x="331.6" y="713.0"/>
      <point x="278.0" y="750.0"/>
      <point x="219.8" y="750.0" type="curve" smooth="yes"/>
      <point x="171.4" y="750.0"/>
      <point x="119.8" y="727.4"/>
      <point x="75.6" y="691.0" type="curve"/>
      <point x="84.2" y="677.6" type="line"/>
      <point x="129.6" y="713.8"/>
      <point x="176.4" y="731.4"/>
      <point x="216.8" y="731.4" type="curve" smooth="yes"/>
      <point x="270.4" y="731.4"/>
      <point x="312.2" y="693.4"/>
      <point x="312.2" y="618.4" type="curve" smooth="yes"/>
      <point x="312.2" y="505.4"/>
      <point x="265.4" y="430.2"/>
      <point x="139.6" y="349.4" type="curve"/>
    </contour>
    <contour>
      <point x="82.80000000000001" y="9.4" type="curve" smooth="yes"/>
      <point x="82.0" y="1.8"/>
      <point x="83.6" y="0.0"/>
      <point x="94.2" y="0.0" type="curve" smooth="yes"/>
      <point x="110.2" y="0.0"/>
      <point x="111.4" y="1.0"/>
      <point x="113.80000000000001" y="24.4" type="curve" smooth="yes"/>
      <point x="114.6" y="33.0"/>
      <point x="111.4" y="34.0"/>
      <point x="101.6" y="34.0" type="curve" smooth="yes"/>
      <point x="87.2" y="34.0"/>
      <point x="85.2" y="33.0"/>
    </contour>
  </outline>
</glyph>
<glyph name="at" format="2">
  <advance width="521.0"/>
  <unicode hex="0040"/>
  <outline>
    <contour>
      <point x="193.5" y="-122.5" type="curve" smooth="yes"/>
      <point x="256.0" y="-122.5"/>
      <point x="310.0" y="-97.0"/>
      <point x="351.5" y="-46.5" type="curve"/>
      <point x="338.5" y="-38.5" type="line"/>
      <point x="302.0" y="-83.0"/>
      <point x="253.0" y="-106.0"/>
      <point x="196.0" y="-106.0" type="curve" smooth="yes"/>
      <point x="93.0" y="-106.0"/>
      <point x="35.5" y="-31.0"/>
      <point x="35.5" y="106.5" type="curve" smooth="yes"/>
      <point x="35.5" y="425.0"/>
      <point x="174.5" y="700.0"/>
      <point x="351.5" y="700.0" type="curve" smooth="yes"/>
      <point x="445.0" y="700.0"/>
      <point x="504.0" y="652.0"/>
      <point x="504.0" y="521.5" type="curve" smooth="yes"/>
      <point x="504.0" y="322.0"/>
      <point x="425.0" y="83.0"/>
      <point x="360.5" y="83.0" type="curve" smooth="yes"/>
      <point x="321.5" y="83.0"/>
      <point x="331.0" y="156.0"/>
      <point x="340.5" y="202.0" type="curve" smooth="yes"/>
      <point x="410.0" y="520.5" type="line"/>
      <point x="376.0" y="533.0"/>
      <point x="352.0" y="537.5"/>
      <point x="326.0" y="537.5" type="curve" smooth="yes"/>
      <point x="226.5" y="537.5"/>
      <point x="131.5" y="326.5"/>
      <point x="131.5" y="153.0" type="curve" smooth="yes"/>
      <point x="131.5" y="96.0"/>
      <point x="157.0" y="68.0"/>
      <point x="200.5" y="68.0" type="curve" smooth="yes"/>
      <point x="243.0" y="68.0"/>
      <point x="289.0" y="101.0"/>
      <point x="318.0" y="167.5" type="curve"/>
      <point x="314.0" y="130.5"/>
      <point x="309.0" y="67.5"/>
      <point x="362.0" y="67.5" type="curve" smooth="yes"/>
      <point x="444.0" y="67.5"/>
      <point x="521.5" y="327.0"/>
      <point x="521.5" y="526.0" type="curve" smooth="yes"/>
      <point x="521.5" y="656.5"/>
      <point x="458.5" y="718.0"/>
      <point x="352.0" y="718.0" type="curve" smooth="yes"/>
      <point x="165.5" y="718.0"/>
      <point x="18.5" y="440.5"/>
      <point x="18.5" y="100.0" type="curve" smooth="yes"/>
      <point x="18.5" y="-44.0"/>
      <point x="81.5" y="-122.5"/>
    </contour>
    <contour>
      <point x="204.0" y="86.0" type="curve" smooth="yes"/>
      <point x="168.5" y="86.0"/>
      <point x="150.0" y="110.5"/>
      <point x="150.0" y="158.5" type="curve" smooth="yes"/>
      <point x="150.0" y="324.0"/>
      <point x="244.0" y="521.0"/>
      <point x="323.5" y="521.0" type="curve" smooth="yes"/>
      <point x="345.0" y="521.0"/>
      <point x="367.0" y="517.5"/>
      <point x="390.0" y="509.0" type="curve"/>
      <point x="329.5" y="237.0" type="line" smooth="yes"/>
      <point x="302.5" y="143.0"/>
      <point x="249.0" y="86.0"/>
    </contour>
  </outline>
</glyph>
<glyph name="A" format="2">
  <advance width="397.0"/>
  <unicode hex="0041"/>
  <anchor x="152.5" y="0.0" name="bottom"/>
  <anchor x="334.0" y="0.0" name="ogonek"/>
  <anchor x="262.5" y="700.0" name="top"/>
  <outline>
    <contour>
      <point x="-25.0" y="0.0" type="line"/>
      <point x="-5.0" y="0.0" type="line"/>
      <point x="83.5" y="221.0" type="line"/>
      <point x="295.5" y="221.0" type="line"/>
      <point x="314.5" y="0.0" type="line"/>
      <point x="334.0" y="0.0" type="line"/>
      <point x="272.5" y="710.0" type="line"/>
      <point x="256.5" y="710.0" type="line"/>
    </contour>
    <contour>
      <point x="91.0" y="240.0" type="line"/>
      <point x="256.5" y="657.5" type="line"/>
      <point x="294.0" y="240.0" type="line"/>
    </contour>
  </outline>
</glyph>
<glyph name="B" format="2">
  <advance width="405.4"/>
  <unicode hex="0042"/>
  <outline>
    <contour>
      <point x="17.400000000000002" y="-3.8" type="line"/>
      <point x="71.80000000000001" y="-8.2"/>
      <point x="106.4" y="-10.0"/>
      <point x="146.8" y="-10.0" type="curve" smooth="yes"/>
      <point x="281.4" y="-10.0"/>
      <point x="362.20000000000005" y="107.4"/>
      <point x="362.20000000000005" y="232.0" type="curve" smooth="yes"/>
      <point x="362.20000000000005" y="305.8"/>
      <point x="323.6" y="348.0"/>
      <point x="268.4" y="359.4" type="curve"/>
      <point x="351.0" y="387.0"/>
      <point x="394.6" y="503.2"/>
      <point x="394.6" y="590.6" type="curve" smooth="yes"/>
      <point x="394.6" y="674.6"/>
      <point x="349.4" y="710.0"/>
      <point x="251.8" y="710.0" type="curve" smooth="yes"/>
      <point x="220.8" y="710.0"/>
      <point x="186.4" y="707.6"/>
      <point x="128.8" y="702.2" type="curve"/>
    </contour>
    <contour>
      <point x="95.4" y="367.0" type="line"/>
      <point x="145.6" y="685.8" type="line"/>
      <point x="182.2" y="689.6"/>
      <point x="217.0" y="692.0"/>
      <point x="250.8" y="692.0" type="curve" smooth="yes"/>
      <point x="333.8" y="692.0"/>
      <point x="375.4" y="663.6"/>
      <point x="375.4" y="584.0" type="curve" smooth="yes"/>
      <point x="375.4" y="489.4"/>
      <point x="310.0" y="367.0"/>
      <point x="222.60000000000002" y="367.0" type="curve" smooth="yes"/>
    </contour>
    <contour>
      <point x="92.4" y="348.2" type="line"/>
      <point x="232.8" y="348.2" type="line" smooth="yes"/>
      <point x="286.4" y="348.2"/>
      <point x="343.20000000000005" y="311.2"/>
      <point x="343.20000000000005" y="229.0" type="curve" smooth="yes"/>
      <point x="343.20000000000005" y="110.6"/>
      <point x="269.2" y="9.0"/>
      <point x="148.8" y="9.0" type="curve" smooth="yes"/>
      <point x="108.4" y="9.0"/>
      <point x="81.80000000000001" y="11.4"/>
      <point x="39.400000000000006" y="14.4" type="curve"/>
    </contour>
  </outline>
</glyph>
<glyph name="C" format="2">
  <advance width="391.6"/>
  <unicode hex="0043"/>
  <anchor x="219.60000000000002" y="0.0" name="bottom"/>
  <anchor x="313.2" y="700.0" name="top"/>
  <outline>
    <contour>
      <point x="222.8" y="-10.0" type="curve" smooth="yes"/>
      <point x="268.8" y="-10.0"/>
      <point x="306.4" y="-4.199999999999999"/>
      <point x="334.6" y="6.6" type="curve"/>
      <point x="329.4" y="23.6" type="line"/>
      <point x="301.4" y="14.0"/>
      <point x="265.6" y="9.0"/>
      <point x="224.2" y="9.0" type="curve" smooth="yes"/>
      <point x="116.0" y="9.0"/>
      <point x="59.0" y="68.2"/>
      <point x="59.0" y="195.6" type="curve" smooth="yes"/>
      <point x="59.0" y="476.0"/>
      <point x="162.0" y="691.0"/>
      <point x="311.2" y="691.0" type="curve" smooth="yes"/>
      <point x="348.6" y="691.0"/>
      <point x="380.0" y="686.0"/>
      <point x="419.0" y="674.8" type="curve"/>
      <point x="425.8" y="692.8" type="line"/>
      <point x="391.0" y="705.0"/>
      <point x="356.4" y="710.0"/>
      <point x="314.4" y="710.0" type="curve" smooth="yes"/>
      <point x="149.0" y="710.0"/>
      <point x="40.0" y="497.0"/>
      <point x="40.0" y="194.8" type="curve" smooth="yes"/>
      <point x="40.0" y="54.4"/>
      <point x="100.6" y="-10.0"/>
    </contour>
  </outline>
</glyph>
<glyph name="D" format="2">
  <advance width="441.8"/>
  <unicode hex="0044"/>
  <anchor x="159.8" y="0.0" name="bottom"/>
  <anchor x="225.4" y="350.0" name="center"/>
  <anchor x="258.8" y="700.0" name="top"/>
  <outline>
    <contour>
      <point x="131.4" y="-10.0" type="curve" smooth="yes"/>
      <point x="300.2" y="-10.0"/>
      <point x="421.20000000000005" y="182.4"/>
      <point x="421.20000000000005" y="456.2" type="curve" smooth="yes"/>
      <point x="421.20000000000005" y="644.6"/>
      <point x="344.2" y="710.0"/>
      <point x="229.60000000000002" y="710.0" type="curve" smooth="yes"/>
      <point x="194.0" y="710.0"/>
      <point x="164.8" y="708.6"/>
      <point x="128.8" y="705.6" type="curve"/>
      <point x="17.0" y="-4.8" type="line"/>
      <point x="57.400000000000006" y="-9.0"/>
      <point x="84.80000000000001" y="-10.0"/>
    </contour>
    <contour>
      <point x="131.60000000000002" y="7.4" type="curve" smooth="yes"/>
      <point x="96.6" y="7.4"/>
      <point x="70.6" y="8.6"/>
      <point x="38.2" y="11.6" type="curve"/>
      <point x="145.6" y="688.0" type="line"/>
      <point x="168.0" y="690.0"/>
      <point x="200.6" y="691.0"/>
      <point x="229.60000000000002" y="691.0" type="curve" smooth="yes"/>
      <point x="328.2" y="691.0"/>
      <point x="402.0" y="635.4"/>
      <point x="402.0" y="454.2" type="curve" smooth="yes"/>
      <point x="402.0" y="194.6"/>
      <point x="285.8" y="7.4"/>
    </contour>
  </outline>
</glyph>
<glyph name="E" format="2">
  <advance width="362.20000000000005"/>
  <unicode hex="0045"/>
  <anchor x="160.60000000000002" y="0.0" name="bottom"/>
  <anchor x="297.6" y="0.0" name="ogonek"/>
  <anchor x="264.0" y="700.0" name="top"/>
  <anchor x="91.4" y="700.0" name="topleft"/>
  <outline>
    <contour>
      <point x="17.8" y="0.0" type="line"/>
      <point x="297.6" y="0.0" type="line"/>
      <point x="300.6" y="19.0" type="line"/>
      <point x="39.8" y="19.0" type="line"/>
      <point x="93.6" y="358.0" type="line"/>
      <point x="324.6" y="358.0" type="line"/>
      <point x="327.6" y="377.0" type="line"/>
      <point x="96.4" y="377.0" type="line"/>
      <point x="144.0" y="681.0" type="line"/>
      <point x="392.2" y="681.0" type="line"/>
      <point x="396.0" y="700.0" type="line"/>
      <point x="128.0" y="700.0" type="line"/>
    </contour>
  </outline>
</glyph>
<glyph name="F" format="2">
  <advance width="341.0"/>
  <unicode hex="0046"/>
  <outline>
    <contour>
      <point x="17.8" y="0.0" type="line"/>
      <point x="36.0" y="0.0" type="line"/>
      <point x="90.6" y="340.8" type="line"/>
      <point x="299.8" y="340.8" type="line"/>
      <point x="302.6" y="359.8" type="line"/>
      <point x="93.4" y="359.8" type="line"/>
      <point x="144.0" y="681.0" type="line"/>
      <point x="393.0" y="681.0" type="line"/>
      <point x="396.0" y="700.0" type="line"/>
      <point x="128.0" y="700.0" type="line"/>
    </contour>
  </outline>
</glyph>
<glyph name="G" format="2">
  <advance width="409.8"/>
  <unicode hex="0047"/>
  <anchor x="201.8" y="0.0" name="bottom"/>
  <anchor x="310.0" y="700.0" name="top"/>
  <outline>
    <contour>
      <point x="215.60000000000002" y="-10.0" type="curve" smooth="yes"/>
      <point x="257.6" y="-10.0"/>
      <point x="296.8" y="-1.7999999999999998"/>
      <point x="322.20000000000005" y="8.0" type="curve"/>
      <point x="373.6" y="333.0" type="line"/>
      <point x="223.60000000000002" y="333.0" type="line"/>
      <point x="220.60000000000002" y="314.0" type="line"/>
      <point x="351.6" y="314.0" type="line"/>
      <point x="305.20000000000005" y="22.6" type="line"/>
      <point x="283.8" y="14.2"/>
      <point x="252.8" y="9.0"/>
      <point x="218.8" y="9.0" type="curve" smooth="yes"/>
      <point x="121.0" y="9.0"/>
      <point x="58.8" y="65.8"/>
      <point x="58.8" y="195.6" type="curve" smooth="yes"/>
      <point x="58.8" y="477.2"/>
      <point x="163.4" y="691.0"/>
      <point x="310.4" y="691.0" type="curve" smooth="yes"/>
      <point x="346.8" y="691.0"/>
      <point x="376.2" y="686.0"/>
      <point x="414.8" y="674.6" type="curve"/>
      <point x="421.6" y="692.4" type="line"/>
      <point x="392.8" y="702.6"/>
      <point x="353.8" y="710.0"/>
      <point x="313.6" y="710.0" type="curve" smooth="yes"/>
      <point x="149.6" y="710.0"/>
      <point x="39.8" y="498.4"/>
      <point x="39.8" y="193.8" type="curve" smooth="yes"/>
      <point x="39.8" y="52.4"/>
      <point x="105.6" y="-10.0"/>
    </contour>
  </outline>
</glyph>
<glyph name="H" format="2">
  <advance width="457.4"/>
  <unicode hex="0048"/>
  <anchor x="185.2888" y="0.0" name="bottom"/>
  <anchor x="241.1758" y="350.0" name="center"/>
  <anchor x="296.2626" y="700.0" name="top"/>
  <anchor x="85.4626" y="700.0" name="topleft"/>
  <outline>
    <contour>
      <point x="17.8" y="0.0" type="line"/>
      <point x="37.6" y="0.0" type="line"/>
      <point x="83.6" y="291.0" type="line"/>
      <point x="379.4" y="291.0" type="line"/>
      <point x="333.4" y="0.0" type="line"/>
      <point x="352.4" y="0.0" type="line"/>
      <point x="463.4" y="700.0" type="line"/>
      <point x="444.4" y="700.0" type="line"/>
      <point x="382.4" y="310.0" type="line"/>
      <point x="85.8" y="310.0" type="line"/>
      <point x="147.8" y="700.0" type="line"/>
      <point x="128.0" y="700.0" type="line"/>
    </contour>
  </outline>
</glyph>
<glyph name="I" format="2">
  <advance width="141.8"/>
  <unicode hex="0049"/>
  <anchor x="27.088800000000003" y="0.0" name="bottom"/>
  <anchor x="36.8" y="0.0" name="ogonek"/>
  <anchor x="138.0626" y="700.0" name="top"/>
  <anchor x="91.4" y="700.0" name="topleft"/>
  <outline>
    <contour>
      <point x="17.8" y="0.0" type="line"/>
      <point x="36.8" y="0.0" type="line"/>
      <point x="147.8" y="700.0" type="line"/>
      <point x="128.0" y="700.0" type="line"/>
    </contour>
  </outline>
</glyph>
<glyph name="J" format="2">
  <advance width="302.6"/>
  <unicode hex="004A"/>
  <anchor x="68.0" y="0.0" name="bottom"/>
  <anchor x="211.8" y="700.0" name="top"/>
  <outline>
    <contour>
      <point x="-32.2" y="5.800000000000001" type="line"/>
      <point x="-6.6" y="-2.5999999999999996"/>
      <point x="20.200000000000003" y="-10.0"/>
      <point x="60.800000000000004" y="-10.0" type="curve" smooth="yes"/>
      <point x="163.60000000000002" y="-10.0"/>
      <point x="211.60000000000002" y="48.4"/>
      <point x="226.4" y="141.4" type="curve" smooth="yes"/>
      <point x="315.0" y="700.0" type="line"/>
      <point x="99.0" y="700.0" type="line"/>
      <point x="96.0" y="681.0" type="line"/>
      <point x="293.0" y="681.0" type="line"/>
      <point x="206.4" y="139.0" type="line" smooth="yes"/>
      <point x="191.60000000000002" y="46.4"/>
      <point x="138.0" y="9.0"/>
      <point x="63.0" y="9.0" type="curve" smooth="yes"/>
      <point x="23.200000000000003" y="9.0"/>
      <point x="-3.5999999999999996" y="17.4"/>
      <point x="-27.2" y="25.8" type="curve"/>
    </contour>
  </outline>
</glyph>
<glyph name="K" format="2">
  <advance width="389.5"/>
  <unicode hex="004B"/>
  <anchor x="165.5" y="0.0" name="bottom"/>
  <anchor x="255.5" y="700.0" name="top"/>
  <outline>
    <contour>
      <point x="17.5" y="0.0" type="line"/>
      <point x="37.0" y="0.0" type="line"/>
      <point x="147.5" y="700.0" type="line"/>
      <point x="128.0" y="700.0" type="line"/>
    </contour>
    <contour>
      <point x="336.0" y="-9.0" type="curve" smooth="yes"/>
      <point x="340.5" y="-9.0"/>
      <point x="346.0" y="-8.5"/>
      <point x="351.5" y="-6.0" type="curve"/>
      <point x="348.5" y="12.0" type="line"/>
      <point x="346.0" y="11.5"/>
      <point x="343.0" y="10.5"/>
      <point x="339.0" y="10.5" type="curve" smooth="yes"/>
      <point x="316.0" y="10.5"/>
      <point x="302.5" y="23.0"/>
      <point x="266.0" y="93.0" type="curve" smooth="yes"/>
      <point x="93.5" y="424.5" type="line"/>
      <point x="89.5" y="387.5" type="line"/>
      <point x="247.5" y="86.0" type="line" smooth="yes"/>
      <point x="288.0" y="5.0"/>
      <point x="304.0" y="-9.0"/>
    </contour>
    <contour>
      <point x="144.5" y="302.0" type="line"/>
      <point x="215.5" y="367.0"/>
      <point x="349.5" y="512.5"/>
      <point x="429.0" y="703.0" type="curve"/>
      <point x="412.0" y="710.0" type="line"/>
      <point x="330.0" y="519.5"/>
      <point x="206.0" y="385.5"/>
      <point x="138.0" y="322.0" type="curve"/>
    </contour>
  </outline>
</glyph>
<glyph name="L" format="2">
  <advance width="320.2"/>
  <unicode hex="004C"/>
  <anchor x="143.0" y="0.0" name="bottom"/>
  <anchor x="162.9758" y="350.0" name="center"/>
  <anchor x="137.0" y="700.0" name="top"/>
  <anchor x="284.4" y="700.0" name="topright"/>
  <outline>
    <contour>
      <point x="17.0" y="0.0" type="line"/>
      <point x="268.0" y="0.0" type="line"/>
      <point x="271.0" y="19.0" type="line"/>
      <point x="39.0" y="19.0" type="line"/>
      <point x="147.0" y="700.0" type="line"/>
      <point x="128.0" y="700.0" type="line"/>
    </contour>
  </outline>
</glyph>
<glyph name="M" format="2">
  <advance width="500.5"/>
  <unicode hex="004D"/>
  <outline>
    <contour>
      <point x="17.5" y="0.0" type="line"/>
      <point x="37.0" y="0.0" type="line"/>
      <point x="140.0" y="660.5" type="line"/>
      <point x="241.5" y="280.0" type="line"/>
      <point x="260.0" y="280.0" type="line"/>
      <point x="482.5" y="661.5" type="line"/>
      <point x="376.5" y="0.0" type="line"/>
      <point x="395.5" y="0.0" type="line"/>
      <point x="506.5" y="700.0" type="line"/>
      <point x="482.0" y="700.0" type="line"/>
      <point x="254.5" y="304.0" type="line"/>
      <point x="151.5" y="700.0" type="line"/>
      <point x="128.0" y="700.0" type="line"/>
    </contour>
  </outline>
</glyph>
<glyph name="N" format="2">
  <advance width="455.5"/>
  <unicode hex="004E"/>
  <anchor x="189.0" y="0.0" name="bottom"/>
  <anchor x="295.5" y="700.0" name="top"/>
  <outline>
    <contour>
      <point x="18.0" y="0.0" type="line"/>
      <point x="37.5" y="0.0" type="line"/>
      <point x="141.0" y="663.0" type="line"/>
      <point x="330.5" y="-2.0" type="line"/>
      <point x="350.5" y="-2.0" type="line"/>
      <point x="461.5" y="700.0" type="line"/>
      <point x="442.5" y="700.0" type="line"/>
      <point x="339.5" y="39.0" type="line"/>
      <point x="150.5" y="702.0" type="line"/>
      <point x="128.5" y="702.0" type="line"/>
    </contour>
  </outline>
</glyph>
<glyph name="O" format="2">
  <advance width="463.0"/>
  <unicode hex="004F"/>
  <note>
8
</note>
  <anchor x="191.5" y="0.0" name="bottom"/>
  <anchor x="247.5" y="350.0" name="center"/>
  <anchor x="236.0" y="0.0" name="ogonek"/>
  <anchor x="302.5" y="700.0" name="top"/>
  <anchor x="92.0" y="700.0" name="topleft"/>
  <anchor x="378.0" y="690.5" name="topright"/>
  <outline>
    <contour>
      <point x="195.5" y="-10.0" type="curve" smooth="yes"/>
      <point x="347.5" y="-10.0"/>
      <point x="446.5" y="234.5"/>
      <point x="446.5" y="499.5" type="curve" smooth="yes"/>
      <point x="446.5" y="643.0"/>
      <point x="394.0" y="710.0"/>
      <point x="291.5" y="710.0" type="curve" smooth="yes"/>
      <point x="139.5" y="710.0"/>
      <point x="40.5" y="465.5"/>
      <point x="40.5" y="200.5" type="curve" smooth="yes"/>
      <point x="40.5" y="57.0"/>
      <point x="93.0" y="-10.0"/>
    </contour>
    <contour>
      <point x="195.5" y="8.0" type="curve" smooth="yes"/>
      <point x="106.0" y="8.0"/>
      <point x="59.5" y="70.5"/>
      <point x="59.5" y="202.0" type="curve" smooth="yes"/>
      <point x="59.5" y="456.0"/>
      <point x="156.5" y="692.0"/>
      <point x="291.5" y="692.0" type="curve" smooth="yes"/>
      <point x="381.0" y="692.0"/>
      <point x="427.5" y="629.5"/>
      <point x="427.5" y="498.0" type="curve" smooth="yes"/>
      <point x="427.5" y="244.0"/>
      <point x="330.5" y="8.0"/>
    </contour>
  </outline>
</glyph>
<glyph name="P" format="2">
  <advance width="390.5"/>
  <unicode hex="0050"/>
  <outline>
    <contour>
      <point x="18.0" y="0.0" type="line"/>
      <point x="37.0" y="0.0" type="line"/>
      <point x="82.5" y="286.0" type="line"/>
      <point x="113.5" y="284.5"/>
      <point x="136.0" y="284.0"/>
      <point x="188.5" y="284.0" type="curve" smooth="yes"/>
      <point x="324.5" y="284.0"/>
      <point x="401.5" y="389.0"/>
      <point x="402.0" y="559.0" type="curve" smooth="yes"/>
      <point x="402.0" y="663.5"/>
      <point x="352.5" y="710.0"/>
      <point x="237.5" y="710.0" type="curve" smooth="yes"/>
      <point x="213.5" y="710.0"/>
      <point x="186.5" y="708.0"/>
      <point x="129.0" y="703.0" type="curve"/>
    </contour>
    <contour>
      <point x="145.5" y="686.0" type="line"/>
      <point x="184.5" y="689.5"/>
      <point x="209.5" y="691.0"/>
      <point x="234.5" y="691.0" type="curve" smooth="yes"/>
      <point x="340.5" y="691.0"/>
      <point x="383.0" y="653.0"/>
      <point x="383.0" y="554.5" type="curve" smooth="yes"/>
      <point x="383.0" y="404.0"/>
      <point x="316.0" y="303.0"/>
      <point x="190.0" y="303.0" type="curve" smooth="yes"/>
      <point x="155.5" y="303.0"/>
      <point x="125.5" y="304.5"/>
      <point x="85.5" y="306.0" type="curve"/>
    </contour>
  </outline>
</glyph>
<glyph name="Q" format="2">
  <advance width="465.20000000000005"/>
  <unicode hex="0051"/>
  <note>
14
</note>
  <outline>
    <contour>
      <point x="317.6" y="-188.0" type="curve" smooth="yes"/>
      <point x="340.8" y="-188.0"/>
      <point x="363.8" y="-184.0"/>
      <point x="385.0" y="-174.0" type="curve"/>
      <point x="380.20000000000005" y="-157.0" type="line"/>
      <point x="360.8" y="-165.8"/>
      <point x="339.8" y="-169.8"/>
      <point x="319.0" y="-169.8" type="curve" smooth="yes"/>
      <point x="261.4" y="-169.8"/>
      <point x="210.60000000000002" y="-133.2"/>
      <point x="204.2" y="-1.0" type="curve"/>
      <point x="185.8" y="-2.4" type="line"/>
      <point x="194.2" y="-140.8"/>
      <point x="249.8" y="-188.0"/>
    </contour>
    <component base="O"/>
  </outline>
</glyph>
<glyph name="R" format="2">
  <advance width="405.0"/>
  <unicode hex="0052"/>
  <anchor x="177.0" y="0.0" name="bottom"/>
  <anchor x="248.5" y="700.0" name="top"/>
  <outline>
    <contour>
      <point x="18.0" y="0.0" type="line"/>
      <point x="37.0" y="0.0" type="line"/>
      <point x="85.5" y="306.5" type="line"/>
      <point x="119.0" y="305.5"/>
      <point x="153.5" y="304.5"/>
      <point x="199.5" y="304.5" type="curve"/>
      <point x="201.0" y="304.5" type="line"/>
      <point x="322.5" y="305.0"/>
      <point x="399.5" y="402.0"/>
      <point x="399.5" y="559.5" type="curve" smooth="yes"/>
      <point x="399.5" y="666.0"/>
      <point x="359.0" y="710.0"/>
      <point x="241.5" y="710.0" type="curve" smooth="yes"/>
      <point x="202.0" y="710.0"/>
      <point x="171.0" y="708.0"/>
      <point x="129.0" y="703.5" type="curve"/>
    </contour>
    <contour>
      <point x="352.5" y="-10.0" type="curve" smooth="yes"/>
      <point x="359.0" y="-10.0"/>
      <point x="365.0" y="-7.5"/>
      <point x="368.5" y="-6.0" type="curve"/>
      <point x="365.0" y="11.0" type="line"/>
      <point x="360.0" y="9.0"/>
      <point x="356.5" y="9.0"/>
      <point x="354.5" y="9.0" type="curve" smooth="yes"/>
      <point x="323.5" y="10.0"/>
      <point x="293.0" y="52.0"/>
      <point x="232.5" y="321.0" type="curve"/>
      <point x="213.5" y="317.0" type="line"/>
      <point x="278.5" y="35.0"/>
      <point x="304.5" y="-10.0"/>
    </contour>
    <contour>
      <point x="207.0" y="324.0" type="curve" smooth="yes"/>
      <point x="154.5" y="324.0"/>
      <point x="122.0" y="324.0"/>
      <point x="89.5" y="326.0" type="curve"/>
      <point x="146.0" y="687.0" type="line"/>
      <point x="183.0" y="690.5"/>
      <point x="204.0" y="692.0"/>
      <point x="239.5" y="692.0" type="curve" smooth="yes"/>
      <point x="348.5" y="692.0"/>
      <point x="380.5" y="653.0"/>
      <point x="380.5" y="562.0" type="curve" smooth="yes"/>
      <point x="380.5" y="419.0"/>
      <point x="313.0" y="324.0"/>
    </contour>
  </outline>
</glyph>
<glyph name="S" format="2">
  <advance width="362.5"/>
  <unicode hex="0053"/>
  <anchor x="125.0" y="0.0" name="bottom"/>
  <anchor x="256.5" y="700.0" name="top"/>
  <outline>
    <contour>
      <point x="368.5" y="689.0" type="line"/>
      <point x="333.0" y="703.0"/>
      <point x="301.0" y="710.0"/>
      <point x="261.0" y="710.0" type="curve" smooth="yes"/>
      <point x="148.0" y="710.0"/>
      <point x="82.0" y="641.5"/>
      <point x="82.0" y="531.0" type="curve" smooth="yes"/>
      <point x="82.0" y="363.5"/>
      <point x="291.5" y="330.0"/>
      <point x="291.0" y="167.5" type="curve" smooth="yes"/>
      <point x="291.0" y="75.0"/>
      <point x="232.5" y="10.0"/>
      <point x="128.0" y="10.0" type="curve" smooth="yes"/>
      <point x="79.5" y="10.0"/>
      <point x="31.0" y="19.0"/>
      <point x="-4.5" y="35.0" type="curve"/>
      <point x="-15.0" y="16.5" type="line"/>
      <point x="24.5" y="-0.5"/>
      <point x="76.0" y="-10.0"/>
      <point x="124.0" y="-10.0" type="curve" smooth="yes"/>
      <point x="245.5" y="-10.0"/>
      <point x="311.0" y="63.0"/>
      <point x="311.0" y="171.0" type="curve" smooth="yes"/>
      <point x="311.5" y="336.5"/>
      <point x="101.5" y="370.0"/>
      <point x="101.5" y="533.5" type="curve" smooth="yes"/>
      <point x="101.5" y="629.5"/>
      <point x="164.0" y="692.0"/>
      <point x="258.0" y="692.0" type="curve" smooth="yes"/>
      <point x="297.0" y="692.0"/>
      <point x="326.0" y="686.0"/>
      <point x="359.0" y="672.0" type="curve"/>
    </contour>
  </outline>
</glyph>
<glyph name="T" format="2">
  <advance width="332.4"/>
  <unicode hex="0054"/>
  <anchor x="122.2" y="0.0" name="bottom"/>
  <anchor x="178.1758" y="350.0" name="center"/>
  <anchor x="233.2626" y="700.0" name="top"/>
  <outline>
    <contour>
      <point x="390.8" y="681.0" type="line"/>
      <point x="393.8" y="700.0" type="line"/>
      <point x="72.6" y="700.0" type="line"/>
      <point x="69.6" y="681.0" type="line"/>
      <point x="220.4" y="681.0" type="line"/>
      <point x="112.4" y="0.0" type="line"/>
      <point x="131.4" y="0.0" type="line"/>
      <point x="239.4" y="681.0" type="line"/>
    </contour>
  </outline>
</glyph>
<glyph name="U" format="2">
  <advance width="444.20000000000005"/>
  <unicode hex="0055"/>
  <anchor x="178.2" y="0.0" name="bottom"/>
  <anchor x="214.60000000000002" y="0.0" name="ogonek"/>
  <anchor x="286.8" y="700.0" name="top"/>
  <anchor x="456.6" y="700.0" name="topright"/>
  <outline>
    <contour>
      <point x="176.2" y="-10.0" type="curve" smooth="yes"/>
      <point x="288.8" y="-10.0"/>
      <point x="352.4" y="46.4"/>
      <point x="371.4" y="165.2" type="curve" smooth="yes"/>
      <point x="456.6" y="700.0" type="line"/>
      <point x="436.8" y="700.0" type="line"/>
      <point x="351.4" y="165.2" type="line" smooth="yes"/>
      <point x="335.20000000000005" y="61.6"/>
      <point x="279.2" y="9.0"/>
      <point x="180.8" y="9.0" type="curve" smooth="yes"/>
      <point x="87.6" y="9.0"/>
      <point x="40.6" y="60.4"/>
      <point x="55.0" y="149.8" type="curve" smooth="yes"/>
      <point x="140.8" y="700.0" type="line"/>
      <point x="121.8" y="700.0" type="line"/>
      <point x="35.2" y="147.2" type="line" smooth="yes"/>
      <point x="32.8" y="132.6"/>
      <point x="32.6" y="128.2"/>
      <point x="32.6" y="113.6" type="curve" smooth="yes"/>
      <point x="32.6" y="34.6"/>
      <point x="85.0" y="-10.0"/>
    </contour>
  </outline>
</glyph>
<glyph name="V" format="2">
  <advance width="377.0"/>
  <unicode hex="0056"/>
  <outline>
    <contour>
      <point x="152.0" y="0.0" type="line"/>
      <point x="372.5" y="493.0"/>
      <point x="415.0" y="595.0"/>
      <point x="415.0" y="664.0" type="curve" smooth="yes"/>
      <point x="415.0" y="676.5"/>
      <point x="414.0" y="687.0"/>
      <point x="411.0" y="700.0" type="curve"/>
      <point x="393.0" y="700.0" type="line"/>
      <point x="395.0" y="687.0"/>
      <point x="396.0" y="677.0"/>
      <point x="396.0" y="667.5" type="curve" smooth="yes"/>
      <point x="396.0" y="598.5"/>
      <point x="355.0" y="501.5"/>
      <point x="147.0" y="37.5" type="curve"/>
      <point x="94.5" y="702.0" type="line"/>
      <point x="75.0" y="700.5" type="line"/>
      <point x="130.0" y="0.0" type="line"/>
    </contour>
  </outline>
</glyph>
<glyph name="W" format="2">
  <advance width="612.0"/>
  <unicode hex="0057"/>
  <anchor x="258.5" y="0.0" name="bottom"/>
  <anchor x="377.5" y="700.0" name="top"/>
  <outline>
    <contour>
      <point x="404.0" y="-1.0" type="line"/>
      <point x="613.0" y="496.5"/>
      <point x="651.0" y="607.5"/>
      <point x="651.0" y="667.0" type="curve" smooth="yes"/>
      <point x="651.0" y="679.0"/>
      <point x="650.0" y="688.0"/>
      <point x="647.5" y="700.0" type="curve"/>
      <point x="628.0" y="700.0" type="line"/>
      <point x="630.0" y="689.0"/>
      <point x="632.0" y="680.5"/>
      <point x="632.0" y="669.0" type="curve" smooth="yes"/>
      <point x="632.0" y="609.5"/>
      <point x="601.0" y="517.0"/>
      <point x="403.5" y="43.0" type="curve"/>
      <point x="378.0" y="634.0" type="line"/>
      <point x="353.0" y="634.0" type="line"/>
      <point x="279.5" y="440.0"/>
      <point x="205.5" y="243.0"/>
      <point x="132.0" y="48.5" type="curve"/>
      <point x="96.0" y="700.0" type="line"/>
      <point x="76.5" y="700.0" type="line"/>
      <point x="115.0" y="-1.0" type="line"/>
      <point x="133.0" y="-1.0" type="line"/>
      <point x="209.0" y="201.0"/>
      <point x="285.0" y="400.0"/>
      <point x="361.0" y="602.0" type="curve"/>
      <point x="385.0" y="-1.0" type="line"/>
    </contour>
  </outline>
</glyph>
<glyph name="X" format="2">
  <advance width="400.0"/>
  <unicode hex="0058"/>
  <outline>
    <contour>
      <point x="342.0" y="-6.5" type="line"/>
      <point x="359.5" y="0.0" type="line"/>
      <point x="223.0" y="353.5" type="line"/>
      <point x="345.0" y="490.0"/>
      <point x="414.5" y="580.0"/>
      <point x="423.5" y="701.0" type="curve"/>
      <point x="405.5" y="702.5" type="line"/>
      <point x="393.5" y="584.0"/>
      <point x="346.0" y="527.0"/>
      <point x="216.5" y="374.0" type="curve"/>
      <point x="89.0" y="706.5" type="line"/>
      <point x="72.5" y="699.0" type="line"/>
      <point x="201.5" y="358.0" type="line"/>
      <point x="81.5" y="233.5"/>
      <point x="11.0" y="134.0"/>
      <point x="2.0" y="0.0" type="curve"/>
      <point x="20.5" y="0.0" type="line"/>
      <point x="29.5" y="122.5"/>
      <point x="92.0" y="219.5"/>
      <point x="209.0" y="337.5" type="curve"/>
    </contour>
  </outline>
</glyph>
<glyph name="Y" format="2">
  <advance width="357.5"/>
  <unicode hex="0059"/>
  <anchor x="132.5" y="0.0" name="bottom"/>
  <anchor x="245.5" y="700.0" name="top"/>
  <anchor x="89.5" y="700.0" name="topleft"/>
  <outline>
    <contour>
      <point x="126.5" y="0.0" type="line"/>
      <point x="145.5" y="0.0" type="line"/>
      <point x="196.5" y="312.0" type="line"/>
      <point x="301.0" y="424.0"/>
      <point x="368.0" y="531.5"/>
      <point x="397.5" y="657.0" type="curve" smooth="yes"/>
      <point x="401.0" y="671.5"/>
      <point x="404.5" y="686.5"/>
      <point x="407.5" y="701.5" type="curve"/>
      <point x="389.0" y="706.0" type="line"/>
      <point x="386.0" y="691.5"/>
      <point x="383.0" y="677.5"/>
      <point x="379.5" y="663.0" type="curve" smooth="yes"/>
      <point x="351.5" y="545.5"/>
      <point x="297.5" y="447.0"/>
      <point x="190.5" y="335.5" type="curve"/>
      <point x="91.0" y="705.0" type="line"/>
      <point x="73.5" y="700.0" type="line"/>
      <point x="176.0" y="312.0" type="line"/>
    </contour>
  </outline>
</glyph>
<glyph name="Z" format="2">
  <advance width="358.0"/>
  <unicode hex="005A"/>
  <anchor x="139.5" y="0.0" name="bottom"/>
  <anchor x="187.5" y="350.0" name="center"/>
  <anchor x="247.0" y="700.0" name="top"/>
  <outline>
    <contour>
      <point x="-25.5" y="0.0" type="line"/>
      <point x="304.5" y="0.0" type="line"/>
      <point x="307.5" y="19.0" type="line"/>
      <point x="1.5" y="19.0" type="line"/>
      <point x="394.0" y="685.0" type="line"/>
      <point x="396.0" y="700.0" type="line"/>
      <point x="107.5" y="700.0" type="line"/>
      <point x="104.5" y="681.0" type="line"/>
      <point x="370.0" y="681.0" type="line"/>
      <point x="-22.5" y="15.0" type="line"/>
    </contour>
  </outline>
</glyph>
<glyph name="bracketleft" format="2">
  <advance width="221.6"/>
  <unicode hex="005B"/>
  <outline>
    <contour>
      <point x="20.0" y="-192.0" type="line"/>
      <point x="165.0" y="722.2" type="line"/>
      <point x="282.2" y="722.2" type="line"/>
      <point x="285.2" y="740.0" type="line"/>
      <point x="148.2" y="740.0" type="line"/>
      <point x="-2.0" y="-210.0" type="line"/>
      <point x="134.2" y="-210.0" type="line"/>
      <point x="137.2" y="-192.0" type="line"/>
    </contour>
  </outline>
</glyph>
<glyph name="backslash" format="2">
  <advance width="310.0"/>
  <unicode hex="005C"/>
  <outline>
    <contour>
      <point x="98.4" y="740.0" type="line"/>
      <point x="80.0" y="740.0" type="line"/>
      <point x="246.6" y="-210.0" type="line"/>
      <point x="265.0" y="-210.0" type="line"/>
    </contour>
  </outline>
</glyph>
<glyph name="bracketright" format="2">
  <advance width="221.6"/>
  <unicode hex="005D"/>
  <outline>
    <contour>
      <point x="-62.6" y="-192.0" type="line"/>
      <point x="-65.6" y="-210.0" type="line"/>
      <point x="69.6" y="-210.0" type="line"/>
      <point x="220.6" y="740.0" type="line"/>
      <point x="84.4" y="740.0" type="line"/>
      <point x="81.4" y="722.0" type="line"/>
      <point x="198.6" y="722.0" type="line"/>
      <point x="53.6" y="-192.0" type="line"/>
    </contour>
  </outline>
</glyph>
<glyph name="asciicircum" format="2">
  <advance width="373.4"/>
  <unicode hex="005E"/>
  <outline>
    <contour>
      <point x="39.0" y="278.4" type="line"/>
      <point x="58.4" y="278.4" type="line"/>
      <point x="251.4" y="687.4" type="line"/>
      <point x="317.0" y="278.4" type="line"/>
      <point x="336.0" y="278.4" type="line"/>
      <point x="264.2" y="710.0" type="line"/>
      <point x="244.6" y="710.0" type="line"/>
    </contour>
  </outline>
</glyph>
<glyph name="underscore" format="2">
  <advance width="643.6"/>
  <unicode hex="005F"/>
  <outline>
    <contour>
      <point x="-60.4" y="-136.0" type="line"/>
      <point x="574.0" y="-136.0" type="line"/>
      <point x="577.0" y="-116.4" type="line"/>
      <point x="-57.4" y="-116.4" type="line"/>
    </contour>
  </outline>
</glyph>
<glyph name="a" format="2">
  <advance width="359.6"/>
  <unicode hex="0061"/>
  <note>
15
</note>
  <anchor x="138.0" y="0.0" name="bottom"/>
  <anchor x="327.0" y="0.0" name="ogonek"/>
  <anchor x="231.6" y="530.0" name="top"/>
  <outline>
    <contour>
      <point x="286.8" y="-10.0" type="curve" smooth="yes"/>
      <point x="301.0" y="-10.0"/>
      <point x="315.0" y="-6.4"/>
      <point x="327.2" y="-0.6000000000000001" type="curve"/>
      <point x="322.8" y="14.0" type="line"/>
      <point x="311.2" y="9.2"/>
      <point x="301.6" y="6.4"/>
      <point x="290.8" y="6.4" type="curve" smooth="yes"/>
      <point x="270.6" y="6.4"/>
      <point x="261.8" y="17.8"/>
      <point x="261.8" y="41.0" type="curve" smooth="yes"/>
      <point x="261.8" y="48.8"/>
      <point x="272.4" y="118.4"/>
      <point x="336.4" y="518.4" type="curve"/>
      <point x="312.4" y="532.0"/>
      <point x="280.6" y="540.0"/>
      <point x="249.4" y="540.0" type="curve" smooth="yes"/>
      <point x="113.2" y="540.0"/>
      <point x="24.4" y="376.8"/>
      <point x="24.4" y="150.6" type="curve" smooth="yes"/>
      <point x="24.4" y="44.8"/>
      <point x="64.0" y="-10.0"/>
      <point x="138.2" y="-10.0" type="curve" smooth="yes"/>
      <point x="178.2" y="-10.0"/>
      <point x="216.8" y="5.4"/>
      <point x="244.8" y="26.200000000000003" type="curve"/>
      <point x="248.0" y="4.800000000000001"/>
      <point x="263.8" y="-10.0"/>
    </contour>
    <contour>
      <point x="242.0" y="43.0" type="line"/>
      <point x="213.8" y="22.2"/>
      <point x="174.0" y="8.2"/>
      <point x="138.4" y="8.2" type="curve" smooth="yes"/>
      <point x="77.8" y="8.2"/>
      <point x="43.6" y="58.6"/>
      <point x="43.6" y="152.8" type="curve" smooth="yes"/>
      <point x="43.6" y="378.0"/>
      <point x="131.4" y="522.8"/>
      <point x="246.4" y="522.8" type="curve" smooth="yes"/>
      <point x="274.6" y="522.8"/>
      <point x="297.4" y="517.8"/>
      <point x="315.0" y="508.0" type="curve"/>
    </contour>
  </outline>
</glyph>
<glyph name="b" format="2">
  <advance width="363.8"/>
  <unicode hex="0062"/>
  <note>
12
</note>
  <outline>
    <contour>
      <point x="155.4" y="740.0" type="line"/>
      <point x="136.4" y="740.0" type="line"/>
      <point x="20.8" y="7.4" type="line"/>
      <point x="52.2" y="-3.8"/>
      <point x="81.2" y="-10.0"/>
      <point x="115.2" y="-10.0" type="curve" smooth="yes"/>
      <point x="249.60000000000002" y="-10.0"/>
      <point x="338.2" y="189.8"/>
      <point x="338.2" y="381.2" type="curve" smooth="yes"/>
      <point x="338.2" y="488.4"/>
      <point x="303.0" y="540.0"/>
      <point x="230.2" y="540.0" type="curve" smooth="yes"/>
      <point x="188.6" y="540.0"/>
      <point x="153.8" y="523.4"/>
      <point x="117.0" y="500.8" type="curve"/>
    </contour>
    <contour>
      <point x="227.60000000000002" y="521.8" type="curve" smooth="yes"/>
      <point x="294.2" y="521.8"/>
      <point x="319.2" y="461.8"/>
      <point x="319.2" y="378.2" type="curve" smooth="yes"/>
      <point x="319.2" y="194.8"/>
      <point x="235.0" y="8.2"/>
      <point x="114.0" y="8.2" type="curve" smooth="yes"/>
      <point x="85.80000000000001" y="8.2"/>
      <point x="60.0" y="13.8"/>
      <point x="42.0" y="20.8" type="curve"/>
      <point x="114.0" y="479.2" type="line"/>
      <point x="151.8" y="506.6"/>
      <point x="193.4" y="521.8"/>
    </contour>
  </outline>
</glyph>
<glyph name="c" format="2">
  <advance width="298.0"/>
  <unicode hex="0063"/>
  <note>
10
</note>
  <anchor x="154.2" y="0.0" name="bottom"/>
  <anchor x="234.0" y="530.0" name="top"/>
  <outline>
    <contour>
      <point x="151.4" y="-10.0" type="curve" smooth="yes"/>
      <point x="190.60000000000002" y="-10.0"/>
      <point x="220.60000000000002" y="-3.8"/>
      <point x="246.0" y="4.6000000000000005" type="curve"/>
      <point x="242.60000000000002" y="21.0" type="line"/>
      <point x="219.4" y="13.4"/>
      <point x="189.2" y="7.4"/>
      <point x="155.2" y="7.4" type="curve" smooth="yes"/>
      <point x="83.0" y="7.4"/>
      <point x="42.4" y="52.0"/>
      <point x="42.4" y="139.4" type="curve" smooth="yes"/>
      <point x="42.4" y="341.6"/>
      <point x="127.4" y="521.0"/>
      <point x="234.4" y="521.0" type="curve" smooth="yes"/>
      <point x="263.2" y="521.0"/>
      <point x="286.6" y="517.6"/>
      <point x="313.6" y="508.6" type="curve"/>
      <point x="320.4" y="527.0" type="line"/>
      <point x="290.0" y="536.0"/>
      <point x="265.4" y="540.0"/>
      <point x="237.4" y="540.0" type="curve" smooth="yes"/>
      <point x="115.4" y="540.0"/>
      <point x="24.200000000000003" y="359.6"/>
      <point x="24.200000000000003" y="136.6" type="curve" smooth="yes"/>
      <point x="24.200000000000003" y="43.0"/>
      <point x="70.8" y="-10.0"/>
    </contour>
  </outline>
</glyph>
<glyph name="d" format="2">
  <advance width="361.0"/>
  <unicode hex="0064"/>
  <note>
17
</note>
  <anchor x="130.2" y="0.0" name="bottom"/>
  <anchor x="186.2" y="351.0" name="center"/>
  <anchor x="247.0" y="740.0" name="top"/>
  <anchor x="446.0" y="740.0" name="topright"/>
  <outline>
    <contour>
      <point x="285.8" y="-10.0" type="curve" smooth="yes"/>
      <point x="297.4" y="-10.0"/>
      <point x="311.2" y="-7.2"/>
      <point x="325.4" y="-0.6000000000000001" type="curve"/>
      <point x="320.4" y="14.0" type="line"/>
      <point x="310.4" y="10.0"/>
      <point x="299.2" y="6.4"/>
      <point x="287.6" y="6.4" type="curve" smooth="yes"/>
      <point x="269.4" y="6.4"/>
      <point x="259.4" y="17.0"/>
      <point x="259.4" y="39.2" type="curve" smooth="yes"/>
      <point x="259.4" y="46.8"/>
      <point x="287.6" y="219.20000000000002"/>
      <point x="370.0" y="740.0" type="curve"/>
      <point x="351.0" y="740.0" type="line"/>
      <point x="317.4" y="528.4" type="line"/>
      <point x="293.8" y="534.8"/>
      <point x="270.6" y="540.0"/>
      <point x="240.2" y="540.0" type="curve" smooth="yes"/>
      <point x="109.0" y="540.0"/>
      <point x="22.8" y="359.6"/>
      <point x="22.8" y="135.4" type="curve" smooth="yes"/>
      <point x="22.8" y="38.8"/>
      <point x="64.2" y="-10.0"/>
      <point x="134.4" y="-10.0" type="curve" smooth="yes"/>
      <point x="173.0" y="-10.0"/>
      <point x="216.8" y="7.0"/>
      <point x="242.2" y="27.200000000000003" type="curve"/>
      <point x="246.4" y="3.0"/>
      <point x="261.0" y="-10.0"/>
    </contour>
    <contour>
      <point x="135.0" y="9.0" type="curve" smooth="yes"/>
      <point x="77.2" y="9.0"/>
      <point x="41.2" y="55.2"/>
      <point x="41.2" y="133.2" type="curve" smooth="yes"/>
      <point x="41.2" y="341.2"/>
      <point x="122.2" y="522.8"/>
      <point x="240.4" y="522.8" type="curve" smooth="yes"/>
      <point x="270.6" y="522.8"/>
      <point x="292.2" y="517.2"/>
      <point x="314.4" y="511.0" type="curve"/>
      <point x="240.8" y="43.2" type="line"/>
      <point x="212.2" y="22.2"/>
      <point x="174.4" y="9.0"/>
    </contour>
  </outline>
</glyph>
<glyph name="e" format="2">
  <advance width="335.0"/>
  <unicode hex="0065"/>
  <note>
14 points
</note>
  <anchor x="162.6" y="0.0" name="bottom"/>
  <anchor x="240.2" y="2.6" name="ogonek"/>
  <anchor x="239.8" y="531.6" name="top"/>
  <outline>
    <contour>
      <point x="46.8" y="266.0" type="curve"/>
      <point x="43.6" y="248.2" type="line"/>
      <point x="79.0" y="250.0"/>
      <point x="121.6" y="256.0"/>
      <point x="161.0" y="268.0" type="curve" smooth="yes"/>
      <point x="271.0" y="301.6"/>
      <point x="342.0" y="369.2"/>
      <point x="342.0" y="456.4" type="curve" smooth="yes"/>
      <point x="342.0" y="507.2"/>
      <point x="308.0" y="540.0"/>
      <point x="244.2" y="540.0" type="curve" smooth="yes"/>
      <point x="119.0" y="540.0"/>
      <point x="28.200000000000003" y="393.4"/>
      <point x="28.200000000000003" y="175.2" type="curve" smooth="yes"/>
      <point x="28.200000000000003" y="57.8"/>
      <point x="74.4" y="-10.0"/>
      <point x="161.6" y="-10.0" type="curve" smooth="yes"/>
      <point x="201.8" y="-10.0"/>
      <point x="248.0" y="0.20000000000000018"/>
      <point x="282.0" y="17.8" type="curve"/>
      <point x="276.0" y="33.4" type="line"/>
      <point x="236.60000000000002" y="15.6"/>
      <point x="199.8" y="7.4"/>
      <point x="162.6" y="7.4" type="curve" smooth="yes"/>
      <point x="89.6" y="7.4"/>
      <point x="46.4" y="72.0"/>
      <point x="46.4" y="176.0" type="curve" smooth="yes"/>
      <point x="46.4" y="376.4"/>
      <point x="133.6" y="522.6"/>
      <point x="241.6" y="522.6" type="curve" smooth="yes"/>
      <point x="292.6" y="522.6"/>
      <point x="323.8" y="498.2"/>
      <point x="323.8" y="452.6" type="curve" smooth="yes"/>
      <point x="323.8" y="379.8"/>
      <point x="259.8" y="317.4"/>
      <point x="162.2" y="287.0" type="curve" smooth="yes"/>
      <point x="123.2" y="275.0"/>
      <point x="83.4" y="267.6"/>
    </contour>
  </outline>
</glyph>
<glyph name="f" format="2">
  <advance width="220.4"/>
  <unicode hex="0066"/>
  <outline>
    <contour>
      <point x="-66.8" y="-220.0" type="curve" smooth="yes"/>
      <point x="0.0" y="-220.0"/>
      <point x="32.6" y="-165.0"/>
      <point x="50.400000000000006" y="-51.4" type="curve" smooth="yes"/>
      <point x="132.0" y="465.0" type="line"/>
      <point x="257.2" y="465.0" type="line"/>
      <point x="260.2" y="484.0" type="line"/>
      <point x="135.0" y="484.0" type="line"/>
      <point x="162.4" y="659.8"/>
      <point x="203.8" y="731.0"/>
      <point x="280.8" y="731.0" type="curve" smooth="yes"/>
      <point x="308.0" y="731.0"/>
      <point x="329.8" y="725.8"/>
      <point x="354.0" y="719.0" type="curve"/>
      <point x="360.8" y="737.0" type="line"/>
      <point x="332.6" y="746.2"/>
      <point x="309.2" y="750.0"/>
      <point x="285.8" y="750.0" type="curve" smooth="yes"/>
      <point x="194.2" y="750.0"/>
      <point x="146.2" y="675.8"/>
      <point x="115.8" y="484.0" type="curve"/>
      <point x="44.0" y="478.2" type="line"/>
      <point x="42.0" y="465.0" type="line"/>
      <point x="112.8" y="465.0" type="line"/>
      <point x="31.6" y="-49.8" type="line" smooth="yes"/>
      <point x="16.0" y="-148.0"/>
      <point x="-7.800000000000001" y="-203.0"/>
      <point x="-69.4" y="-203.0" type="curve" smooth="yes"/>
      <point x="-83.6" y="-203.0"/>
      <point x="-95.4" y="-200.8"/>
      <point x="-112.0" y="-195.4" type="curve"/>
      <point x="-116.4" y="-212.4" type="line"/>
      <point x="-101.0" y="-217.8"/>
      <point x="-85.4" y="-220.0"/>
    </contour>
  </outline>
</glyph>
<glyph name="g" format="2">
  <advance width="358.4"/>
  <unicode hex="0067"/>
  <note>
16
</note>
  <anchor x="92.0" y="-212.0" name="bottom"/>
  <anchor x="228.4" y="530.0" name="top"/>
  <outline>
    <contour>
      <point x="-0.39999999999999947" y="-204.4" type="line"/>
      <point x="27.6" y="-214.6"/>
      <point x="61.6" y="-220.0"/>
      <point x="94.0" y="-220.0" type="curve" smooth="yes"/>
      <point x="178.8" y="-220.0"/>
      <point x="226.60000000000002" y="-164.6"/>
      <point x="245.2" y="-44.4" type="curve" smooth="yes"/>
      <point x="335.8" y="519.4" type="line"/>
      <point x="309.6" y="532.0"/>
      <point x="280.6" y="540.0"/>
      <point x="250.2" y="540.0" type="curve" smooth="yes"/>
      <point x="103.4" y="540.0"/>
      <point x="23.6" y="347.6"/>
      <point x="23.6" y="150.0" type="curve" smooth="yes"/>
      <point x="23.6" y="49.2"/>
      <point x="64.4" y="-10.0"/>
      <point x="135.0" y="-10.0" type="curve" smooth="yes"/>
      <point x="167.8" y="-10.0"/>
      <point x="206.4" y="2.2"/>
      <point x="237.8" y="24.200000000000003" type="curve"/>
      <point x="227.8" y="-41.0" type="line" smooth="yes"/>
      <point x="210.0" y="-155.2"/>
      <point x="168.4" y="-202.8"/>
      <point x="91.80000000000001" y="-202.8" type="curve" smooth="yes"/>
      <point x="62.800000000000004" y="-202.8"/>
      <point x="32.2" y="-197.2"/>
      <point x="4.6000000000000005" y="-186.8" type="curve"/>
    </contour>
    <contour>
      <point x="314.8" y="508.8" type="curve"/>
      <point x="241.2" y="45.0" type="line"/>
      <point x="215.0" y="24.0"/>
      <point x="169.0" y="8.2"/>
      <point x="137.8" y="8.2" type="curve" smooth="yes"/>
      <point x="77.8" y="8.2"/>
      <point x="42.8" y="60.4"/>
      <point x="42.8" y="156.0" type="curve" smooth="yes"/>
      <point x="42.8" y="347.2"/>
      <point x="124.4" y="522.6"/>
      <point x="248.4" y="522.6" type="curve" smooth="yes"/>
      <point x="275.2" y="522.6"/>
      <point x="295.8" y="516.2"/>
    </contour>
  </outline>
</glyph>
<glyph name="h" format="2">
  <advance width="374.0"/>
  <unicode hex="0068"/>
  <note>
16
</note>
  <anchor x="150.4" y="0.0" name="bottom"/>
  <anchor x="203.6" y="370.0" name="center"/>
  <anchor x="264.8" y="740.0" name="top"/>
  <outline>
    <contour>
      <point x="276.4" y="38.6" type="curve" smooth="yes"/>
      <point x="276.4" y="73.6"/>
      <point x="337.2" y="416.8"/>
      <point x="337.2" y="453.0" type="curve" smooth="yes"/>
      <point x="337.2" y="504.4"/>
      <point x="312.2" y="540.0"/>
      <point x="251.8" y="540.0" type="curve" smooth="yes"/>
      <point x="204.8" y="540.0"/>
      <point x="158.8" y="522.0"/>
      <point x="117.6" y="500.4" type="curve"/>
      <point x="155.4" y="740.0" type="line"/>
      <point x="136.4" y="740.0" type="line"/>
      <point x="19.4" y="0.0" type="line"/>
      <point x="38.4" y="0.0" type="line"/>
      <point x="113.8" y="479.0" type="line"/>
      <point x="155.8" y="503.4"/>
      <point x="202.6" y="521.8"/>
      <point x="244.8" y="521.8" type="curve" smooth="yes"/>
      <point x="300.2" y="521.8"/>
      <point x="317.2" y="491.6"/>
      <point x="317.2" y="450.8" type="curve" smooth="yes"/>
      <point x="317.2" y="412.4"/>
      <point x="258.2" y="76.0"/>
      <point x="258.2" y="35.6" type="curve" smooth="yes"/>
      <point x="258.2" y="5.4"/>
      <point x="278.6" y="-10.0"/>
      <point x="303.6" y="-10.0" type="curve" smooth="yes"/>
      <point x="314.2" y="-10.0"/>
      <point x="326.4" y="-8.8"/>
      <point x="340.8" y="-1.8" type="curve"/>
      <point x="336.8" y="13.8" type="line"/>
      <point x="324.6" y="8.8"/>
      <point x="315.4" y="7.4"/>
      <point x="307.4" y="7.4" type="curve" smooth="yes"/>
      <point x="285.8" y="7.4"/>
      <point x="276.4" y="18.6"/>
    </contour>
  </outline>
</glyph>
<glyph name="i" format="2">
  <advance width="145.4"/>
  <unicode hex="0069"/>
  <note>
Ajuster pts sur points
8
</note>
  <anchor x="28.200000000000003" y="0.0" name="bottom"/>
  <anchor x="38.2" y="0.0" name="ogonek"/>
  <anchor x="112.4" y="530.0" name="top"/>
  <outline>
    <contour>
      <point x="20.0" y="0.0" type="line"/>
      <point x="38.2" y="0.0" type="line"/>
      <point x="122.2" y="530.0" type="line"/>
      <point x="103.2" y="530.0" type="line"/>
    </contour>
    <contour>
      <point x="142.0" y="710.0" type="curve" smooth="yes"/>
      <point x="128.2" y="710.0"/>
      <point x="127.2" y="708.4"/>
      <point x="124.6" y="684.0" type="curve" smooth="yes"/>
      <point x="123.8" y="676.2"/>
      <point x="129.0" y="676.0"/>
      <point x="134.8" y="676.0" type="curve" smooth="yes"/>
      <point x="149.6" y="676.0"/>
      <point x="149.8" y="677.6"/>
      <point x="152.6" y="702.2" type="curve" smooth="yes"/>
      <point x="153.4" y="709.8"/>
      <point x="148.8" y="710.0"/>
    </contour>
  </outline>
</glyph>
<glyph name="k" format="2">
  <advance width="340.0"/>
  <unicode hex="006B"/>
  <anchor x="145.5" y="0.0" name="bottom"/>
  <anchor x="146.5" y="740.0" name="top"/>
  <outline>
    <contour>
      <point x="19.5" y="0.0" type="line"/>
      <point x="38.5" y="0.0" type="line"/>
      <point x="155.5" y="740.0" type="line"/>
      <point x="136.5" y="740.0" type="line"/>
    </contour>
    <contour>
      <point x="297.5" y="-10.0" type="curve" smooth="yes"/>
      <point x="304.5" y="-10.0"/>
      <point x="311.5" y="-8.5"/>
      <point x="318.5" y="-5.5" type="curve"/>
      <point x="314.5" y="10.0" type="line"/>
      <point x="308.5" y="8.0"/>
      <point x="303.0" y="7.0"/>
      <point x="298.5" y="7.0" type="curve" smooth="yes"/>
      <point x="270.5" y="7.0"/>
      <point x="243.5" y="42.0"/>
      <point x="181.5" y="164.5" type="curve" smooth="yes"/>
      <point x="86.5" y="346.0" type="line"/>
      <point x="76.0" y="326.0" type="line"/>
      <point x="174.5" y="134.0" type="line" smooth="yes"/>
      <point x="232.5" y="21.0"/>
      <point x="260.0" y="-10.0"/>
    </contour>
    <contour>
      <point x="130.0" y="249.0" type="line"/>
      <point x="224.0" y="310.0"/>
      <point x="306.5" y="414.0"/>
      <point x="355.0" y="531.0" type="curve"/>
      <point x="338.5" y="539.0" type="line"/>
      <point x="284.0" y="416.5"/>
      <point x="224.0" y="334.0"/>
      <point x="122.5" y="266.5" type="curve"/>
    </contour>
  </outline>
</glyph>
<glyph name="l" format="2">
  <advance width="164.2"/>
  <unicode hex="006C"/>
  <anchor x="83.4" y="0.0" name="bottom"/>
  <anchor x="87.4" y="370.0" name="center"/>
  <anchor x="145.6" y="740.0" name="top"/>
  <anchor x="231.6" y="740.0" name="topright"/>
  <outline>
    <contour>
      <point x="136.4" y="740.0" type="line"/>
      <point x="30.8" y="73.8" type="line" smooth="yes"/>
      <point x="29.6" y="64.8"/>
      <point x="28.0" y="53.0"/>
      <point x="28.0" y="42.6" type="curve" smooth="yes"/>
      <point x="28.0" y="11.2"/>
      <point x="42.8" y="-10.0"/>
      <point x="82.6" y="-10.0" type="curve" smooth="yes"/>
      <point x="99.6" y="-10.0"/>
      <point x="118.6" y="-6.4"/>
      <point x="134.4" y="-1.0" type="curve"/>
      <point x="130.2" y="14.8" type="line"/>
      <point x="112.80000000000001" y="9.4"/>
      <point x="98.6" y="6.6"/>
      <point x="85.6" y="6.6" type="curve" smooth="yes"/>
      <point x="54.6" y="6.6"/>
      <point x="46.400000000000006" y="22.0"/>
      <point x="46.400000000000006" y="39.8" type="curve" smooth="yes"/>
      <point x="46.400000000000006" y="54.2"/>
      <point x="49.6" y="70.2"/>
      <point x="53.2" y="93.0" type="curve" smooth="yes"/>
      <point x="155.6" y="740.0" type="line"/>
    </contour>
  </outline>
</glyph>
<glyph name="m" format="2">
  <advance width="563.4"/>
  <unicode hex="006D"/>
  <note>
24&gt;23 points
un point de trop dans la jointure avec 2e jambage
</note>
  <outline>
    <contour>
      <point x="493.0" y="-10.0" type="curve" smooth="yes"/>
      <point x="503.6" y="-10.0"/>
      <point x="515.8" y="-8.8"/>
      <point x="530.2" y="-1.8" type="curve"/>
      <point x="526.2" y="13.8" type="line"/>
      <point x="514.0" y="8.8"/>
      <point x="504.8" y="7.4"/>
      <point x="496.8" y="7.4" type="curve" smooth="yes"/>
      <point x="475.20000000000005" y="7.4"/>
      <point x="465.20000000000005" y="18.4"/>
      <point x="465.20000000000005" y="38.4" type="curve" smooth="yes"/>
      <point x="465.20000000000005" y="73.4"/>
      <point x="526.0" y="416.8"/>
      <point x="526.0" y="453.0" type="curve" smooth="yes"/>
      <point x="526.0" y="504.4"/>
      <point x="501.6" y="540.0"/>
      <point x="441.20000000000005" y="540.0" type="curve" smooth="yes"/>
      <point x="400.6" y="540.0"/>
      <point x="354.6" y="523.2"/>
      <point x="310.0" y="493.6" type="curve"/>
      <point x="298.4" y="521.8"/>
      <point x="271.8" y="540.0"/>
      <point x="233.0" y="540.0" type="curve" smooth="yes"/>
      <point x="193.8" y="540.0"/>
      <point x="154.0" y="522.0"/>
      <point x="116.4" y="500.0" type="curve"/>
      <point x="121.4" y="530.0" type="line"/>
      <point x="102.4" y="530.0" type="line"/>
      <point x="18.6" y="0.0" type="line"/>
      <point x="37.6" y="0.0" type="line"/>
      <point x="113.2" y="480.0" type="line"/>
      <point x="152.2" y="505.4"/>
      <point x="192.0" y="521.8"/>
      <point x="229.8" y="521.8" type="curve" smooth="yes"/>
      <point x="280.4" y="521.8"/>
      <point x="298.2" y="490.8"/>
      <point x="298.2" y="451.6" type="curve" smooth="yes"/>
      <point x="298.2" y="421.4"/>
      <point x="239.4" y="67.4"/>
      <point x="229.60000000000002" y="0.0" type="curve"/>
      <point x="249.4" y="0.0" type="line"/>
      <point x="259.2" y="66.8"/>
      <point x="318.0" y="429.8"/>
      <point x="318.0" y="458.6" type="curve" smooth="yes"/>
      <point x="318.0" y="465.2"/>
      <point x="317.0" y="471.8"/>
      <point x="315.8" y="477.6" type="curve"/>
      <point x="352.6" y="502.0"/>
      <point x="393.6" y="521.8"/>
      <point x="437.6" y="521.8" type="curve" smooth="yes"/>
      <point x="488.6" y="521.8"/>
      <point x="505.8" y="491.4"/>
      <point x="505.8" y="449.6" type="curve" smooth="yes"/>
      <point x="505.8" y="409.8"/>
      <point x="447.0" y="76.0"/>
      <point x="447.0" y="35.6" type="curve" smooth="yes"/>
      <point x="447.0" y="5.4"/>
      <point x="468.0" y="-10.0"/>
    </contour>
  </outline>
</glyph>
<glyph name="n" format="2">
  <advance width="372.4"/>
  <unicode hex="006E"/>
  <note>
16
</note>
  <anchor x="157.0" y="0.0" name="bottom"/>
  <anchor x="222.8" y="530.0" name="top"/>
  <outline>
    <contour>
      <point x="102.4" y="530.0" type="line"/>
      <point x="18.6" y="0.0" type="line"/>
      <point x="37.6" y="0.0" type="line"/>
      <point x="113.0" y="479.0" type="line"/>
      <point x="156.2" y="504.0"/>
      <point x="201.0" y="522.6"/>
      <point x="243.2" y="522.6" type="curve" smooth="yes"/>
      <point x="298.4" y="522.6"/>
      <point x="316.2" y="491.4"/>
      <point x="316.2" y="449.6" type="curve" smooth="yes"/>
      <point x="316.2" y="412.2"/>
      <point x="257.4" y="76.0"/>
      <point x="257.4" y="35.6" type="curve" smooth="yes"/>
      <point x="257.4" y="5.4"/>
      <point x="277.0" y="-10.0"/>
      <point x="302.0" y="-10.0" type="curve" smooth="yes"/>
      <point x="312.6" y="-10.0"/>
      <point x="324.8" y="-8.8"/>
      <point x="339.2" y="-1.8" type="curve"/>
      <point x="335.2" y="13.8" type="line"/>
      <point x="323.0" y="8.8"/>
      <point x="313.8" y="7.4"/>
      <point x="305.8" y="7.4" type="curve" smooth="yes"/>
      <point x="284.2" y="7.4"/>
      <point x="275.6" y="18.6"/>
      <point x="275.6" y="38.6" type="curve" smooth="yes"/>
      <point x="275.6" y="73.6"/>
      <point x="336.4" y="416.8"/>
      <point x="336.4" y="453.0" type="curve" smooth="yes"/>
      <point x="336.4" y="504.4"/>
      <point x="310.6" y="540.0"/>
      <point x="250.2" y="540.0" type="curve" smooth="yes"/>
      <point x="203.2" y="540.0"/>
      <point x="158.8" y="521.4"/>
      <point x="116.0" y="498.6" type="curve"/>
      <point x="121.4" y="530.0" type="line"/>
    </contour>
  </outline>
</glyph>
<glyph name="o" format="2">
  <advance width="359.5"/>
  <unicode hex="006F"/>
  <note>
8
</note>
  <anchor x="147.0" y="0.0" name="bottom"/>
  <anchor x="184.0" y="267.0" name="center"/>
  <anchor x="189.5" y="3.0" name="ogonek"/>
  <anchor x="223.0" y="530.0" name="top"/>
  <anchor x="284.0" y="522.0" name="topright"/>
  <outline>
    <contour>
      <point x="140.0" y="-10.0" type="curve" smooth="yes"/>
      <point x="269.0" y="-10.0"/>
      <point x="331.0" y="236.5"/>
      <point x="331.0" y="397.5" type="curve" smooth="yes"/>
      <point x="331.0" y="500.5"/>
      <point x="289.0" y="539.5"/>
      <point x="216.0" y="539.5" type="curve" smooth="yes"/>
      <point x="88.5" y="539.5"/>
      <point x="25.0" y="290.0"/>
      <point x="25.0" y="131.0" type="curve" smooth="yes"/>
      <point x="25.0" y="27.0"/>
      <point x="65.5" y="-10.0"/>
    </contour>
    <contour>
      <point x="141.0" y="7.5" type="curve" smooth="yes"/>
      <point x="77.5" y="7.5"/>
      <point x="43.5" y="39.0"/>
      <point x="43.5" y="132.0" type="curve" smooth="yes"/>
      <point x="43.5" y="272.0"/>
      <point x="104.0" y="522.0"/>
      <point x="215.5" y="522.0" type="curve" smooth="yes"/>
      <point x="277.0" y="522.0"/>
      <point x="312.5" y="488.0"/>
      <point x="312.5" y="396.0" type="curve" smooth="yes"/>
      <point x="312.5" y="253.5"/>
      <point x="254.0" y="7.5"/>
    </contour>
  </outline>
</glyph>
<glyph name="q" format="2">
  <advance width="357.6"/>
  <unicode hex="0071"/>
  <note>
12
</note>
  <outline>
    <contour>
      <point x="335.4" y="522.6" type="line"/>
      <point x="305.6" y="532.2"/>
      <point x="274.0" y="540.0"/>
      <point x="240.0" y="540.0" type="curve" smooth="yes"/>
      <point x="78.6" y="540.0"/>
      <point x="22.8" y="280.8"/>
      <point x="22.8" y="133.6" type="curve" smooth="yes"/>
      <point x="22.8" y="36.8"/>
      <point x="67.4" y="-10.0"/>
      <point x="129.6" y="-10.0" type="curve" smooth="yes"/>
      <point x="172.2" y="-10.0"/>
      <point x="206.0" y="5.800000000000001"/>
      <point x="238.2" y="29.400000000000002" type="curve"/>
      <point x="198.4" y="-210.0" type="line"/>
      <point x="219.0" y="-210.0" type="line"/>
    </contour>
    <contour>
      <point x="314.4" y="510.6" type="curve"/>
      <point x="241.2" y="49.8" type="line"/>
      <point x="204.60000000000002" y="20.8"/>
      <point x="167.4" y="8.2"/>
      <point x="132.4" y="8.2" type="curve" smooth="yes"/>
      <point x="73.6" y="8.2"/>
      <point x="40.4" y="62.6"/>
      <point x="40.4" y="129.8" type="curve" smooth="yes"/>
      <point x="40.4" y="304.8"/>
      <point x="106.0" y="522.6"/>
      <point x="240.2" y="522.6" type="curve" smooth="yes"/>
      <point x="266.0" y="522.6"/>
      <point x="293.0" y="516.8"/>
    </contour>
  </outline>
</glyph>
<glyph name="r" format="2">
  <advance width="254.0"/>
  <unicode hex="0072"/>
  <anchor x="27.6" y="0.0" name="bottom"/>
  <anchor x="193.4" y="530.0" name="top"/>
  <outline>
    <contour>
      <point x="121.2" y="530.0" type="line"/>
      <point x="102.4" y="530.0" type="line"/>
      <point x="18.6" y="0.0" type="line"/>
      <point x="37.4" y="0.0" type="line"/>
      <point x="108.6" y="451.8" type="line"/>
      <point x="158.0" y="502.0"/>
      <point x="200.2" y="521.8"/>
      <point x="239.6" y="521.8" type="curve" smooth="yes"/>
      <point x="257.0" y="521.8"/>
      <point x="275.2" y="518.8"/>
      <point x="291.4" y="513.6" type="curve"/>
      <point x="298.2" y="530.8" type="line"/>
      <point x="283.4" y="536.6"/>
      <point x="263.4" y="540.0"/>
      <point x="241.8" y="540.0" type="curve" smooth="yes"/>
      <point x="199.6" y="540.0"/>
      <point x="155.6" y="519.4"/>
      <point x="112.6" y="479.2" type="curve"/>
    </contour>
  </outline>
</glyph>
<glyph name="s" format="2">
  <advance width="312.0"/>
  <unicode hex="0073"/>
  <anchor x="107.5" y="0.0" name="bottom"/>
  <anchor x="208.5" y="530.0" name="top"/>
  <outline>
    <contour>
      <point x="-9.5" y="12.5" type="line"/>
      <point x="19.5" y="-1.0"/>
      <point x="60.5" y="-10.0"/>
      <point x="105.5" y="-10.0" type="curve" smooth="yes"/>
      <point x="217.0" y="-10.0"/>
      <point x="265.5" y="63.5"/>
      <point x="265.5" y="133.5" type="curve" smooth="yes"/>
      <point x="265.5" y="268.5"/>
      <point x="84.0" y="283.0"/>
      <point x="84.0" y="405.0" type="curve" smooth="yes"/>
      <point x="84.0" y="467.0"/>
      <point x="128.0" y="521.5"/>
      <point x="212.5" y="521.5" type="curve" smooth="yes"/>
      <point x="248.0" y="521.5"/>
      <point x="277.5" y="512.5"/>
      <point x="302.5" y="502.5" type="curve"/>
      <point x="310.5" y="520.0" type="line"/>
      <point x="287.0" y="531.5"/>
      <point x="249.5" y="540.0"/>
      <point x="216.0" y="540.0" type="curve" smooth="yes"/>
      <point x="111.5" y="540.0"/>
      <point x="65.5" y="472.0"/>
      <point x="65.5" y="406.0" type="curve" smooth="yes"/>
      <point x="65.5" y="267.0"/>
      <point x="246.0" y="261.5"/>
      <point x="246.0" y="132.0" type="curve" smooth="yes"/>
      <point x="246.0" y="66.0"/>
      <point x="198.0" y="8.5"/>
      <point x="109.5" y="8.5" type="curve" smooth="yes"/>
      <point x="66.5" y="8.5"/>
      <point x="28.0" y="17.5"/>
      <point x="-1.0" y="31.0" type="curve"/>
    </contour>
  </outline>
</glyph>
<glyph name="t" format="2">
  <advance width="241.60000000000002"/>
  <unicode hex="0074"/>
  <anchor x="124.6" y="0.0" name="bottom"/>
  <anchor x="111.4" y="321.4" name="center"/>
  <anchor x="146.4" y="665.0" name="top"/>
  <anchor x="270.2" y="751.0" name="topright"/>
  <outline>
    <contour>
      <point x="199.8" y="21.0" type="line"/>
      <point x="177.8" y="14.0"/>
      <point x="154.4" y="9.0"/>
      <point x="133.2" y="9.0" type="curve" smooth="yes"/>
      <point x="83.6" y="9.0"/>
      <point x="64.2" y="33.2"/>
      <point x="64.2" y="79.2" type="curve" smooth="yes"/>
      <point x="64.2" y="91.8"/>
      <point x="66.0" y="105.4"/>
      <point x="68.2" y="121.4" type="curve" smooth="yes"/>
      <point x="130.0" y="511.4" type="line"/>
      <point x="278.2" y="511.4" type="line"/>
      <point x="281.2" y="530.0" type="line"/>
      <point x="133.0" y="530.0" type="line"/>
      <point x="154.2" y="665.0" type="line"/>
      <point x="140.8" y="665.0" type="line"/>
      <point x="114.0" y="530.0" type="line"/>
      <point x="41.0" y="524.0" type="line"/>
      <point x="38.8" y="511.4" type="line"/>
      <point x="111.0" y="511.4" type="line"/>
      <point x="49.2" y="121.4" type="line" smooth="yes"/>
      <point x="46.2" y="104.2"/>
      <point x="45.0" y="87.0"/>
      <point x="45.0" y="73.6" type="curve" smooth="yes"/>
      <point x="45.0" y="20.8"/>
      <point x="68.6" y="-10.0"/>
      <point x="129.4" y="-10.0" type="curve" smooth="yes"/>
      <point x="149.8" y="-10.0"/>
      <point x="176.4" y="-6.2"/>
      <point x="205.0" y="3.8000000000000007" type="curve"/>
    </contour>
  </outline>
</glyph>
<glyph name="u" format="2">
  <advance width="367.2"/>
  <unicode hex="0075"/>
  <note>
15
</note>
  <anchor x="140.0" y="0.0" name="bottom"/>
  <anchor x="331.0" y="0.0" name="ogonek"/>
  <anchor x="218.8" y="530.0" name="top"/>
  <anchor x="340.8" y="530.0" name="topright"/>
  <outline>
    <contour>
      <point x="113.80000000000001" y="-10.0" type="curve" smooth="yes"/>
      <point x="160.6" y="-10.0"/>
      <point x="200.2" y="5.2"/>
      <point x="248.0" y="33.8" type="curve"/>
      <point x="250.4" y="2.6"/>
      <point x="267.0" y="-10.0"/>
      <point x="292.2" y="-10.0" type="curve" smooth="yes"/>
      <point x="300.2" y="-10.0"/>
      <point x="318.6" y="-6.2"/>
      <point x="331.0" y="0.0" type="curve"/>
      <point x="326.4" y="14.6" type="line"/>
      <point x="314.0" y="9.6"/>
      <point x="301.0" y="6.6"/>
      <point x="294.0" y="6.6" type="curve" smooth="yes"/>
      <point x="272.8" y="6.6"/>
      <point x="265.4" y="18.4"/>
      <point x="265.4" y="38.8" type="curve" smooth="yes"/>
      <point x="265.4" y="50.4"/>
      <point x="268.0" y="73.2"/>
      <point x="340.8" y="530.0" type="curve"/>
      <point x="321.6" y="530.0" type="line"/>
      <point x="247.4" y="52.0" type="line"/>
      <point x="200.8" y="22.6"/>
      <point x="161.2" y="7.4"/>
      <point x="117.80000000000001" y="7.4" type="curve" smooth="yes"/>
      <point x="73.0" y="7.4"/>
      <point x="49.8" y="35.2"/>
      <point x="49.8" y="72.8" type="curve" smooth="yes"/>
      <point x="49.8" y="86.8"/>
      <point x="50.8" y="97.2"/>
      <point x="118.6" y="530.0" type="curve"/>
      <point x="99.6" y="530.0" type="line"/>
      <point x="50.2" y="205.2"/>
      <point x="30.8" y="103.8"/>
      <point x="30.8" y="67.8" type="curve" smooth="yes"/>
      <point x="30.8" y="20.4"/>
      <point x="61.2" y="-10.0"/>
    </contour>
  </outline>
</glyph>
<glyph name="v" format="2">
  <advance width="313.5"/>
  <unicode hex="0076"/>
  <outline>
    <contour>
      <point x="125.5" y="-3.0" type="line"/>
      <point x="280.5" y="365.5"/>
      <point x="325.5" y="427.0"/>
      <point x="326.0" y="530.0" type="curve"/>
      <point x="307.5" y="530.0" type="line"/>
      <point x="303.5" y="431.0"/>
      <point x="276.5" y="401.0"/>
      <point x="118.5" y="27.0" type="curve"/>
      <point x="71.5" y="532.0" type="line"/>
      <point x="53.0" y="530.5" type="line"/>
      <point x="104.0" y="-3.0" type="line"/>
    </contour>
  </outline>
</glyph>
<glyph name="w" format="2">
  <advance width="511.0"/>
  <unicode hex="0077"/>
  <note>
15
</note>
  <anchor x="227.0" y="0.0" name="bottom"/>
  <anchor x="288.5" y="530.0" name="top"/>
  <outline>
    <contour>
      <point x="341.0" y="0.0" type="line"/>
      <point x="491.0" y="381.0"/>
      <point x="515.5" y="425.5"/>
      <point x="522.5" y="530.0" type="curve"/>
      <point x="504.0" y="530.0" type="line"/>
      <point x="495.0" y="423.5"/>
      <point x="476.5" y="386.5"/>
      <point x="335.0" y="31.5" type="curve"/>
      <point x="297.5" y="483.0" type="line"/>
      <point x="276.0" y="483.0" type="line"/>
      <point x="220.0" y="332.0"/>
      <point x="165.0" y="181.0"/>
      <point x="109.0" y="30.0" type="curve"/>
      <point x="67.0" y="532.0" type="line"/>
      <point x="49.0" y="530.5" type="line"/>
      <point x="93.5" y="0.0" type="line"/>
      <point x="115.0" y="0.0" type="line"/>
      <point x="171.0" y="150.0"/>
      <point x="227.5" y="300.5"/>
      <point x="283.5" y="450.5" type="curve"/>
      <point x="319.5" y="0.0" type="line"/>
    </contour>
  </outline>
</glyph>
<glyph name="x" format="2">
  <advance width="311.0"/>
  <unicode hex="0078"/>
  <outline>
    <contour>
      <point x="306.5" y="530.0" type="line"/>
      <point x="297.0" y="458.5"/>
      <point x="273.0" y="384.5"/>
      <point x="165.5" y="283.5" type="curve"/>
      <point x="88.0" y="535.5" type="line"/>
      <point x="71.0" y="530.0" type="line"/>
      <point x="150.5" y="271.5" type="line"/>
      <point x="43.0" y="171.5"/>
      <point x="-6.0" y="84.0"/>
      <point x="-12.5" y="0.0" type="curve"/>
      <point x="5.0" y="0.0" type="line"/>
      <point x="16.5" y="88.0"/>
      <point x="56.5" y="159.5"/>
      <point x="156.5" y="252.5" type="curve"/>
      <point x="237.5" y="-4.0" type="line"/>
      <point x="254.0" y="1.0" type="line"/>
      <point x="171.0" y="265.5" type="line"/>
      <point x="282.5" y="365.0"/>
      <point x="318.0" y="458.0"/>
      <point x="324.5" y="530.0" type="curve"/>
    </contour>
  </outline>
</glyph>
<glyph name="y" format="2">
  <advance width="315.0"/>
  <unicode hex="0079"/>
  <anchor x="99.5" y="-210.0" name="bottom"/>
  <anchor x="187.5" y="530.0" name="top"/>
  <outline>
    <contour>
      <point x="311.5" y="538.0" type="line"/>
      <point x="285.5" y="353.5"/>
      <point x="210.5" y="175.5"/>
      <point x="135.5" y="20.0" type="curve"/>
      <point x="64.0" y="540.0" type="line"/>
      <point x="45.0" y="537.0" type="line"/>
      <point x="119.0" y="-2.0" type="line"/>
      <point x="123.0" y="-2.0" type="line"/>
      <point x="85.0" y="-81.5"/>
      <point x="46.0" y="-152.0"/>
      <point x="12.0" y="-209.0" type="curve"/>
      <point x="28.0" y="-220.0" type="line"/>
      <point x="146.5" y="-19.5"/>
      <point x="300.0" y="306.5"/>
      <point x="329.5" y="535.0" type="curve"/>
    </contour>
  </outline>
</glyph>
<glyph name="z" format="2">
  <advance width="323.5"/>
  <unicode hex="007A"/>
  <anchor x="135.0" y="0.0" name="bottom"/>
  <anchor x="157.5" y="275.0" name="center"/>
  <anchor x="206.0" y="530.0" name="top"/>
  <outline>
    <contour>
      <point x="-7.0" y="0.0" type="line"/>
      <point x="275.0" y="0.0" type="line"/>
      <point x="278.0" y="18.5" type="line"/>
      <point x="16.5" y="18.5" type="line"/>
      <point x="335.0" y="512.0" type="line"/>
      <point x="337.5" y="530.0" type="line"/>
      <point x="83.5" y="530.0" type="line"/>
      <point x="80.5" y="511.5" type="line"/>
      <point x="314.0" y="511.5" type="line"/>
      <point x="-5.0" y="18.0" type="line"/>
    </contour>
  </outline>
</glyph>
<glyph name="braceleft" format="2">
  <advance width="240.0"/>
  <unicode hex="007B"/>
  <outline>
    <contour>
      <point x="34.8" y="-120.0" type="curve" smooth="yes"/>
      <point x="34.8" y="-171.0"/>
      <point x="54.8" y="-210.0"/>
      <point x="106.2" y="-210.0" type="curve" smooth="yes"/>
      <point x="132.8" y="-210.0" type="line"/>
      <point x="135.8" y="-190.0" type="line"/>
      <point x="109.2" y="-190.0" type="line" smooth="yes"/>
      <point x="68.6" y="-190.0"/>
      <point x="53.2" y="-159.6"/>
      <point x="53.2" y="-118.4" type="curve" smooth="yes"/>
      <point x="53.2" y="-3.4"/>
      <point x="127.6" y="99.0"/>
      <point x="127.6" y="210.8" type="curve" smooth="yes"/>
      <point x="127.6" y="237.6"/>
      <point x="123.0" y="262.4"/>
      <point x="100.0" y="272.0" type="curve"/>
      <point x="145.6" y="277.2"/>
      <point x="161.4" y="355.8"/>
      <point x="161.4" y="413.8" type="curve" smooth="yes"/>
      <point x="161.4" y="463.6"/>
      <point x="159.0" y="494.8"/>
      <point x="159.0" y="556.2" type="curve" smooth="yes"/>
      <point x="159.0" y="633.2"/>
      <point x="180.2" y="720.0"/>
      <point x="255.8" y="720.0" type="curve" smooth="yes"/>
      <point x="279.2" y="720.0" type="line"/>
      <point x="282.2" y="740.0" type="line"/>
      <point x="259.6" y="740.0" type="line" smooth="yes"/>
      <point x="165.8" y="740.0"/>
      <point x="140.4" y="639.4"/>
      <point x="140.4" y="549.0" type="curve" smooth="yes"/>
      <point x="140.4" y="492.8"/>
      <point x="142.8" y="458.8"/>
      <point x="142.8" y="423.2" type="curve" smooth="yes"/>
      <point x="142.8" y="363.2"/>
      <point x="131.8" y="282.8"/>
      <point x="82.8" y="282.8" type="curve" smooth="yes"/>
      <point x="68.8" y="282.8" type="line"/>
      <point x="65.8" y="263.8" type="line"/>
      <point x="78.4" y="263.8" type="line" smooth="yes"/>
      <point x="103.4" y="263.8"/>
      <point x="110.2" y="240.4"/>
      <point x="110.2" y="213.6" type="curve" smooth="yes"/>
      <point x="110.2" y="93.4"/>
      <point x="34.8" y="7.6"/>
    </contour>
  </outline>
</glyph>
<glyph name="bar" format="2">
  <advance width="145.2"/>
  <unicode hex="007C"/>
  <outline>
    <contour>
      <point x="163.6" y="790.0" type="line"/>
      <point x="145.6" y="790.0" type="line"/>
      <point x="-13.399999999999999" y="-210.0" type="line"/>
      <point x="4.600000000000001" y="-210.0" type="line"/>
    </contour>
  </outline>
</glyph>
<glyph name="braceright" format="2">
  <advance width="240.0"/>
  <unicode hex="007D"/>
  <outline>
    <contour>
      <point x="202.0" y="650.0" type="curve" smooth="yes"/>
      <point x="202.0" y="701.0"/>
      <point x="182.0" y="740.0"/>
      <point x="130.6" y="740.0" type="curve" smooth="yes"/>
      <point x="104.0" y="740.0" type="line"/>
      <point x="101.0" y="720.0" type="line"/>
      <point x="127.6" y="720.0" type="line" smooth="yes"/>
      <point x="168.2" y="720.0"/>
      <point x="183.6" y="689.6"/>
      <point x="183.6" y="648.4" type="curve" smooth="yes"/>
      <point x="183.6" y="533.4"/>
      <point x="109.2" y="438.2"/>
      <point x="109.2" y="326.4" type="curve" smooth="yes"/>
      <point x="109.2" y="299.6"/>
      <point x="113.8" y="274.8"/>
      <point x="136.8" y="265.2" type="curve"/>
      <point x="91.2" y="260.0"/>
      <point x="75.4" y="181.4"/>
      <point x="75.4" y="123.4" type="curve" smooth="yes"/>
      <point x="75.4" y="73.6"/>
      <point x="77.8" y="35.2"/>
      <point x="77.8" y="-26.2" type="curve" smooth="yes"/>
      <point x="77.8" y="-103.2"/>
      <point x="56.6" y="-190.0"/>
      <point x="-19.0" y="-190.0" type="curve" smooth="yes"/>
      <point x="-42.4" y="-190.0" type="line"/>
      <point x="-45.4" y="-210.0" type="line"/>
      <point x="-22.799999999999997" y="-210.0" type="line" smooth="yes"/>
      <point x="71.0" y="-210.0"/>
      <point x="96.4" y="-109.4"/>
      <point x="96.4" y="-19.0" type="curve" smooth="yes"/>
      <point x="96.4" y="37.2"/>
      <point x="94.0" y="78.4"/>
      <point x="94.0" y="114.0" type="curve" smooth="yes"/>
      <point x="94.0" y="174.0"/>
      <point x="105.0" y="254.4"/>
      <point x="154.0" y="254.4" type="curve" smooth="yes"/>
      <point x="168.0" y="254.4" type="line"/>
      <point x="171.0" y="273.4" type="line"/>
      <point x="158.4" y="273.4" type="line" smooth="yes"/>
      <point x="133.4" y="273.4"/>
      <point x="126.6" y="296.8"/>
      <point x="126.6" y="323.6" type="curve" smooth="yes"/>
      <point x="126.6" y="443.8"/>
      <point x="202.0" y="522.4"/>
    </contour>
  </outline>
</glyph>
<glyph name="asciitilde" format="2">
  <advance width="379.0"/>
  <unicode hex="007E"/>
  <outline>
    <contour>
      <point x="317.4" y="255.8" type="curve"/>
      <point x="321.4" y="280.6" type="line"/>
      <point x="301.0" y="255.8"/>
      <point x="284.0" y="241.6"/>
      <point x="261.2" y="241.6" type="curve" smooth="yes"/>
      <point x="204.2" y="241.6"/>
      <point x="189.2" y="358.8"/>
      <point x="127.4" y="358.8" type="curve" smooth="yes"/>
      <point x="103.8" y="358.8"/>
      <point x="86.6" y="347.2"/>
      <point x="67.2" y="325.0" type="curve"/>
      <point x="63.2" y="300.0" type="line"/>
      <point x="83.8" y="324.2"/>
      <point x="100.4" y="338.8"/>
      <point x="123.2" y="338.8" type="curve" smooth="yes"/>
      <point x="176.4" y="338.8"/>
      <point x="192.0" y="221.6"/>
      <point x="257.8" y="221.6" type="curve" smooth="yes"/>
      <point x="283.2" y="221.6"/>
      <point x="299.0" y="233.4"/>
    </contour>
  </outline>
</glyph>
<glyph name="cent" format="2">
  <advance width="406.8"/>
  <unicode hex="00A2"/>
  <outline>
    <contour>
      <point x="171.2" y="-105.0" type="line"/>
      <point x="189.2" y="-105.0" type="line"/>
      <point x="204.2" y="-9.8" type="line"/>
      <point x="243.60000000000002" y="-8.0"/>
      <point x="277.2" y="-1.7999999999999998"/>
      <point x="297.4" y="4.6000000000000005" type="curve"/>
      <point x="294.0" y="21.2" type="line"/>
      <point x="272.6" y="14.600000000000001"/>
      <point x="231.60000000000002" y="7.4"/>
      <point x="203.8" y="7.4" type="curve" smooth="yes"/>
      <point x="127.2" y="7.4"/>
      <point x="94.6" y="55.4"/>
      <point x="94.6" y="142.0" type="curve" smooth="yes"/>
      <point x="94.6" y="355.4"/>
      <point x="177.4" y="521.0"/>
      <point x="285.8" y="521.0" type="curve" smooth="yes"/>
      <point x="316.6" y="521.0"/>
      <point x="343.0" y="514.6"/>
      <point x="365.0" y="507.8" type="curve"/>
      <point x="371.8" y="526.2" type="line"/>
      <point x="348.2" y="533.0"/>
      <point x="324.6" y="538.4"/>
      <point x="296.0" y="539.2" type="curve"/>
      <point x="311.8" y="635.0" type="line"/>
      <point x="293.8" y="635.0" type="line"/>
      <point x="278.0" y="539.0" type="line"/>
      <point x="159.8" y="532.6"/>
      <point x="75.6" y="366.8"/>
      <point x="75.6" y="139.2" type="curve" smooth="yes"/>
      <point x="75.6" y="32.6"/>
      <point x="124.6" y="-4.2"/>
      <point x="185.2" y="-9.0" type="curve"/>
    </contour>
  </outline>
</glyph>
<glyph name="sterling" format="2">
  <advance width="406.8"/>
  <unicode hex="00A3"/>
  <outline>
    <contour>
      <point x="37.8" y="0.0" type="line"/>
      <point x="315.0" y="0.0" type="line"/>
      <point x="318.0" y="20.0" type="line"/>
      <point x="64.6" y="20.0" type="line"/>
      <point x="134.6" y="101.4"/>
      <point x="176.0" y="174.8"/>
      <point x="176.0" y="286.4" type="curve" smooth="yes"/>
      <point x="176.0" y="352.0"/>
      <point x="152.2" y="404.2"/>
      <point x="152.2" y="469.6" type="curve" smooth="yes"/>
      <point x="152.2" y="628.8"/>
      <point x="232.4" y="690.4"/>
      <point x="302.8" y="690.4" type="curve" smooth="yes"/>
      <point x="338.4" y="690.4"/>
      <point x="372.0" y="684.4"/>
      <point x="407.20000000000005" y="670.2" type="curve"/>
      <point x="416.4" y="688.0" type="line"/>
      <point x="383.0" y="702.8"/>
      <point x="343.0" y="710.0"/>
      <point x="311.8" y="710.0" type="curve" smooth="yes"/>
      <point x="213.0" y="710.0"/>
      <point x="134.0" y="636.2"/>
      <point x="134.0" y="473.6" type="curve" smooth="yes"/>
      <point x="134.0" y="389.8"/>
      <point x="157.0" y="357.2"/>
      <point x="157.0" y="281.2" type="curve" smooth="yes"/>
      <point x="157.0" y="168.6"/>
      <point x="105.80000000000001" y="98.6"/>
      <point x="38.400000000000006" y="20.0" type="curve"/>
    </contour>
    <contour>
      <point x="76.0" y="365.8" type="line"/>
      <point x="336.4" y="366.2" type="line"/>
      <point x="339.4" y="384.8" type="line"/>
      <point x="79.0" y="384.8" type="line"/>
    </contour>
  </outline>
</glyph>
<glyph name="currency" format="2">
  <advance width="384.0"/>
  <unicode hex="00A4"/>
  <outline>
    <contour>
      <point x="24.6" y="113.0" type="line"/>
      <point x="104.2" y="188.0" type="line"/>
      <point x="121.4" y="168.0"/>
      <point x="146.2" y="157.0"/>
      <point x="176.2" y="157.0" type="curve" smooth="yes"/>
      <point x="206.0" y="157.0"/>
      <point x="235.0" y="168.2"/>
      <point x="259.0" y="188.0" type="curve"/>
      <point x="315.0" y="113.0" type="line"/>
      <point x="330.6" y="127.0" type="line"/>
      <point x="274.0" y="202.0" type="line"/>
      <point x="300.8" y="230.2"/>
      <point x="318.8" y="270.0"/>
      <point x="318.8" y="313.2" type="curve" smooth="yes"/>
      <point x="318.8" y="337.0"/>
      <point x="312.8" y="358.2"/>
      <point x="301.8" y="376.0" type="curve"/>
      <point x="381.6" y="451.0" type="line"/>
      <point x="370.8" y="465.0" type="line"/>
      <point x="291.0" y="390.0" type="line"/>
      <point x="273.2" y="410.0"/>
      <point x="248.0" y="422.0"/>
      <point x="218.2" y="422.0" type="curve" smooth="yes"/>
      <point x="188.2" y="422.0"/>
      <point x="159.4" y="410.0"/>
      <point x="135.4" y="390.0" type="curve"/>
      <point x="80.4" y="465.0" type="line"/>
      <point x="66.4" y="451.0" type="line"/>
      <point x="120.4" y="376.8" type="line"/>
      <point x="93.4" y="348.0"/>
      <point x="76.4" y="309.0"/>
      <point x="76.4" y="266.0" type="curve" smooth="yes"/>
      <point x="76.4" y="241.0"/>
      <point x="82.4" y="219.0"/>
      <point x="93.4" y="201.0" type="curve"/>
      <point x="15.4" y="127.0" type="line"/>
    </contour>
    <contour>
      <point x="180.2" y="177.0" type="curve" smooth="yes"/>
      <point x="130.2" y="177.0"/>
      <point x="94.6" y="217.0"/>
      <point x="94.6" y="269.4" type="curve" smooth="yes"/>
      <point x="94.6" y="341.2"/>
      <point x="154.4" y="402.0"/>
      <point x="215.2" y="402.0" type="curve" smooth="yes"/>
      <point x="266.0" y="402.0"/>
      <point x="300.8" y="362.2"/>
      <point x="300.8" y="309.2" type="curve" smooth="yes"/>
      <point x="300.8" y="238.2"/>
      <point x="242.2" y="177.0"/>
    </contour>
  </outline>
</glyph>
<glyph name="yen" format="2">
  <advance width="407.0"/>
  <unicode hex="00A5"/>
  <outline>
    <contour>
      <point x="96.5" y="365.0" type="line"/>
      <point x="211.5" y="365.0" type="line"/>
      <point x="188.5" y="221.5" type="line"/>
      <point x="75.0" y="221.5" type="line"/>
      <point x="71.0" y="202.5" type="line"/>
      <point x="185.5" y="202.5" type="line"/>
      <point x="153.5" y="0.0" type="line"/>
      <point x="171.5" y="0.0" type="line"/>
      <point x="203.5" y="202.5" type="line"/>
      <point x="322.0" y="202.5" type="line"/>
      <point x="325.0" y="221.5" type="line"/>
      <point x="206.5" y="221.5" type="line"/>
      <point x="229.5" y="365.0" type="line"/>
      <point x="347.0" y="365.0" type="line"/>
      <point x="351.0" y="384.5" type="line"/>
      <point x="234.0" y="384.5" type="line"/>
      <point x="410.5" y="699.0" type="line"/>
      <point x="394.5" y="708.0" type="line"/>
      <point x="228.5" y="410.5" type="line"/>
      <point x="148.5" y="703.0" type="line"/>
      <point x="131.0" y="698.5" type="line"/>
      <point x="214.5" y="384.5" type="line"/>
      <point x="100.5" y="384.5" type="line"/>
    </contour>
  </outline>
</glyph>
<glyph name="brokenbar" format="2">
  <advance width="146.0"/>
  <unicode hex="00A6"/>
  <outline>
    <contour>
      <point x="99.6" y="391.0" type="line"/>
      <point x="163.6" y="790.0" type="line"/>
      <point x="145.6" y="790.0" type="line"/>
      <point x="81.6" y="391.0" type="line"/>
    </contour>
    <contour>
      <point x="50.6" y="190.0" type="line"/>
      <point x="-12.599999999999998" y="-210.0" type="line"/>
      <point x="5.400000000000002" y="-210.0" type="line"/>
      <point x="68.6" y="190.0" type="line"/>
    </contour>
  </outline>
</glyph>
<glyph name="section" format="2">
  <advance width="385.5"/>
  <unicode hex="00A7"/>
  <outline>
    <contour>
      <point x="-1.0" y="-157.0" type="curve"/>
      <point x="-16.0" y="-173.0" type="line"/>
      <point x="18.5" y="-206.0"/>
      <point x="47.5" y="-220.0"/>
      <point x="93.5" y="-220.0" type="curve" smooth="yes"/>
      <point x="217.0" y="-220.0"/>
      <point x="331.0" y="-67.0"/>
      <point x="331.0" y="133.0" type="curve" smooth="yes"/>
      <point x="331.0" y="316.5"/>
      <point x="226.0" y="436.5"/>
      <point x="226.0" y="595.0" type="curve" smooth="yes"/>
      <point x="226.0" y="672.0"/>
      <point x="259.0" y="728.0"/>
      <point x="313.0" y="728.0" type="curve" smooth="yes"/>
      <point x="330.5" y="728.0"/>
      <point x="346.0" y="723.0"/>
      <point x="363.0" y="715.0" type="curve"/>
      <point x="373.0" y="735.0" type="line"/>
      <point x="350.0" y="744.5"/>
      <point x="323.0" y="749.0"/>
      <point x="296.0" y="749.0" type="curve" smooth="yes"/>
      <point x="167.0" y="749.0"/>
      <point x="58.5" y="607.0"/>
      <point x="58.5" y="402.0" type="curve" smooth="yes"/>
      <point x="58.5" y="202.0"/>
      <point x="161.0" y="68.0"/>
      <point x="161.0" y="-74.0" type="curve" smooth="yes"/>
      <point x="161.0" y="-148.0"/>
      <point x="122.0" y="-198.0"/>
      <point x="74.0" y="-198.0" type="curve" smooth="yes"/>
      <point x="46.5" y="-198.0"/>
      <point x="18.5" y="-180.5"/>
    </contour>
    <contour>
      <point x="263.5" y="726.5" type="curve"/>
      <point x="229.0" y="703.0"/>
      <point x="209.0" y="651.0"/>
      <point x="209.0" y="598.0" type="curve" smooth="yes"/>
      <point x="209.0" y="418.0"/>
      <point x="313.0" y="312.0"/>
      <point x="313.0" y="121.0" type="curve" smooth="yes"/>
      <point x="313.0" y="-39.0"/>
      <point x="219.0" y="-186.0"/>
      <point x="122.0" y="-197.0" type="curve"/>
      <point x="159.5" y="-168.5"/>
      <point x="179.0" y="-121.0"/>
      <point x="179.0" y="-69.0" type="curve" smooth="yes"/>
      <point x="179.0" y="76.5"/>
      <point x="77.0" y="220.0"/>
      <point x="77.0" y="395.0" type="curve" smooth="yes"/>
      <point x="77.0" y="570.0"/>
      <point x="148.5" y="700.0"/>
    </contour>
  </outline>
</glyph>
<glyph name="copyright" format="2">
  <advance width="451.0"/>
  <unicode hex="00A9"/>
  <outline>
    <contour>
      <point x="189.5" y="-10.0" type="curve" smooth="yes"/>
      <point x="351.0" y="-10.0"/>
      <point x="430.5" y="273.5"/>
      <point x="430.5" y="517.5" type="curve" smooth="yes"/>
      <point x="430.5" y="644.5"/>
      <point x="380.0" y="711.5"/>
      <point x="286.0" y="711.5" type="curve" smooth="yes"/>
      <point x="124.0" y="711.5"/>
      <point x="44.5" y="428.0"/>
      <point x="44.5" y="184.0" type="curve" smooth="yes"/>
      <point x="44.5" y="57.0"/>
      <point x="95.0" y="-10.0"/>
    </contour>
    <contour>
      <point x="223.5" y="170.0" type="curve" smooth="yes"/>
      <point x="242.5" y="170.0"/>
      <point x="264.5" y="174.0"/>
      <point x="280.5" y="178.5" type="curve"/>
      <point x="279.5" y="196.5" type="line"/>
      <point x="266.0" y="192.0"/>
      <point x="243.5" y="189.0"/>
      <point x="225.5" y="189.0" type="curve" smooth="yes"/>
      <point x="186.0" y="189.0"/>
      <point x="163.5" y="219.5"/>
      <point x="163.5" y="265.5" type="curve" smooth="yes"/>
      <point x="163.5" y="381.0"/>
      <point x="211.5" y="498.5"/>
      <point x="273.5" y="498.5" type="curve" smooth="yes"/>
      <point x="292.0" y="498.5"/>
      <point x="307.0" y="497.0"/>
      <point x="323.5" y="491.5" type="curve"/>
      <point x="329.5" y="510.0" type="line"/>
      <point x="313.0" y="515.5"/>
      <point x="295.0" y="517.5"/>
      <point x="275.5" y="517.5" type="curve" smooth="yes"/>
      <point x="202.5" y="517.5"/>
      <point x="145.5" y="403.5"/>
      <point x="145.5" y="266.0" type="curve" smooth="yes"/>
      <point x="145.5" y="203.5"/>
      <point x="172.5" y="170.0"/>
    </contour>
    <contour>
      <point x="190.5" y="8.5" type="curve" smooth="yes"/>
      <point x="107.5" y="8.5"/>
      <point x="63.5" y="68.0"/>
      <point x="63.5" y="188.0" type="curve" smooth="yes"/>
      <point x="63.5" y="412.5"/>
      <point x="136.0" y="693.0"/>
      <point x="284.5" y="693.0" type="curve" smooth="yes"/>
      <point x="367.5" y="693.0"/>
      <point x="411.5" y="633.5"/>
      <point x="411.5" y="513.5" type="curve" smooth="yes"/>
      <point x="411.5" y="289.0"/>
      <point x="339.0" y="8.5"/>
    </contour>
  </outline>
</glyph>
<glyph name="ordfeminine" format="2">
  <advance width="261.4"/>
  <unicode hex="00AA"/>
  <outline>
    <contour>
      <point x="44.0" y="296.6" type="line"/>
      <point x="226.8" y="296.6" type="line"/>
      <point x="229.8" y="313.0" type="line"/>
      <point x="47.0" y="313.0" type="line"/>
    </contour>
    <component base="a.superior" xOffset="11.6"/>
  </outline>
</glyph>
<glyph name="logicalnot" format="2">
  <advance width="373.8"/>
  <unicode hex="00AC"/>
  <outline>
    <contour>
      <point x="64.0" y="385.6" type="line"/>
      <point x="325.6" y="385.6" type="line"/>
      <point x="292.8" y="177.0" type="line"/>
      <point x="311.6" y="177.0" type="line"/>
      <point x="347.4" y="403.6" type="line"/>
      <point x="67.0" y="403.6" type="line"/>
    </contour>
  </outline>
</glyph>
<glyph name="registered" format="2">
  <advance width="411.0"/>
  <unicode hex="00AE"/>
  <outline>
    <contour>
      <point x="201.0" y="209.0" type="curve" smooth="yes"/>
      <point x="332.0" y="209.0"/>
      <point x="424.0" y="451.0"/>
      <point x="424.0" y="723.0" type="curve" smooth="yes"/>
      <point x="424.0" y="836.0"/>
      <point x="381.5" y="894.0"/>
      <point x="297.0" y="894.0" type="curve" smooth="yes"/>
      <point x="166.0" y="894.0"/>
      <point x="75.0" y="651.5"/>
      <point x="75.0" y="380.0" type="curve" smooth="yes"/>
      <point x="75.0" y="267.0"/>
      <point x="116.5" y="209.0"/>
    </contour>
    <contour>
      <point x="201.0" y="225.0" type="curve" smooth="yes"/>
      <point x="127.5" y="225.0"/>
      <point x="92.5" y="279.0"/>
      <point x="92.5" y="381.5" type="curve" smooth="yes"/>
      <point x="92.5" y="637.5"/>
      <point x="177.0" y="877.5"/>
      <point x="297.0" y="877.5" type="curve" smooth="yes"/>
      <point x="370.5" y="877.5"/>
      <point x="406.5" y="824.0"/>
      <point x="406.5" y="721.0" type="curve" smooth="yes"/>
      <point x="406.5" y="465.0"/>
      <point x="321.0" y="225.0"/>
    </contour>
    <contour>
      <point x="163.0" y="405.5" type="line"/>
      <point x="180.0" y="405.5" type="line"/>
      <point x="202.0" y="540.5" type="line"/>
      <point x="221.0" y="538.5"/>
      <point x="236.0" y="536.5"/>
      <point x="261.5" y="537.5" type="curve"/>
      <point x="270.0" y="540.0" type="line"/>
      <point x="316.5" y="554.5"/>
      <point x="335.0" y="597.0"/>
      <point x="335.0" y="647.0" type="curve" smooth="yes"/>
      <point x="335.0" y="701.5"/>
      <point x="313.5" y="717.5"/>
      <point x="268.0" y="717.5" type="curve" smooth="yes"/>
      <point x="245.5" y="717.5"/>
      <point x="231.0" y="716.0"/>
      <point x="211.5" y="712.0" type="curve"/>
    </contour>
    <contour>
      <point x="246.0" y="553.5" type="curve" smooth="yes"/>
      <point x="230.0" y="553.5"/>
      <point x="218.0" y="555.0"/>
      <point x="204.5" y="556.0" type="curve"/>
      <point x="226.0" y="697.5" type="line"/>
      <point x="242.5" y="700.0"/>
      <point x="250.0" y="701.0"/>
      <point x="267.5" y="701.0" type="curve" smooth="yes"/>
      <point x="303.5" y="701.0"/>
      <point x="319.0" y="685.5"/>
      <point x="319.0" y="648.0" type="curve" smooth="yes"/>
      <point x="319.0" y="585.5"/>
      <point x="295.0" y="553.5"/>
    </contour>
    <contour>
      <point x="313.5" y="403.0" type="curve" smooth="yes"/>
      <point x="315.5" y="403.0"/>
      <point x="318.5" y="403.5"/>
      <point x="321.0" y="404.5" type="curve"/>
      <point x="322.5" y="421.5" type="line"/>
      <point x="320.5" y="420.0"/>
      <point x="318.5" y="420.0"/>
      <point x="317.5" y="420.0" type="curve" smooth="yes"/>
      <point x="300.5" y="420.0"/>
      <point x="288.0" y="455.0"/>
      <point x="272.0" y="549.5" type="curve"/>
      <point x="256.0" y="546.5" type="line"/>
      <point x="274.0" y="426.0"/>
      <point x="289.5" y="403.0"/>
    </contour>
  </outline>
</glyph>
<glyph name="degree" format="2">
  <advance width="211.6"/>
  <unicode hex="00B0"/>
  <outline>
    <contour>
      <point x="144.4" y="520.0" type="curve" smooth="yes"/>
      <point x="197.4" y="520.0"/>
      <point x="238.4" y="579.2"/>
      <point x="238.4" y="648.0" type="curve" smooth="yes"/>
      <point x="238.4" y="693.8"/>
      <point x="216.8" y="728.0"/>
      <point x="177.2" y="728.0" type="curve" smooth="yes"/>
      <point x="122.8" y="728.0"/>
      <point x="83.2" y="665.4"/>
      <point x="83.2" y="597.0" type="curve" smooth="yes"/>
      <point x="83.2" y="553.0"/>
      <point x="104.0" y="520.0"/>
    </contour>
    <contour>
      <point x="147.4" y="540.0" type="curve" smooth="yes"/>
      <point x="116.0" y="540.0"/>
      <point x="101.4" y="565.2"/>
      <point x="101.4" y="599.4" type="curve" smooth="yes"/>
      <point x="101.4" y="655.8"/>
      <point x="130.8" y="708.0"/>
      <point x="174.2" y="708.0" type="curve" smooth="yes"/>
      <point x="206.2" y="708.0"/>
      <point x="220.4" y="681.0"/>
      <point x="220.4" y="646.6" type="curve" smooth="yes"/>
      <point x="220.4" y="590.0"/>
      <point x="190.8" y="540.0"/>
    </contour>
  </outline>
</glyph>
<glyph name="plusminus" format="2">
  <advance width="375.4"/>
  <unicode hex="00B1"/>
  <outline>
    <contour>
      <point x="299.6" y="74.0" type="line"/>
      <point x="302.6" y="92.8" type="line"/>
      <point x="168.2" y="92.8" type="line"/>
      <point x="201.0" y="299.0" type="line"/>
      <point x="334.6" y="299.0" type="line"/>
      <point x="337.6" y="317.8" type="line"/>
      <point x="204.0" y="317.8" type="line"/>
      <point x="237.0" y="506.6" type="line"/>
      <point x="218.2" y="506.6" type="line"/>
      <point x="186.0" y="317.8" type="line"/>
      <point x="50.8" y="317.8" type="line"/>
      <point x="47.8" y="299.0" type="line"/>
      <point x="182.2" y="299.0" type="line"/>
      <point x="149.4" y="92.8" type="line"/>
      <point x="15.8" y="92.8" type="line"/>
      <point x="12.8" y="74.0" type="line"/>
    </contour>
  </outline>
</glyph>
<glyph name="uni00B2" format="2">
  <advance width="269.5"/>
  <unicode hex="00B2"/>
  <outline>
    <contour>
      <point x="58.5" y="367.5" type="line"/>
      <point x="238.0" y="367.5" type="line"/>
      <point x="239.5" y="384.5" type="line"/>
      <point x="82.0" y="384.5" type="line"/>
      <point x="169.5" y="492.5"/>
      <point x="256.0" y="602.5"/>
      <point x="256.0" y="703.0" type="curve" smooth="yes"/>
      <point x="256.0" y="747.0"/>
      <point x="235.5" y="772.5"/>
      <point x="195.0" y="772.5" type="curve" smooth="yes"/>
      <point x="167.5" y="772.5"/>
      <point x="139.0" y="761.0"/>
      <point x="114.5" y="738.5" type="curve"/>
      <point x="123.5" y="726.5" type="line"/>
      <point x="150.0" y="748.5"/>
      <point x="170.0" y="756.0"/>
      <point x="193.5" y="756.0" type="curve" smooth="yes"/>
      <point x="224.0" y="756.0"/>
      <point x="240.0" y="735.0"/>
      <point x="240.0" y="699.0" type="curve" smooth="yes"/>
      <point x="239.0" y="607.0"/>
      <point x="154.5" y="493.5"/>
      <point x="58.0" y="381.5" type="curve"/>
    </contour>
  </outline>
</glyph>
<glyph name="uni00B3" format="2">
  <advance width="266.0"/>
  <unicode hex="00B3"/>
  <outline>
    <contour>
      <point x="45.0" y="397.5" type="line"/>
      <point x="65.5" y="374.5"/>
      <point x="96.5" y="364.0"/>
      <point x="127.0" y="364.0" type="curve" smooth="yes"/>
      <point x="210.5" y="364.0"/>
      <point x="252.0" y="430.5"/>
      <point x="252.0" y="507.0" type="curve" smooth="yes"/>
      <point x="252.0" y="543.0"/>
      <point x="237.5" y="571.0"/>
      <point x="214.0" y="578.5" type="curve"/>
      <point x="243.5" y="593.0"/>
      <point x="268.0" y="636.0"/>
      <point x="268.0" y="688.0" type="curve" smooth="yes"/>
      <point x="268.0" y="741.5"/>
      <point x="238.0" y="773.0"/>
      <point x="188.5" y="773.0" type="curve" smooth="yes"/>
      <point x="164.0" y="773.0"/>
      <point x="139.0" y="768.0"/>
      <point x="112.0" y="751.5" type="curve"/>
      <point x="121.0" y="738.5" type="line"/>
      <point x="143.5" y="751.5"/>
      <point x="166.5" y="756.5"/>
      <point x="188.0" y="756.5" type="curve" smooth="yes"/>
      <point x="225.5" y="756.5"/>
      <point x="251.0" y="733.0"/>
      <point x="251.0" y="686.0" type="curve" smooth="yes"/>
      <point x="251.0" y="628.0"/>
      <point x="219.0" y="586.0"/>
      <point x="181.5" y="586.0" type="curve" smooth="yes"/>
      <point x="133.0" y="586.0" type="line"/>
      <point x="131.0" y="571.0" type="line"/>
      <point x="180.0" y="571.0" type="line" smooth="yes"/>
      <point x="215.0" y="571.0"/>
      <point x="236.0" y="550.5"/>
      <point x="236.0" y="503.5" type="curve" smooth="yes"/>
      <point x="236.0" y="440.0"/>
      <point x="199.0" y="380.5"/>
      <point x="126.5" y="380.5" type="curve" smooth="yes"/>
      <point x="98.5" y="380.5"/>
      <point x="76.0" y="390.0"/>
      <point x="57.5" y="409.5" type="curve"/>
    </contour>
  </outline>
</glyph>
<glyph name="uni00B5" format="2">
  <advance width="370.0"/>
  <unicode hex="00B5"/>
  <outline>
    <contour>
      <point x="-12.6" y="-210.0" type="line"/>
      <point x="5.600000000000001" y="-210.0" type="line"/>
      <point x="43.8" y="32.2" type="line"/>
      <point x="54.400000000000006" y="4.2"/>
      <point x="79.8" y="-10.0"/>
      <point x="116.6" y="-10.0" type="curve" smooth="yes"/>
      <point x="163.4" y="-10.0"/>
      <point x="203.0" y="5.2"/>
      <point x="250.8" y="33.8" type="curve"/>
      <point x="253.2" y="2.6"/>
      <point x="269.8" y="-10.0"/>
      <point x="295.0" y="-10.0" type="curve" smooth="yes"/>
      <point x="303.0" y="-10.0"/>
      <point x="321.4" y="-6.2"/>
      <point x="333.8" y="0.0" type="curve"/>
      <point x="329.2" y="14.6" type="line"/>
      <point x="316.8" y="9.6"/>
      <point x="303.8" y="6.6"/>
      <point x="296.8" y="6.6" type="curve" smooth="yes"/>
      <point x="275.6" y="6.6"/>
      <point x="268.2" y="18.4"/>
      <point x="268.2" y="38.8" type="curve" smooth="yes"/>
      <point x="268.2" y="50.4"/>
      <point x="270.8" y="73.2"/>
      <point x="343.6" y="530.0" type="curve"/>
      <point x="324.4" y="530.0" type="line"/>
      <point x="250.2" y="52.0" type="line"/>
      <point x="203.60000000000002" y="22.6"/>
      <point x="157.6" y="7.4"/>
      <point x="119.0" y="7.4" type="curve" smooth="yes"/>
      <point x="74.2" y="7.4"/>
      <point x="51.8" y="31.2"/>
      <point x="51.8" y="68.8" type="curve" smooth="yes"/>
      <point x="51.8" y="86.0"/>
      <point x="70.4" y="206.0"/>
      <point x="121.4" y="530.0" type="curve"/>
      <point x="102.4" y="530.0" type="line"/>
    </contour>
  </outline>
</glyph>
<glyph name="paragraph" format="2">
  <advance width="426.0"/>
  <unicode hex="00B6"/>
  <outline>
    <contour>
      <point x="269.8" y="-210.0" type="line"/>
      <point x="287.8" y="-210.0" type="line"/>
      <point x="437.8" y="740.0" type="line"/>
      <point x="419.8" y="740.0" type="line"/>
    </contour>
    <contour>
      <point x="167.0" y="196.8" type="line"/>
      <point x="102.0" y="210.0"/>
      <point x="66.6" y="270.2"/>
      <point x="66.6" y="360.0" type="curve" smooth="yes"/>
      <point x="66.6" y="548.0"/>
      <point x="150.8" y="717.2"/>
      <point x="298.2" y="722.6" type="curve"/>
      <point x="151.2" y="-210.0" type="line"/>
      <point x="169.2" y="-210.0" type="line"/>
      <point x="319.2" y="740.0" type="line"/>
      <point x="305.8" y="740.0" type="line" smooth="yes"/>
      <point x="142.2" y="740.0"/>
      <point x="48.2" y="557.8"/>
      <point x="48.2" y="358.8" type="curve" smooth="yes"/>
      <point x="48.2" y="260.2"/>
      <point x="87.8" y="192.8"/>
      <point x="162.0" y="177.2" type="curve"/>
    </contour>
  </outline>
</glyph>
<glyph name="periodcentered" format="2">
  <advance width="115.0"/>
  <unicode hex="00B7"/>
  <outline>
    <contour>
      <point x="44.8" y="285.6" type="curve" smooth="yes"/>
      <point x="43.0" y="272.6"/>
      <point x="44.6" y="270.0"/>
      <point x="56.2" y="270.0" type="curve" smooth="yes"/>
      <point x="69.4" y="270.0"/>
      <point x="70.4" y="271.0"/>
      <point x="72.6" y="288.4" type="curve" smooth="yes"/>
      <point x="74.4" y="300.6"/>
      <point x="73.6" y="304.0"/>
      <point x="62.0" y="304.0" type="curve" smooth="yes"/>
      <point x="48.8" y="304.0"/>
      <point x="47.0" y="303.0"/>
    </contour>
  </outline>
</glyph>
<glyph name="uni00B9" format="2">
  <advance width="265.8"/>
  <unicode hex="00B9"/>
  <outline>
    <contour>
      <point x="44.6" y="370.0" type="line"/>
      <point x="255.0" y="370.0" type="line"/>
      <point x="257.0" y="386.8" type="line"/>
      <point x="167.4" y="386.8" type="line"/>
      <point x="228.6" y="769.6" type="line"/>
      <point x="217.8" y="769.6" type="line"/>
      <point x="95.4" y="690.8" type="line"/>
      <point x="102.2" y="676.4" type="line"/>
      <point x="207.2" y="741.8" type="line"/>
      <point x="150.4" y="386.8" type="line"/>
      <point x="47.2" y="386.8" type="line"/>
    </contour>
  </outline>
</glyph>
<glyph name="ordmasculine" format="2">
  <advance width="250.6"/>
  <unicode hex="00BA"/>
  <outline>
    <contour>
      <point x="42.4" y="296.6" type="line"/>
      <point x="209.2" y="296.6" type="line"/>
      <point x="211.4" y="313.0" type="line"/>
      <point x="44.6" y="313.0" type="line"/>
    </contour>
    <component base="o.superior" xOffset="16.0"/>
  </outline>
</glyph>
<glyph name="AE" format="2">
  <advance width="591.2"/>
  <unicode hex="00C6"/>
  <anchor x="264.8888" y="0.0" name="bottom"/>
  <anchor x="380.2" y="700.0" name="top"/>
  <outline>
    <contour>
      <point x="246.8" y="0.0" type="line"/>
      <point x="526.6" y="0.0" type="line"/>
      <point x="529.6" y="19.0" type="line"/>
      <point x="268.8" y="19.0" type="line"/>
      <point x="318.4" y="336.6" type="line"/>
      <point x="544.8" y="336.6" type="line"/>
      <point x="547.8" y="355.6" type="line"/>
      <point x="321.4" y="355.6" type="line"/>
      <point x="373.0" y="681.0" type="line"/>
      <point x="621.2" y="681.0" type="line"/>
      <point x="625.0" y="700.0" type="line"/>
      <point x="345.6" y="700.0" type="line"/>
      <point x="-36.6" y="0.0" type="line"/>
      <point x="-14.4" y="0.0" type="line"/>
      <point x="169.2" y="336.6" type="line"/>
      <point x="299.4" y="336.6" type="line"/>
    </contour>
    <contour>
      <point x="179.6" y="355.6" type="line"/>
      <point x="353.2" y="678.6" type="line"/>
      <point x="302.4" y="355.6" type="line"/>
    </contour>
  </outline>
</glyph>
<glyph name="multiply" format="2">
  <advance width="358.6"/>
  <unicode hex="00D7"/>
  <outline>
    <contour>
      <point x="39.4" y="77.0" type="line"/>
      <point x="178.0" y="267.4" type="line"/>
      <point x="255.2" y="78.2" type="line"/>
      <point x="272.2" y="88.2" type="line"/>
      <point x="191.0" y="287.8" type="line"/>
      <point x="338.8" y="490.2" type="line"/>
      <point x="323.8" y="500.4" type="line"/>
      <point x="183.2" y="308.4" type="line"/>
      <point x="105.0" y="500.4" type="line"/>
      <point x="88.0" y="490.4" type="line"/>
      <point x="169.4" y="288.8" type="line"/>
      <point x="24.4" y="87.2" type="line"/>
    </contour>
  </outline>
</glyph>
<glyph name="Oslash" format="2">
  <advance width="463.0"/>
  <unicode hex="00D8"/>
  <anchor x="291.0" y="700.0" name="top"/>
  <outline>
    <contour>
      <point x="487.5" y="710.0" type="line"/>
      <point x="465.5" y="710.0" type="line"/>
      <point x="411.0" y="634.5" type="line"/>
      <point x="409.5" y="634.5" type="line"/>
      <point x="70.5" y="86.5" type="line"/>
      <point x="69.0" y="86.5" type="line"/>
      <point x="2.0" y="-10.0" type="line"/>
      <point x="23.5" y="-10.0" type="line"/>
      <point x="79.5" y="68.0" type="line"/>
      <point x="81.0" y="68.0" type="line"/>
      <point x="420.5" y="615.5" type="line"/>
      <point x="422.0" y="615.5" type="line"/>
    </contour>
    <contour>
      <point x="197.0" y="-10.0" type="curve" smooth="yes"/>
      <point x="349.0" y="-10.0"/>
      <point x="448.0" y="234.5"/>
      <point x="448.0" y="499.5" type="curve" smooth="yes"/>
      <point x="448.0" y="643.0"/>
      <point x="395.5" y="710.0"/>
      <point x="293.0" y="710.0" type="curve" smooth="yes"/>
      <point x="141.0" y="710.0"/>
      <point x="42.0" y="465.5"/>
      <point x="42.0" y="200.5" type="curve" smooth="yes"/>
      <point x="42.0" y="57.0"/>
      <point x="94.5" y="-10.0"/>
    </contour>
    <contour>
      <point x="197.0" y="8.0" type="curve" smooth="yes"/>
      <point x="107.5" y="8.0"/>
      <point x="61.0" y="70.5"/>
      <point x="61.0" y="202.0" type="curve" smooth="yes"/>
      <point x="61.0" y="456.0"/>
      <point x="158.0" y="692.0"/>
      <point x="293.0" y="692.0" type="curve" smooth="yes"/>
      <point x="382.5" y="692.0"/>
      <point x="429.0" y="629.5"/>
      <point x="429.0" y="498.0" type="curve" smooth="yes"/>
      <point x="429.0" y="244.0"/>
      <point x="332.0" y="8.0"/>
    </contour>
  </outline>
</glyph>
<glyph name="Thorn" format="2">
  <advance width="391.0"/>
  <unicode hex="00DE"/>
  <outline>
    <contour>
      <point x="18.0" y="0.0" type="line"/>
      <point x="37.0" y="0.0" type="line"/>
      <point x="66.5" y="183.5" type="line"/>
      <point x="101.5" y="182.0"/>
      <point x="135.0" y="182.0"/>
      <point x="174.5" y="182.0" type="curve" smooth="yes"/>
      <point x="305.0" y="182.0"/>
      <point x="386.0" y="281.0"/>
      <point x="386.0" y="460.0" type="curve" smooth="yes"/>
      <point x="386.0" y="556.5"/>
      <point x="339.0" y="607.5"/>
      <point x="229.5" y="607.5" type="curve" smooth="yes"/>
      <point x="207.0" y="607.5"/>
      <point x="179.5" y="606.5"/>
      <point x="131.5" y="603.0" type="curve"/>
      <point x="147.0" y="700.0" type="line"/>
      <point x="128.0" y="700.0" type="line"/>
    </contour>
    <contour>
      <point x="172.5" y="200.5" type="curve" smooth="yes"/>
      <point x="126.0" y="200.5"/>
      <point x="103.0" y="201.5"/>
      <point x="69.5" y="203.5" type="curve"/>
      <point x="129.5" y="583.5" type="line"/>
      <point x="178.5" y="587.5"/>
      <point x="204.0" y="588.5"/>
      <point x="226.5" y="588.5" type="curve" smooth="yes"/>
      <point x="325.0" y="588.5"/>
      <point x="367.0" y="547.5"/>
      <point x="367.0" y="455.0" type="curve" smooth="yes"/>
      <point x="367.0" y="296.0"/>
      <point x="297.5" y="200.5"/>
    </contour>
  </outline>
</glyph>
<glyph name="germandbls" format="2">
  <advance width="399.5"/>
  <unicode hex="00DF"/>
  <outline>
    <contour>
      <point x="27.5" y="-66.0" type="line" smooth="yes"/>
      <point x="14.0" y="-149.0"/>
      <point x="-7.5" y="-204.5"/>
      <point x="-66.0" y="-204.5" type="curve" smooth="yes"/>
      <point x="-81.0" y="-204.5"/>
      <point x="-94.5" y="-202.5"/>
      <point x="-112.5" y="-196.5" type="curve"/>
      <point x="-116.5" y="-212.0" type="line"/>
      <point x="-101.5" y="-218.0"/>
      <point x="-82.0" y="-220.0"/>
      <point x="-64.5" y="-220.0" type="curve" smooth="yes"/>
      <point x="0.0" y="-220.0"/>
      <point x="30.5" y="-167.0"/>
      <point x="45.5" y="-71.0" type="curve" smooth="yes"/>
      <point x="141.5" y="537.0" type="line" smooth="yes"/>
      <point x="162.0" y="663.0"/>
      <point x="204.0" y="731.5"/>
      <point x="290.5" y="731.5" type="curve" smooth="yes"/>
      <point x="341.0" y="731.5"/>
      <point x="369.5" y="709.0"/>
      <point x="369.5" y="660.0" type="curve" smooth="yes"/>
      <point x="369.5" y="611.5"/>
      <point x="348.5" y="582.0"/>
      <point x="287.0" y="539.0" type="curve" smooth="yes"/>
      <point x="219.5" y="491.0"/>
      <point x="191.5" y="455.5"/>
      <point x="191.5" y="391.5" type="curve" smooth="yes"/>
      <point x="191.5" y="340.5"/>
      <point x="221.5" y="302.0"/>
      <point x="283.0" y="253.0" type="curve" smooth="yes"/>
      <point x="336.0" y="212.0"/>
      <point x="356.0" y="184.5"/>
      <point x="356.0" y="135.0" type="curve" smooth="yes"/>
      <point x="356.0" y="65.0"/>
      <point x="301.0" y="9.5"/>
      <point x="222.0" y="9.5" type="curve" smooth="yes"/>
      <point x="186.5" y="9.5"/>
      <point x="147.5" y="19.0"/>
      <point x="116.0" y="33.0" type="curve"/>
      <point x="107.0" y="15.5" type="line"/>
      <point x="139.0" y="-0.5"/>
      <point x="183.0" y="-10.0"/>
      <point x="220.5" y="-10.0" type="curve" smooth="yes"/>
      <point x="315.0" y="-10.0"/>
      <point x="375.5" y="53.0"/>
      <point x="375.5" y="139.0" type="curve" smooth="yes"/>
      <point x="375.5" y="190.0"/>
      <point x="352.0" y="222.5"/>
      <point x="290.5" y="272.5" type="curve" smooth="yes"/>
      <point x="232.5" y="321.0"/>
      <point x="210.0" y="349.0"/>
      <point x="210.0" y="395.0" type="curve" smooth="yes"/>
      <point x="210.0" y="447.0"/>
      <point x="234.5" y="477.5"/>
      <point x="296.0" y="524.0" type="curve" smooth="yes"/>
      <point x="366.0" y="576.0"/>
      <point x="388.0" y="607.5"/>
      <point x="388.0" y="664.0" type="curve" smooth="yes"/>
      <point x="388.0" y="722.0"/>
      <point x="353.0" y="750.0"/>
      <point x="290.0" y="750.0" type="curve" smooth="yes"/>
      <point x="194.0" y="750.0"/>
      <point x="145.5" y="681.5"/>
      <point x="123.0" y="538.5" type="curve" smooth="yes"/>
      <point x="115.0" y="484.0" type="line"/>
      <point x="41.0" y="477.5" type="line"/>
      <point x="38.5" y="464.5" type="line"/>
      <point x="110.5" y="464.5" type="line"/>
    </contour>
  </outline>
</glyph>
<glyph name="ae" format="2">
  <advance width="591.5"/>
  <unicode hex="00E6"/>
  <anchor x="264.5" y="0.0" name="bottom"/>
  <anchor x="336.0" y="530.0" name="top"/>
  <outline>
    <contour>
      <point x="138.0" y="-10.0" type="curve" smooth="yes"/>
      <point x="179.0" y="-10.0"/>
      <point x="215.5" y="5.0"/>
      <point x="241.0" y="23.0" type="curve"/>
      <point x="236.0" y="-6.5" type="line"/>
      <point x="254.0" y="-6.5" type="line"/>
      <point x="276.5" y="132.0" type="line"/>
      <point x="285.0" y="42.0"/>
      <point x="332.0" y="-10.0"/>
      <point x="411.0" y="-10.0" type="curve" smooth="yes"/>
      <point x="455.0" y="-10.0"/>
      <point x="505.0" y="1.0"/>
      <point x="539.0" y="18.0" type="curve"/>
      <point x="532.0" y="34.0" type="line"/>
      <point x="492.5" y="17.0"/>
      <point x="450.5" y="7.5"/>
      <point x="413.5" y="7.5" type="curve" smooth="yes"/>
      <point x="336.0" y="7.5"/>
      <point x="291.0" y="69.5"/>
      <point x="291.0" y="173.5" type="curve" smooth="yes"/>
      <point x="291.0" y="376.0"/>
      <point x="373.5" y="522.5"/>
      <point x="489.5" y="522.5" type="curve" smooth="yes"/>
      <point x="547.0" y="522.5"/>
      <point x="573.5" y="495.0"/>
      <point x="573.5" y="450.0" type="curve" smooth="yes"/>
      <point x="573.5" y="381.0"/>
      <point x="511.0" y="318.0"/>
      <point x="413.5" y="288.0" type="curve" smooth="yes"/>
      <point x="372.0" y="274.0"/>
      <point x="326.5" y="267.5"/>
      <point x="284.5" y="266.0" type="curve"/>
      <point x="283.0" y="248.0" type="line"/>
      <point x="322.0" y="249.0"/>
      <point x="370.5" y="255.0"/>
      <point x="412.0" y="269.0" type="curve" smooth="yes"/>
      <point x="522.0" y="301.5"/>
      <point x="591.5" y="369.0"/>
      <point x="591.5" y="452.0" type="curve" smooth="yes"/>
      <point x="591.5" y="507.5"/>
      <point x="555.0" y="540.0"/>
      <point x="491.5" y="540.0" type="curve" smooth="yes"/>
      <point x="419.5" y="540.0"/>
      <point x="357.5" y="495.5"/>
      <point x="319.5" y="412.0" type="curve"/>
      <point x="339.5" y="538.0" type="line"/>
      <point x="322.0" y="538.0" type="line"/>
      <point x="319.0" y="519.0" type="line"/>
      <point x="297.0" y="533.0"/>
      <point x="269.0" y="540.0"/>
      <point x="244.0" y="540.0" type="curve" smooth="yes"/>
      <point x="120.0" y="540.0"/>
      <point x="24.5" y="385.5"/>
      <point x="24.5" y="150.5" type="curve" smooth="yes"/>
      <point x="24.5" y="45.5"/>
      <point x="65.0" y="-10.0"/>
    </contour>
    <contour>
      <point x="138.5" y="8.0" type="curve" smooth="yes"/>
      <point x="79.0" y="8.0"/>
      <point x="43.5" y="58.5"/>
      <point x="43.5" y="152.0" type="curve" smooth="yes"/>
      <point x="43.5" y="366.0"/>
      <point x="131.0" y="523.0"/>
      <point x="242.0" y="523.0" type="curve" smooth="yes"/>
      <point x="268.5" y="523.0"/>
      <point x="295.0" y="516.5"/>
      <point x="316.0" y="499.0" type="curve"/>
      <point x="244.0" y="44.0" type="line"/>
      <point x="215.5" y="23.0"/>
      <point x="175.0" y="8.0"/>
    </contour>
  </outline>
</glyph>
<glyph name="eth" format="2">
  <advance width="379.0"/>
  <unicode hex="00F0"/>
  <outline>
    <contour>
      <point x="356.0" y="470.5" type="curve"/>
      <point x="360.5" y="490.0" type="line"/>
      <point x="334.5" y="518.5"/>
      <point x="292.5" y="534.0"/>
      <point x="246.0" y="534.0" type="curve" smooth="yes"/>
      <point x="107.0" y="534.0"/>
      <point x="27.0" y="332.0"/>
      <point x="27.0" y="141.5" type="curve" smooth="yes"/>
      <point x="27.0" y="41.0"/>
      <point x="69.0" y="-10.0"/>
      <point x="147.5" y="-10.0" type="curve" smooth="yes"/>
      <point x="249.0" y="-10.0"/>
      <point x="306.0" y="75.5"/>
      <point x="343.0" y="300.0" type="curve" smooth="yes"/>
      <point x="357.5" y="388.0"/>
      <point x="365.0" y="454.0"/>
      <point x="365.0" y="510.0" type="curve" smooth="yes"/>
      <point x="365.0" y="642.0"/>
      <point x="306.0" y="710.0"/>
      <point x="192.0" y="710.0" type="curve" smooth="yes"/>
      <point x="166.0" y="710.0"/>
      <point x="137.0" y="707.0"/>
      <point x="104.0" y="700.0" type="curve"/>
      <point x="107.0" y="682.5" type="line"/>
      <point x="141.0" y="689.5"/>
      <point x="163.0" y="692.5"/>
      <point x="191.5" y="692.5" type="curve" smooth="yes"/>
      <point x="293.0" y="692.5"/>
      <point x="346.0" y="632.5"/>
      <point x="346.0" y="508.5" type="curve" smooth="yes"/>
      <point x="346.0" y="451.5"/>
      <point x="339.0" y="382.5"/>
      <point x="324.5" y="299.5" type="curve" smooth="yes"/>
      <point x="288.0" y="89.5"/>
      <point x="236.5" y="7.5"/>
      <point x="148.5" y="7.5" type="curve" smooth="yes"/>
      <point x="81.0" y="7.5"/>
      <point x="45.5" y="51.5"/>
      <point x="45.5" y="140.0" type="curve" smooth="yes"/>
      <point x="45.5" y="316.5"/>
      <point x="119.0" y="517.0"/>
      <point x="245.5" y="517.0" type="curve" smooth="yes"/>
      <point x="288.5" y="517.0"/>
      <point x="327.5" y="504.0"/>
    </contour>
    <contour>
      <point x="159.0" y="572.5" type="line"/>
      <point x="306.0" y="652.5" type="line"/>
      <point x="305.5" y="652.5" type="line"/>
      <point x="425.0" y="717.0" type="line"/>
      <point x="391.0" y="717.0" type="line"/>
      <point x="296.5" y="666.5" type="line"/>
      <point x="296.5" y="666.5" type="line"/>
      <point x="124.5" y="572.5" type="line"/>
    </contour>
  </outline>
</glyph>
<glyph name="divide" format="2">
  <advance width="374.6"/>
  <unicode hex="00F7"/>
  <outline>
    <contour>
      <point x="141.8" y="81.8" type="curve" smooth="yes"/>
      <point x="140.8" y="73.6"/>
      <point x="142.4" y="71.8"/>
      <point x="153.2" y="71.8" type="curve" smooth="yes"/>
      <point x="169.6" y="71.8"/>
      <point x="169.8" y="72.8"/>
      <point x="172.8" y="95.8" type="curve" smooth="yes"/>
      <point x="173.8" y="104.8"/>
      <point x="170.6" y="105.8"/>
      <point x="160.6" y="105.8" type="curve" smooth="yes"/>
      <point x="145.8" y="105.8"/>
      <point x="144.8" y="104.8"/>
    </contour>
    <contour>
      <point x="206.0" y="482.2" type="curve" smooth="yes"/>
      <point x="205.0" y="474.0"/>
      <point x="206.6" y="472.2"/>
      <point x="217.4" y="472.2" type="curve" smooth="yes"/>
      <point x="233.8" y="472.2"/>
      <point x="234.0" y="473.2"/>
      <point x="237.0" y="496.2" type="curve" smooth="yes"/>
      <point x="238.0" y="505.2"/>
      <point x="234.8" y="506.2"/>
      <point x="224.8" y="506.2" type="curve" smooth="yes"/>
      <point x="210.0" y="506.2"/>
      <point x="209.0" y="505.2"/>
    </contour>
    <contour>
      <point x="44.8" y="279.0" type="line"/>
      <point x="331.6" y="279.0" type="line"/>
      <point x="334.8" y="299.0" type="line"/>
      <point x="48.0" y="299.0" type="line"/>
    </contour>
  </outline>
</glyph>
<glyph name="oslash" format="2">
  <advance width="359.5"/>
  <unicode hex="00F8"/>
  <anchor x="221.0" y="530.0" name="top"/>
  <outline>
    <contour>
      <point x="346.0" y="539.5" type="line"/>
      <point x="308.5" y="482.5" type="line"/>
      <point x="307.0" y="482.5" type="line"/>
      <point x="45.5" y="66.0" type="line"/>
      <point x="44.0" y="66.0" type="line"/>
      <point x="-5.0" y="-10.0" type="line"/>
      <point x="16.0" y="-10.0" type="line"/>
      <point x="52.0" y="43.5" type="line"/>
      <point x="53.5" y="43.5" type="line"/>
      <point x="315.5" y="461.5" type="line"/>
      <point x="317.0" y="461.5" type="line"/>
      <point x="367.0" y="539.5" type="line"/>
    </contour>
    <contour>
      <point x="142.0" y="-10.0" type="curve" smooth="yes"/>
      <point x="271.0" y="-10.0"/>
      <point x="333.0" y="236.5"/>
      <point x="333.0" y="397.5" type="curve" smooth="yes"/>
      <point x="333.0" y="500.5"/>
      <point x="291.0" y="539.5"/>
      <point x="218.0" y="539.5" type="curve" smooth="yes"/>
      <point x="90.5" y="539.5"/>
      <point x="27.0" y="290.0"/>
      <point x="27.0" y="131.0" type="curve" smooth="yes"/>
      <point x="27.0" y="27.0"/>
      <point x="67.5" y="-10.0"/>
    </contour>
    <contour>
      <point x="143.0" y="7.5" type="curve" smooth="yes"/>
      <point x="79.5" y="7.5"/>
      <point x="45.5" y="39.0"/>
      <point x="45.5" y="132.0" type="curve" smooth="yes"/>
      <point x="45.5" y="272.0"/>
      <point x="106.0" y="522.0"/>
      <point x="217.5" y="522.0" type="curve" smooth="yes"/>
      <point x="279.0" y="522.0"/>
      <point x="314.5" y="488.0"/>
      <point x="314.5" y="396.0" type="curve" smooth="yes"/>
      <point x="314.5" y="253.5"/>
      <point x="256.0" y="7.5"/>
    </contour>
  </outline>
</glyph>
<glyph name="thorn" format="2">
  <advance width="364.0"/>
  <unicode hex="00FE"/>
  <outline>
    <contour>
      <point x="-13.6" y="-210.0" type="line"/>
      <point x="4.600000000000001" y="-210.0" type="line"/>
      <point x="38.2" y="0.8000000000000003" type="line"/>
      <point x="60.2" y="-5.6"/>
      <point x="84.4" y="-10.0"/>
      <point x="113.80000000000001" y="-10.0" type="curve" smooth="yes"/>
      <point x="249.0" y="-10.0"/>
      <point x="338.2" y="178.0"/>
      <point x="338.2" y="380.6" type="curve" smooth="yes"/>
      <point x="338.2" y="489.2"/>
      <point x="302.4" y="540.0"/>
      <point x="230.60000000000002" y="540.0" type="curve" smooth="yes"/>
      <point x="188.6" y="540.0"/>
      <point x="154.4" y="523.6"/>
      <point x="117.0" y="501.0" type="curve"/>
      <point x="155.4" y="740.0" type="line"/>
      <point x="136.4" y="740.0" type="line"/>
    </contour>
    <contour>
      <point x="112.4" y="8.2" type="curve" smooth="yes"/>
      <point x="84.2" y="8.2"/>
      <point x="60.0" y="13.2"/>
      <point x="41.2" y="20.2" type="curve"/>
      <point x="113.8" y="479.0" type="line"/>
      <point x="150.0" y="504.8"/>
      <point x="192.8" y="521.8"/>
      <point x="227.60000000000002" y="521.8" type="curve" smooth="yes"/>
      <point x="288.0" y="521.8"/>
      <point x="319.2" y="474.0"/>
      <point x="319.2" y="377.4" type="curve" smooth="yes"/>
      <point x="319.2" y="188.0"/>
      <point x="236.0" y="8.2"/>
    </contour>
  </outline>
</glyph>
<glyph name="Dcroat" format="2">
  <advance width="447.4"/>
  <unicode hex="0110"/>
  <outline>
    <contour>
      <point x="22.6" y="352.8" type="line"/>
      <point x="214.0" y="352.8" type="line"/>
      <point x="217.0" y="370.0" type="line"/>
      <point x="26.0" y="370.0" type="line"/>
    </contour>
    <component base="D" xOffset="5.6"/>
  </outline>
</glyph>
<glyph name="dcroat" format="2">
  <advance width="366.4"/>
  <unicode hex="0111"/>
  <outline>
    <contour>
      <point x="210.4" y="620.4" type="line"/>
      <point x="426.0" y="620.4" type="line"/>
      <point x="429.0" y="636.0" type="line"/>
      <point x="213.4" y="636.0" type="line"/>
    </contour>
    <component base="d"/>
  </outline>
</glyph>
<glyph name="Hbar" format="2">
  <advance width="462.4"/>
  <unicode hex="0126"/>
  <outline>
    <contour>
      <point x="48.4" y="501.6" type="line"/>
      <point x="486.0" y="501.6" type="line"/>
      <point x="488.20000000000005" y="517.6" type="line"/>
      <point x="50.6" y="517.6" type="line"/>
    </contour>
    <component base="H" xOffset="1.0"/>
  </outline>
</glyph>
<glyph name="hbar" format="2">
  <advance width="374.0"/>
  <unicode hex="0127"/>
  <outline>
    <contour>
      <point x="55.8" y="620.4" type="line"/>
      <point x="251.2" y="620.4" type="line"/>
      <point x="254.2" y="636.0" type="line"/>
      <point x="58.8" y="636.0" type="line"/>
    </contour>
    <component base="h"/>
  </outline>
</glyph>
<glyph name="Idotaccent" format="2">
  <advance width="145.0"/>
  <unicode hex="0130"/>
  <outline>
    <contour>
      <point x="163.6" y="847.0" type="curve" smooth="yes"/>
      <point x="149.8" y="847.0"/>
      <point x="148.8" y="845.4"/>
      <point x="146.2" y="821.0" type="curve" smooth="yes"/>
      <point x="145.4" y="813.2"/>
      <point x="150.6" y="813.0"/>
      <point x="156.4" y="813.0" type="curve" smooth="yes"/>
      <point x="171.2" y="813.0"/>
      <point x="171.4" y="814.6"/>
      <point x="174.2" y="839.2" type="curve" smooth="yes"/>
      <point x="175.0" y="846.8"/>
      <point x="170.4" y="847.0"/>
    </contour>
    <component base="I"/>
  </outline>
</glyph>
<glyph name="dotlessi" format="2">
  <advance width="143.8"/>
  <unicode hex="0131"/>
  <anchor x="27.4" y="0.0" name="bottom"/>
  <anchor x="37.4" y="0.0" name="ogonek"/>
  <anchor x="111.6" y="530.0" name="top"/>
  <outline>
    <contour>
      <point x="37.4" y="0.0" type="line"/>
      <point x="121.4" y="530.0" type="line"/>
      <point x="102.4" y="530.0" type="line"/>
      <point x="19.200000000000003" y="0.0" type="line"/>
    </contour>
  </outline>
</glyph>
<glyph name="kgreenlandic" format="2">
  <advance width="340.0"/>
  <unicode hex="0138"/>
  <anchor x="134.5" y="0.0" name="bottom"/>
  <anchor x="212.0" y="530.0" name="top"/>
  <outline>
    <contour>
      <point x="19.0" y="0.0" type="line"/>
      <point x="37.5" y="0.0" type="line"/>
      <point x="121.0" y="530.0" type="line"/>
      <point x="102.5" y="530.0" type="line"/>
    </contour>
    <contour>
      <point x="297.5" y="-10.0" type="curve" smooth="yes"/>
      <point x="304.5" y="-10.0"/>
      <point x="311.5" y="-8.5"/>
      <point x="318.5" y="-5.5" type="curve"/>
      <point x="314.5" y="10.0" type="line"/>
      <point x="308.5" y="8.0"/>
      <point x="303.0" y="7.0"/>
      <point x="298.5" y="7.0" type="curve" smooth="yes"/>
      <point x="270.5" y="7.0"/>
      <point x="243.5" y="42.0"/>
      <point x="181.5" y="164.5" type="curve" smooth="yes"/>
      <point x="86.5" y="346.0" type="line"/>
      <point x="76.0" y="326.0" type="line"/>
      <point x="174.5" y="134.0" type="line" smooth="yes"/>
      <point x="232.5" y="21.0"/>
      <point x="260.0" y="-10.0"/>
    </contour>
    <contour>
      <point x="130.0" y="249.0" type="line"/>
      <point x="224.0" y="310.0"/>
      <point x="306.5" y="414.0"/>
      <point x="355.0" y="531.0" type="curve"/>
      <point x="338.5" y="539.0" type="line"/>
      <point x="284.0" y="416.5"/>
      <point x="224.0" y="334.0"/>
      <point x="122.5" y="266.5" type="curve"/>
    </contour>
  </outline>
</glyph>
<glyph name="Ldot" format="2">
  <advance width="320.2"/>
  <unicode hex="013F"/>
  <outline>
    <contour>
      <point x="231.2" y="358.0" type="curve" smooth="yes"/>
      <point x="229.4" y="345.0"/>
      <point x="231.0" y="342.4"/>
      <point x="242.60000000000002" y="342.4" type="curve" smooth="yes"/>
      <point x="255.8" y="342.4"/>
      <point x="256.8" y="343.4"/>
      <point x="259.0" y="360.8" type="curve" smooth="yes"/>
      <point x="260.8" y="373.0"/>
      <point x="260.0" y="376.4"/>
      <point x="248.4" y="376.4" type="curve" smooth="yes"/>
      <point x="235.2" y="376.4"/>
      <point x="233.4" y="375.4"/>
    </contour>
    <component base="L"/>
  </outline>
</glyph>
<glyph name="ldot" format="2">
  <advance width="197.8"/>
  <unicode hex="0140"/>
  <outline>
    <contour>
      <point x="172.6" y="355.6" type="curve" smooth="yes"/>
      <point x="170.8" y="342.6"/>
      <point x="172.4" y="340.0"/>
      <point x="184.0" y="340.0" type="curve" smooth="yes"/>
      <point x="197.2" y="340.0"/>
      <point x="198.2" y="341.0"/>
      <point x="200.4" y="358.4" type="curve" smooth="yes"/>
      <point x="202.2" y="370.6"/>
      <point x="201.4" y="374.0"/>
      <point x="189.8" y="374.0" type="curve" smooth="yes"/>
      <point x="176.6" y="374.0"/>
      <point x="174.8" y="373.0"/>
    </contour>
    <component base="l"/>
  </outline>
</glyph>
<glyph name="Lslash" format="2">
  <advance width="325.0"/>
  <unicode hex="0141"/>
  <outline>
    <contour>
      <point x="21.8" y="0.0" type="line"/>
      <point x="272.8" y="0.0" type="line"/>
      <point x="275.8" y="19.0" type="line"/>
      <point x="43.8" y="19.0" type="line"/>
      <point x="83.6" y="268.6" type="line"/>
      <point x="256.4" y="397.8" type="line"/>
      <point x="260.4" y="423.0" type="line"/>
      <point x="87.6" y="293.8" type="line"/>
      <point x="151.8" y="700.0" type="line"/>
      <point x="132.8" y="700.0" type="line"/>
      <point x="65.8" y="275.4" type="line"/>
      <point x="11.600000000000001" y="233.0" type="line"/>
      <point x="6.800000000000001" y="207.0" type="line"/>
      <point x="61.0" y="249.4" type="line"/>
    </contour>
  </outline>
</glyph>
<glyph name="lslash" format="2">
  <advance width="164.2"/>
  <unicode hex="0142"/>
  <outline>
    <contour>
      <point x="2.4000000000000004" y="185.2" type="line"/>
      <point x="171.8" y="364.0" type="line"/>
      <point x="175.8" y="392.0" type="line"/>
      <point x="6.4" y="213.2" type="line"/>
    </contour>
    <component base="l"/>
  </outline>
</glyph>
<glyph name="Eng" format="2">
  <advance width="455.5"/>
  <unicode hex="014A"/>
  <outline>
    <contour>
      <point x="18.0" y="0.0" type="line"/>
      <point x="37.5" y="0.0" type="line"/>
      <point x="141.0" y="662.0" type="line"/>
      <point x="330.5" y="1.0" type="line"/>
      <point x="315.0" y="-97.0"/>
      <point x="261.0" y="-127.5"/>
      <point x="192.5" y="-127.5" type="curve" smooth="yes"/>
      <point x="169.5" y="-127.5"/>
      <point x="145.5" y="-123.0"/>
      <point x="123.5" y="-117.0" type="curve"/>
      <point x="118.5" y="-137.0" type="line"/>
      <point x="143.0" y="-143.0"/>
      <point x="167.0" y="-146.5"/>
      <point x="190.5" y="-146.5" type="curve" smooth="yes"/>
      <point x="293.0" y="-146.5"/>
      <point x="336.0" y="-88.5"/>
      <point x="351.5" y="7.0" type="curve" smooth="yes"/>
      <point x="461.5" y="700.0" type="line"/>
      <point x="442.5" y="700.0" type="line"/>
      <point x="340.0" y="41.5" type="line"/>
      <point x="150.5" y="702.0" type="line"/>
      <point x="128.5" y="702.0" type="line"/>
    </contour>
  </outline>
</glyph>
<glyph name="eng" format="2">
  <advance width="371.8"/>
  <unicode hex="014B"/>
  <outline>
    <contour>
      <point x="253.8" y="-72.2" type="curve" smooth="yes"/>
      <point x="321.8" y="364.6"/>
      <point x="336.4" y="453.4"/>
      <point x="336.4" y="463.4" type="curve" smooth="yes"/>
      <point x="336.4" y="509.2"/>
      <point x="307.4" y="540.0"/>
      <point x="251.0" y="540.0" type="curve" smooth="yes"/>
      <point x="204.0" y="540.0"/>
      <point x="158.8" y="521.4"/>
      <point x="116.0" y="498.6" type="curve"/>
      <point x="121.4" y="530.0" type="line"/>
      <point x="102.4" y="530.0" type="line"/>
      <point x="18.6" y="0.0" type="line"/>
      <point x="36.8" y="0.0" type="line"/>
      <point x="113.0" y="479.0" type="line"/>
      <point x="156.2" y="504.0"/>
      <point x="201.8" y="522.6"/>
      <point x="244.0" y="522.6" type="curve" smooth="yes"/>
      <point x="295.2" y="522.6"/>
      <point x="317.0" y="499.4"/>
      <point x="317.0" y="458.4" type="curve" smooth="yes"/>
      <point x="317.0" y="447.6"/>
      <point x="303.0" y="362.4"/>
      <point x="235.8" y="-67.2" type="curve" smooth="yes"/>
      <point x="222.60000000000002" y="-150.4"/>
      <point x="199.2" y="-204.2"/>
      <point x="140.60000000000002" y="-204.2" type="curve" smooth="yes"/>
      <point x="129.60000000000002" y="-204.2"/>
      <point x="119.60000000000001" y="-203.0"/>
      <point x="106.4" y="-199.2" type="curve"/>
      <point x="101.4" y="-216.2" type="line"/>
      <point x="113.2" y="-219.8"/>
      <point x="129.8" y="-221.2"/>
      <point x="142.4" y="-221.2" type="curve" smooth="yes"/>
      <point x="207.0" y="-221.2"/>
      <point x="238.8" y="-168.8"/>
    </contour>
  </outline>
</glyph>
<glyph name="OE" format="2">
  <advance width="663.0"/>
  <unicode hex="0152"/>
  <outline>
    <contour>
      <point x="598.4" y="0.0" type="line"/>
      <point x="601.4" y="19.0" type="line"/>
      <point x="340.8" y="19.0" type="line"/>
      <point x="394.4" y="358.0" type="line"/>
      <point x="625.4" y="358.0" type="line"/>
      <point x="628.4" y="377.0" type="line"/>
      <point x="397.4" y="377.0" type="line"/>
      <point x="445.0" y="681.0" type="line"/>
      <point x="693.0" y="681.0" type="line"/>
      <point x="696.8" y="700.0" type="line"/>
      <point x="444.0" y="700.0" type="line"/>
      <point x="408.8" y="703.8"/>
      <point x="368.8" y="710.0"/>
      <point x="331.6" y="710.0" type="curve" smooth="yes"/>
      <point x="156.2" y="710.0"/>
      <point x="40.6" y="521.6"/>
      <point x="40.6" y="192.6" type="curve" smooth="yes"/>
      <point x="40.6" y="44.2"/>
      <point x="100.4" y="-10.0"/>
      <point x="229.4" y="-10.0" type="curve" smooth="yes"/>
      <point x="258.2" y="-10.0"/>
      <point x="294.4" y="-6.2"/>
      <point x="335.4" y="0.0" type="curve"/>
    </contour>
    <contour>
      <point x="321.0" y="15.2" type="line"/>
      <point x="286.6" y="9.8"/>
      <point x="259.8" y="8.2"/>
      <point x="231.0" y="8.2" type="curve" smooth="yes"/>
      <point x="105.0" y="8.2"/>
      <point x="59.8" y="69.0"/>
      <point x="59.8" y="198.8" type="curve" smooth="yes"/>
      <point x="59.8" y="499.0"/>
      <point x="168.6" y="692.6"/>
      <point x="333.4" y="692.6" type="curve" smooth="yes"/>
      <point x="356.0" y="692.6"/>
      <point x="409.6" y="687.8"/>
      <point x="426.8" y="685.2" type="curve"/>
    </contour>
  </outline>
</glyph>
<glyph name="oe" format="2">
  <advance width="614.0"/>
  <unicode hex="0153"/>
  <outline>
    <contour>
      <point x="144.5" y="-10.0" type="curve" smooth="yes"/>
      <point x="212.0" y="-10.0"/>
      <point x="264.5" y="58.5"/>
      <point x="295.0" y="161.5" type="curve"/>
      <point x="299.0" y="49.5"/>
      <point x="347.0" y="-10.0"/>
      <point x="433.0" y="-10.0" type="curve" smooth="yes"/>
      <point x="477.0" y="-10.0"/>
      <point x="527.0" y="1.0"/>
      <point x="561.0" y="18.0" type="curve"/>
      <point x="554.0" y="34.0" type="line"/>
      <point x="514.5" y="17.0"/>
      <point x="472.5" y="7.5"/>
      <point x="435.5" y="7.5" type="curve" smooth="yes"/>
      <point x="358.5" y="7.5"/>
      <point x="313.0" y="68.5"/>
      <point x="313.0" y="172.5" type="curve" smooth="yes"/>
      <point x="313.0" y="375.5"/>
      <point x="397.0" y="522.5"/>
      <point x="511.5" y="522.5" type="curve" smooth="yes"/>
      <point x="568.0" y="522.5"/>
      <point x="595.5" y="495.5"/>
      <point x="595.5" y="449.0" type="curve" smooth="yes"/>
      <point x="595.5" y="380.5"/>
      <point x="532.5" y="317.5"/>
      <point x="435.5" y="287.0" type="curve" smooth="yes"/>
      <point x="397.5" y="275.0"/>
      <point x="354.0" y="268.0"/>
      <point x="314.0" y="266.5" type="curve"/>
      <point x="311.0" y="248.0" type="line"/>
      <point x="353.5" y="250.0"/>
      <point x="399.0" y="256.5"/>
      <point x="434.0" y="268.0" type="curve" smooth="yes"/>
      <point x="544.0" y="301.5"/>
      <point x="613.5" y="369.5"/>
      <point x="613.5" y="452.0" type="curve" smooth="yes"/>
      <point x="613.5" y="507.5"/>
      <point x="577.0" y="540.0"/>
      <point x="513.5" y="540.0" type="curve" smooth="yes"/>
      <point x="434.0" y="540.0"/>
      <point x="367.5" y="484.0"/>
      <point x="330.5" y="388.0" type="curve"/>
      <point x="331.0" y="491.0"/>
      <point x="295.5" y="539.5"/>
      <point x="210.5" y="539.5" type="curve" smooth="yes"/>
      <point x="93.5" y="539.5"/>
      <point x="24.5" y="290.0"/>
      <point x="24.5" y="131.0" type="curve" smooth="yes"/>
      <point x="24.5" y="27.0"/>
      <point x="65.0" y="-10.0"/>
    </contour>
    <contour>
      <point x="145.5" y="7.5" type="curve" smooth="yes"/>
      <point x="77.0" y="7.5"/>
      <point x="43.0" y="39.0"/>
      <point x="43.0" y="132.0" type="curve" smooth="yes"/>
      <point x="43.0" y="272.0"/>
      <point x="109.5" y="522.0"/>
      <point x="210.0" y="522.0" type="curve" smooth="yes"/>
      <point x="276.5" y="522.0"/>
      <point x="312.0" y="488.0"/>
      <point x="312.0" y="396.0" type="curve" smooth="yes"/>
      <point x="312.0" y="253.5"/>
      <point x="247.5" y="7.5"/>
    </contour>
  </outline>
</glyph>
<glyph name="uni0162" format="2">
  <advance width="329.2"/>
  <unicode hex="0162"/>
  <anchor x="120.6" y="0.0" name="_bottom"/>
  <anchor x="80.80000000000001" y="-220.0" name="bottom"/>
  <outline>
    <contour>
      <point x="29.800000000000004" y="-204.0" type="line"/>
      <point x="46.400000000000006" y="-216.0"/>
      <point x="63.800000000000004" y="-220.0"/>
      <point x="82.6" y="-220.0" type="curve" smooth="yes"/>
      <point x="133.60000000000002" y="-220.0"/>
      <point x="157.0" y="-164.2"/>
      <point x="157.0" y="-108.0" type="curve" smooth="yes"/>
      <point x="157.0" y="-68.0"/>
      <point x="145.2" y="-29.2"/>
      <point x="128.0" y="1.0" type="curve"/>
      <point x="110.80000000000001" y="0.0" type="line"/>
      <point x="128.8" y="-36.4"/>
      <point x="138.60000000000002" y="-71.8"/>
      <point x="138.60000000000002" y="-107.6" type="curve" smooth="yes"/>
      <point x="138.60000000000002" y="-166.8"/>
      <point x="116.4" y="-202.8"/>
      <point x="82.0" y="-202.8" type="curve" smooth="yes"/>
      <point x="65.80000000000001" y="-202.8"/>
      <point x="52.0" y="-197.6"/>
      <point x="38.0" y="-188.6" type="curve"/>
    </contour>
    <component base="T"/>
  </outline>
</glyph>
<glyph name="Tbar" format="2">
  <advance width="332.4"/>
  <unicode hex="0166"/>
  <outline>
    <contour>
      <point x="390.8" y="681.0" type="line"/>
      <point x="393.8" y="700.0" type="line"/>
      <point x="72.6" y="700.0" type="line"/>
      <point x="69.6" y="681.0" type="line"/>
      <point x="220.4" y="681.0" type="line"/>
      <point x="173.6" y="390.0" type="line"/>
      <point x="60.2" y="390.0" type="line"/>
      <point x="57.2" y="372.8" type="line"/>
      <point x="171.4" y="372.8" type="line"/>
      <point x="112.4" y="0.0" type="line"/>
      <point x="131.4" y="0.0" type="line"/>
      <point x="190.4" y="372.8" type="line"/>
      <point x="307.8" y="372.8" type="line"/>
      <point x="310.8" y="390.0" type="line"/>
      <point x="193.4" y="390.0" type="line"/>
      <point x="239.4" y="681.0" type="line"/>
    </contour>
  </outline>
</glyph>
<glyph name="tbar" format="2">
  <advance width="241.60000000000002"/>
  <unicode hex="0167"/>
  <outline>
    <contour>
      <point x="22.4" y="314.8" type="line"/>
      <point x="233.2" y="314.8" type="line"/>
      <point x="236.2" y="332.8" type="line"/>
      <point x="25.4" y="332.8" type="line"/>
    </contour>
    <contour>
      <point x="199.8" y="21.0" type="line"/>
      <point x="177.8" y="14.0"/>
      <point x="154.4" y="9.0"/>
      <point x="133.2" y="9.0" type="curve" smooth="yes"/>
      <point x="83.6" y="9.0"/>
      <point x="64.2" y="33.2"/>
      <point x="64.2" y="79.2" type="curve" smooth="yes"/>
      <point x="64.2" y="91.8"/>
      <point x="66.0" y="105.4"/>
      <point x="68.2" y="121.4" type="curve" smooth="yes"/>
      <point x="130.0" y="511.4" type="line"/>
      <point x="278.2" y="511.4" type="line"/>
      <point x="281.2" y="530.0" type="line"/>
      <point x="133.0" y="530.0" type="line"/>
      <point x="154.2" y="665.0" type="line"/>
      <point x="140.8" y="665.0" type="line"/>
      <point x="114.0" y="530.0" type="line"/>
      <point x="41.0" y="524.0" type="line"/>
      <point x="38.8" y="511.4" type="line"/>
      <point x="111.0" y="511.4" type="line"/>
      <point x="49.2" y="121.4" type="line" smooth="yes"/>
      <point x="46.2" y="104.2"/>
      <point x="45.0" y="87.0"/>
      <point x="45.0" y="73.6" type="curve" smooth="yes"/>
      <point x="45.0" y="20.8"/>
      <point x="68.6" y="-10.0"/>
      <point x="129.4" y="-10.0" type="curve" smooth="yes"/>
      <point x="149.8" y="-10.0"/>
      <point x="176.4" y="-6.2"/>
      <point x="205.0" y="3.8000000000000007" type="curve"/>
    </contour>
  </outline>
</glyph>
<glyph name="uogonek" format="2">
  <advance width="370.6"/>
  <unicode hex="0173"/>
  <outline>
    <contour>
      <point x="270.0" y="-220.0" type="curve" smooth="yes"/>
      <point x="285.8" y="-220.0"/>
      <point x="299.6" y="-215.4"/>
      <point x="308.8" y="-208.8" type="curve"/>
      <point x="304.2" y="-195.0" type="line"/>
      <point x="295.6" y="-199.2"/>
      <point x="286.0" y="-202.8"/>
      <point x="273.6" y="-202.8" type="curve" smooth="yes"/>
      <point x="255.2" y="-202.8"/>
      <point x="242.2" y="-190.2"/>
      <point x="242.2" y="-164.4" type="curve" smooth="yes"/>
      <point x="242.2" y="-120.0"/>
      <point x="275.0" y="-59.2"/>
      <point x="335.2" y="0.0" type="curve"/>
      <point x="330.6" y="14.6" type="line"/>
      <point x="318.2" y="9.6"/>
      <point x="305.2" y="6.6"/>
      <point x="298.2" y="6.6" type="curve" smooth="yes"/>
      <point x="277.0" y="6.6"/>
      <point x="269.6" y="18.4"/>
      <point x="269.6" y="38.8" type="curve" smooth="yes"/>
      <point x="269.6" y="50.4"/>
      <point x="272.2" y="73.2"/>
      <point x="345.0" y="530.0" type="curve"/>
      <point x="325.8" y="530.0" type="line"/>
      <point x="251.60000000000002" y="52.0" type="line"/>
      <point x="205.0" y="22.6"/>
      <point x="159.0" y="7.4"/>
      <point x="120.4" y="7.4" type="curve" smooth="yes"/>
      <point x="75.6" y="7.4"/>
      <point x="53.2" y="31.2"/>
      <point x="53.2" y="68.8" type="curve" smooth="yes"/>
      <point x="53.2" y="82.8"/>
      <point x="55.0" y="97.2"/>
      <point x="122.8" y="530.0" type="curve"/>
      <point x="103.8" y="530.0" type="line"/>
      <point x="52.0" y="205.2"/>
      <point x="35.0" y="102.2"/>
      <point x="35.0" y="66.2" type="curve" smooth="yes"/>
      <point x="35.0" y="18.8"/>
      <point x="65.4" y="-10.0"/>
      <point x="118.0" y="-10.0" type="curve" smooth="yes"/>
      <point x="164.8" y="-10.0"/>
      <point x="204.4" y="5.2"/>
      <point x="252.2" y="33.8" type="curve"/>
      <point x="254.60000000000002" y="4.0"/>
      <point x="270.2" y="-10.0"/>
      <point x="295.8" y="-10.0" type="curve" smooth="yes"/>
      <point x="300.6" y="-10.0"/>
      <point x="306.0" y="-7.8"/>
      <point x="310.8" y="-5.6" type="curve"/>
      <point x="259.0" y="-61.6"/>
      <point x="224.0" y="-115.8"/>
      <point x="224.0" y="-168.4" type="curve" smooth="yes"/>
      <point x="224.0" y="-200.8"/>
      <point x="243.60000000000002" y="-220.0"/>
    </contour>
  </outline>
</glyph>
<glyph name="longs" format="2">
  <advance width="170.4"/>
  <unicode hex="017F"/>
  <outline>
    <contour>
      <point x="-66.8" y="-220.0" type="curve" smooth="yes"/>
      <point x="0.8000000000000007" y="-220.0"/>
      <point x="31.8" y="-165.0"/>
      <point x="49.6" y="-51.4" type="curve" smooth="yes"/>
      <point x="134.2" y="484.0" type="line" smooth="yes"/>
      <point x="161.8" y="659.8"/>
      <point x="203.0" y="731.0"/>
      <point x="280.0" y="731.0" type="curve" smooth="yes"/>
      <point x="307.2" y="731.0"/>
      <point x="329.0" y="725.8"/>
      <point x="353.2" y="719.0" type="curve"/>
      <point x="360.0" y="737.0" type="line"/>
      <point x="331.8" y="746.2"/>
      <point x="308.4" y="750.0"/>
      <point x="285.0" y="750.0" type="curve" smooth="yes"/>
      <point x="193.4" y="750.0"/>
      <point x="145.4" y="675.8"/>
      <point x="115.0" y="484.0" type="curve"/>
      <point x="43.2" y="478.2" type="line"/>
      <point x="41.2" y="465.0" type="line"/>
      <point x="112.0" y="465.0" type="line"/>
      <point x="30.8" y="-49.8" type="line" smooth="yes"/>
      <point x="15.2" y="-148.0"/>
      <point x="-7.0" y="-204.6"/>
      <point x="-68.6" y="-204.6" type="curve" smooth="yes"/>
      <point x="-83.6" y="-204.6"/>
      <point x="-95.4" y="-202.4"/>
      <point x="-112.0" y="-197.0" type="curve"/>
      <point x="-116.4" y="-212.4" type="line"/>
      <point x="-101.0" y="-217.8"/>
      <point x="-85.4" y="-220.0"/>
    </contour>
  </outline>
</glyph>
<glyph name="uni018F" format="2">
  <advance width="422.5"/>
  <unicode hex="018F"/>
  <outline>
    <contour>
      <point x="135.0" y="-10.0" type="curve" smooth="yes"/>
      <point x="287.0" y="-10.0"/>
      <point x="409.0" y="228.0"/>
      <point x="409.0" y="513.5" type="curve" smooth="yes"/>
      <point x="409.0" y="655.0"/>
      <point x="356.0" y="710.0"/>
      <point x="253.5" y="710.0" type="curve" smooth="yes"/>
      <point x="191.0" y="710.0"/>
      <point x="125.5" y="695.0"/>
      <point x="75.0" y="668.5" type="curve"/>
      <point x="83.0" y="652.5" type="line"/>
      <point x="138.0" y="679.0"/>
      <point x="193.0" y="692.0"/>
      <point x="250.0" y="692.0" type="curve" smooth="yes"/>
      <point x="354.0" y="692.0"/>
      <point x="390.0" y="630.0"/>
      <point x="390.0" y="505.0" type="curve" smooth="yes"/>
      <point x="390.0" y="238.5"/>
      <point x="274.5" y="8.0"/>
      <point x="135.0" y="8.0" type="curve" smooth="yes"/>
      <point x="66.0" y="8.0"/>
      <point x="25.5" y="52.0"/>
      <point x="25.5" y="121.0" type="curve" smooth="yes"/>
      <point x="25.5" y="258.5"/>
      <point x="122.5" y="352.0"/>
      <point x="282.5" y="352.0" type="curve" smooth="yes"/>
      <point x="314.5" y="352.0"/>
      <point x="351.5" y="348.5"/>
      <point x="382.5" y="343.0" type="curve"/>
      <point x="385.0" y="361.5" type="line"/>
      <point x="354.5" y="367.0"/>
      <point x="320.0" y="370.0"/>
      <point x="290.0" y="370.0" type="curve" smooth="yes"/>
      <point x="110.5" y="370.0"/>
      <point x="6.5" y="271.5"/>
      <point x="6.5" y="117.5" type="curve" smooth="yes"/>
      <point x="6.5" y="39.5"/>
      <point x="53.5" y="-10.0"/>
    </contour>
  </outline>
</glyph>
<glyph name="florin" format="2">
  <advance width="406.8"/>
  <unicode hex="0192"/>
  <outline>
    <contour>
      <point x="175.2" y="366.0" type="line"/>
      <point x="331.8" y="366.0" type="line"/>
      <point x="334.8" y="384.4" type="line"/>
      <point x="178.2" y="384.4" type="line"/>
      <point x="186.8" y="435.4" type="line" smooth="yes"/>
      <point x="214.8" y="613.2"/>
      <point x="263.8" y="692.0"/>
      <point x="343.2" y="692.0" type="curve" smooth="yes"/>
      <point x="369.4" y="692.0"/>
      <point x="392.2" y="687.2"/>
      <point x="409.4" y="681.8" type="curve"/>
      <point x="417.0" y="699.0" type="line"/>
      <point x="398.2" y="705.2"/>
      <point x="373.0" y="710.0"/>
      <point x="347.8" y="710.0" type="curve" smooth="yes"/>
      <point x="253.6" y="710.0"/>
      <point x="201.4" y="639.0"/>
      <point x="169.0" y="435.8" type="curve" smooth="yes"/>
      <point x="160.4" y="384.4" type="line"/>
      <point x="83.4" y="384.4" type="line"/>
      <point x="80.4" y="366.0" type="line"/>
      <point x="157.4" y="366.0" type="line"/>
      <point x="67.2" y="-210.0" type="line"/>
      <point x="85.0" y="-210.0" type="line"/>
    </contour>
  </outline>
</glyph>
<glyph name="uni0237" format="2">
  <advance width="152.6"/>
  <unicode hex="0237"/>
  <anchor x="-73.8" y="-210.0" name="bottom"/>
  <anchor x="120.4" y="530.0" name="top"/>
  <outline>
    <contour>
      <point x="130.2" y="530.0" type="line"/>
      <point x="111.2" y="530.0" type="line"/>
      <point x="17.200000000000003" y="-66.0" type="line" smooth="yes"/>
      <point x="4.0" y="-149.2"/>
      <point x="-19.4" y="-203.0"/>
      <point x="-78.0" y="-203.0" type="curve" smooth="yes"/>
      <point x="-93.0" y="-203.0"/>
      <point x="-106.2" y="-201.0"/>
      <point x="-124.2" y="-194.8" type="curve"/>
      <point x="-128.4" y="-211.8" type="line"/>
      <point x="-113.4" y="-217.8"/>
      <point x="-93.6" y="-220.0"/>
      <point x="-76.2" y="-220.0" type="curve" smooth="yes"/>
      <point x="-11.6" y="-220.0"/>
      <point x="20.200000000000003" y="-167.6"/>
      <point x="35.2" y="-71.0" type="curve" smooth="yes"/>
    </contour>
  </outline>
</glyph>
<glyph name="uni0259" format="2">
  <advance width="357.0"/>
  <unicode hex="0259"/>
  <outline>
    <contour>
      <point x="313.0" y="270.0" type="curve"/>
      <point x="314.0" y="287.5" type="line"/>
      <point x="268.0" y="286.0"/>
      <point x="218.0" y="279.0"/>
      <point x="181.0" y="265.5" type="curve" smooth="yes"/>
      <point x="70.5" y="232.0"/>
      <point x="1.5" y="164.5"/>
      <point x="1.5" y="79.0" type="curve" smooth="yes"/>
      <point x="1.5" y="23.5"/>
      <point x="35.5" y="-10.0"/>
      <point x="97.5" y="-10.0" type="curve" smooth="yes"/>
      <point x="231.5" y="-10.0"/>
      <point x="326.0" y="153.5"/>
      <point x="326.0" y="373.0" type="curve" smooth="yes"/>
      <point x="326.0" y="494.0"/>
      <point x="276.0" y="540.0"/>
      <point x="194.5" y="540.0" type="curve" smooth="yes"/>
      <point x="143.5" y="540.0"/>
      <point x="100.5" y="529.5"/>
      <point x="65.5" y="512.5" type="curve"/>
      <point x="72.5" y="496.0" type="line"/>
      <point x="109.5" y="513.0"/>
      <point x="147.0" y="523.0"/>
      <point x="190.0" y="523.0" type="curve" smooth="yes"/>
      <point x="262.0" y="523.0"/>
      <point x="308.5" y="482.0"/>
      <point x="308.5" y="373.0" type="curve" smooth="yes"/>
      <point x="308.5" y="167.5"/>
      <point x="219.0" y="7.5"/>
      <point x="99.5" y="7.5" type="curve" smooth="yes"/>
      <point x="45.0" y="7.5"/>
      <point x="20.0" y="35.5"/>
      <point x="20.0" y="82.0" type="curve" smooth="yes"/>
      <point x="20.0" y="154.0"/>
      <point x="82.0" y="217.0"/>
      <point x="180.0" y="247.5" type="curve" smooth="yes"/>
      <point x="217.0" y="261.5"/>
      <point x="264.5" y="268.5"/>
    </contour>
  </outline>
</glyph>
<glyph name="gravecomb" format="2">
  <unicode hex="0300"/>
  <anchor x="-141.4" y="530.0" name="_top"/>
  <anchor x="-160.0" y="714.0" name="top"/>
  <outline>
    <contour>
      <point x="-135.2" y="596.0" type="line"/>
      <point x="-117.80000000000001" y="596.0" type="line"/>
      <point x="-187.60000000000002" y="790.0" type="line"/>
      <point x="-208.8" y="790.0" type="line"/>
    </contour>
  </outline>
</glyph>
<glyph name="acutecomb" format="2">
  <unicode hex="0301"/>
  <anchor x="-141.4" y="530.0" name="_top"/>
  <anchor x="-64.2" y="714.0" name="top"/>
  <outline>
    <contour>
      <point x="-146.0" y="596.0" type="line"/>
      <point x="-128.2" y="596.0" type="line"/>
      <point x="9.600000000000001" y="790.0" type="line"/>
      <point x="-13.399999999999999" y="790.0" type="line"/>
    </contour>
  </outline>
</glyph>
<glyph name="uni0302" format="2">
  <unicode hex="0302"/>
  <anchor x="-141.4" y="530.0" name="_top"/>
  <anchor x="-107.6" y="737.0" name="top"/>
  <anchor x="-21.0" y="669.6" name="top_viet"/>
  <outline>
    <contour>
      <point x="-229.8" y="596.0" type="line"/>
      <point x="-212.0" y="596.0" type="line"/>
      <point x="-102.0" y="768.6" type="line"/>
      <point x="-47.2" y="596.0" type="line"/>
      <point x="-30.6" y="596.0" type="line"/>
      <point x="-88.80000000000001" y="790.0" type="line"/>
      <point x="-110.4" y="790.0" type="line"/>
    </contour>
  </outline>
</glyph>
<glyph name="tildecomb" format="2">
  <unicode hex="0303"/>
  <anchor x="-141.4" y="530.0" name="_top"/>
  <anchor x="-125.80000000000001" y="630.2" name="top"/>
  <outline>
    <contour>
      <point x="-231.60000000000002" y="605.6" type="curve"/>
      <point x="-215.8" y="605.6" type="line"/>
      <point x="-215.8" y="608.8"/>
      <point x="-217.2" y="597.4"/>
      <point x="-215.2" y="619.4" type="curve" smooth="yes"/>
      <point x="-214.0" y="667.8"/>
      <point x="-194.2" y="701.2"/>
      <point x="-169.4" y="701.2" type="curve" smooth="yes"/>
      <point x="-124.8" y="701.2"/>
      <point x="-130.6" y="605.6"/>
      <point x="-75.80000000000001" y="605.6" type="curve" smooth="yes"/>
      <point x="-36.800000000000004" y="605.6"/>
      <point x="-11.399999999999999" y="652.2"/>
      <point x="-10.0" y="713.2" type="curve" smooth="yes"/>
      <point x="-9.200000000000003" y="720.4"/>
      <point x="-9.399999999999999" y="720.2"/>
      <point x="-9.399999999999999" y="723.0" type="curve"/>
      <point x="-25.200000000000003" y="723.0" type="line"/>
      <point x="-25.200000000000003" y="719.4"/>
      <point x="-25.0" y="718.8"/>
      <point x="-25.800000000000004" y="710.8" type="curve" smooth="yes"/>
      <point x="-26.800000000000004" y="681.2"/>
      <point x="-40.6" y="623.6"/>
      <point x="-72.80000000000001" y="623.6" type="curve" smooth="yes"/>
      <point x="-117.4" y="623.6"/>
      <point x="-109.0" y="717.4"/>
      <point x="-166.4" y="717.4" type="curve" smooth="yes"/>
      <point x="-204.4" y="717.4"/>
      <point x="-229.60000000000002" y="678.0"/>
      <point x="-231.0" y="621.8" type="curve" smooth="yes"/>
      <point x="-233.0" y="599.0"/>
      <point x="-231.60000000000002" y="609.6"/>
    </contour>
  </outline>
</glyph>
<glyph name="uni0304" format="2">
  <unicode hex="0304"/>
  <anchor x="-141.4" y="530.0" name="_top"/>
  <anchor x="-113.4" y="704.6" name="top"/>
  <outline>
    <contour>
      <point x="-207.4" y="685.0" type="line"/>
      <point x="-25.4" y="685.0" type="line"/>
      <point x="-22.4" y="704.6" type="line"/>
      <point x="-204.4" y="704.6" type="line"/>
    </contour>
  </outline>
</glyph>
<glyph name="uni0306" format="2">
  <unicode hex="0306"/>
  <anchor x="-141.4" y="530.0" name="_top"/>
  <anchor x="-114.6" y="702.2" name="top"/>
  <outline>
    <contour>
      <point x="-129.6" y="606.6" type="curve" smooth="yes"/>
      <point x="-60.0" y="606.6"/>
      <point x="-20.6" y="642.6"/>
      <point x="-6.400000000000002" y="735.0" type="curve"/>
      <point x="-22.8" y="735.4" type="line"/>
      <point x="-34.800000000000004" y="660.4"/>
      <point x="-70.2" y="623.8"/>
      <point x="-126.6" y="623.8" type="curve" smooth="yes"/>
      <point x="-174.60000000000002" y="623.8"/>
      <point x="-198.4" y="645.0"/>
      <point x="-199.60000000000002" y="697.4" type="curve" smooth="yes"/>
      <point x="-199.60000000000002" y="712.0"/>
      <point x="-198.8" y="723.6"/>
      <point x="-196.2" y="735.4" type="curve"/>
      <point x="-211.8" y="735.0" type="line"/>
      <point x="-214.4" y="724.8"/>
      <point x="-216.0" y="708.2"/>
      <point x="-216.0" y="693.4" type="curve" smooth="yes"/>
      <point x="-216.0" y="631.6"/>
      <point x="-188.2" y="606.6"/>
    </contour>
  </outline>
</glyph>
<glyph name="uni0307" format="2">
  <unicode hex="0307"/>
  <anchor x="-141.4" y="530.0" name="_top"/>
  <anchor x="-124.2" y="638.0" name="top"/>
  <outline>
    <contour>
      <point x="-118.2" y="676.0" type="curve" smooth="yes"/>
      <point x="-105.4" y="676.0"/>
      <point x="-101.0" y="686.6"/>
      <point x="-101.0" y="699.2" type="curve" smooth="yes"/>
      <point x="-101.0" y="707.2"/>
      <point x="-103.4" y="712.0"/>
      <point x="-113.4" y="712.0" type="curve" smooth="yes"/>
      <point x="-125.6" y="712.0"/>
      <point x="-130.0" y="700.6"/>
      <point x="-130.0" y="687.2" type="curve" smooth="yes"/>
      <point x="-130.0" y="680.0"/>
      <point x="-126.80000000000001" y="676.0"/>
    </contour>
  </outline>
</glyph>
<glyph name="uni0308" format="2">
  <unicode hex="0308"/>
  <anchor x="-141.4" y="530.0" name="_top"/>
  <anchor x="-124.6" y="638.0" name="top"/>
  <outline>
    <contour>
      <point x="-50.800000000000004" y="676.0" type="curve" smooth="yes"/>
      <point x="-40.0" y="676.0"/>
      <point x="-35.400000000000006" y="686.2"/>
      <point x="-35.400000000000006" y="700.0" type="curve" smooth="yes"/>
      <point x="-35.400000000000006" y="707.2"/>
      <point x="-37.6" y="712.0"/>
      <point x="-45.800000000000004" y="712.0" type="curve" smooth="yes"/>
      <point x="-57.0" y="712.0"/>
      <point x="-61.400000000000006" y="700.0"/>
      <point x="-61.400000000000006" y="686.2" type="curve" smooth="yes"/>
      <point x="-61.400000000000006" y="680.0"/>
      <point x="-59.0" y="676.0"/>
    </contour>
    <contour>
      <point x="-187.4" y="676.0" type="curve" smooth="yes"/>
      <point x="-176.60000000000002" y="676.0"/>
      <point x="-172.0" y="686.2"/>
      <point x="-172.0" y="700.0" type="curve" smooth="yes"/>
      <point x="-172.0" y="707.2"/>
      <point x="-174.2" y="712.0"/>
      <point x="-182.4" y="712.0" type="curve" smooth="yes"/>
      <point x="-194.4" y="712.0"/>
      <point x="-198.0" y="697.6"/>
      <point x="-198.0" y="686.2" type="curve" smooth="yes"/>
      <point x="-198.0" y="680.0"/>
      <point x="-195.60000000000002" y="676.0"/>
    </contour>
  </outline>
</glyph>
<glyph name="hookabovecomb" format="2">
  <unicode hex="0309"/>
  <anchor x="-141.4" y="530.0" name="_top"/>
  <anchor x="-97.0" y="794.0" name="top"/>
  <outline>
    <contour>
      <point x="-131.2" y="606.8" type="line"/>
      <point x="-72.4" y="650.4"/>
      <point x="-47.2" y="690.8"/>
      <point x="-47.2" y="734.6" type="curve" smooth="yes"/>
      <point x="-47.2" y="772.8"/>
      <point x="-69.80000000000001" y="794.0"/>
      <point x="-103.4" y="794.0" type="curve" smooth="yes"/>
      <point x="-126.2" y="794.0"/>
      <point x="-149.0" y="785.4"/>
      <point x="-168.60000000000002" y="761.8" type="curve"/>
      <point x="-156.8" y="751.2" type="line"/>
      <point x="-139.8" y="770.6"/>
      <point x="-123.2" y="777.0"/>
      <point x="-105.0" y="777.0" type="curve" smooth="yes"/>
      <point x="-81.4" y="777.0"/>
      <point x="-65.4" y="760.0"/>
      <point x="-65.4" y="733.0" type="curve" smooth="yes"/>
      <point x="-65.4" y="696.4"/>
      <point x="-87.4" y="656.8"/>
      <point x="-140.8" y="617.8" type="curve"/>
    </contour>
  </outline>
</glyph>
<glyph name="uni030A" format="2">
  <unicode hex="030A"/>
  <anchor x="-141.4" y="530.0" name="_top"/>
  <anchor x="-108.2" y="740.2" name="top"/>
  <outline>
    <contour>
      <point x="-126.80000000000001" y="617.4" type="curve" smooth="yes"/>
      <point x="-84.0" y="617.4"/>
      <point x="-52.2" y="652.8"/>
      <point x="-52.2" y="713.2" type="curve" smooth="yes"/>
      <point x="-52.2" y="753.4"/>
      <point x="-70.80000000000001" y="773.4"/>
      <point x="-103.2" y="773.4" type="curve" smooth="yes"/>
      <point x="-146.8" y="773.4"/>
      <point x="-177.8" y="737.2"/>
      <point x="-177.8" y="675.2" type="curve" smooth="yes"/>
      <point x="-177.8" y="636.6"/>
      <point x="-159.2" y="617.4"/>
    </contour>
    <contour>
      <point x="-123.80000000000001" y="634.4" type="curve" smooth="yes"/>
      <point x="-147.4" y="634.4"/>
      <point x="-159.60000000000002" y="648.2"/>
      <point x="-159.60000000000002" y="672.6" type="curve" smooth="yes"/>
      <point x="-159.60000000000002" y="724.0"/>
      <point x="-138.4" y="756.4"/>
      <point x="-106.2" y="756.4" type="curve" smooth="yes"/>
      <point x="-82.6" y="756.4"/>
      <point x="-70.4" y="741.8"/>
      <point x="-70.4" y="716.6" type="curve" smooth="yes"/>
      <point x="-70.4" y="666.0"/>
      <point x="-92.4" y="634.4"/>
    </contour>
  </outline>
</glyph>
<glyph name="uni030B" format="2">
  <unicode hex="030B"/>
  <anchor x="-141.4" y="530.0" name="_top"/>
  <anchor x="-57.2" y="790.0" name="top"/>
  <outline>
    <contour>
      <point x="-100.4" y="596.0" type="line"/>
      <point x="-82.6" y="596.0" type="line"/>
      <point x="52.8" y="790.0" type="line"/>
      <point x="30.599999999999998" y="790.0" type="line"/>
    </contour>
    <contour>
      <point x="-198.0" y="596.0" type="line"/>
      <point x="-180.2" y="596.0" type="line"/>
      <point x="-44.800000000000004" y="790.0" type="line"/>
      <point x="-67.0" y="790.0" type="line"/>
    </contour>
  </outline>
</glyph>
<glyph name="uni030F" format="2">
  <unicode hex="030F"/>
  <anchor x="-141.4" y="530.0" name="_top"/>
  <anchor x="-153.8" y="790.0" name="top"/>
  <outline>
    <contour>
      <point x="-185.60000000000002" y="596.0" type="line"/>
      <point x="-168.2" y="596.0" type="line"/>
      <point x="-226.0" y="790.0" type="line"/>
      <point x="-247.2" y="790.0" type="line"/>
    </contour>
    <contour>
      <point x="-93.2" y="596.0" type="line"/>
      <point x="-75.80000000000001" y="596.0" type="line"/>
      <point x="-133.60000000000002" y="790.0" type="line"/>
      <point x="-154.8" y="790.0" type="line"/>
    </contour>
  </outline>
</glyph>
<glyph name="uni0312" format="2">
  <unicode hex="0312"/>
  <anchor x="-141.4" y="530.0" name="_top"/>
  <outline>
    <contour>
      <point x="-120.80000000000001" y="595.0" type="line"/>
      <point x="-126.0" y="606.4"/>
      <point x="-128.0" y="619.4"/>
      <point x="-128.0" y="632.8" type="curve" smooth="yes"/>
      <point x="-128.0" y="683.4"/>
      <point x="-109.4" y="739.4"/>
      <point x="-76.0" y="790.0" type="curve"/>
      <point x="-93.4" y="790.0" type="line"/>
      <point x="-127.0" y="740.4"/>
      <point x="-145.4" y="681.0"/>
      <point x="-145.4" y="630.8" type="curve" smooth="yes"/>
      <point x="-145.4" y="617.2"/>
      <point x="-143.60000000000002" y="604.6"/>
      <point x="-139.2" y="595.0" type="curve"/>
    </contour>
  </outline>
</glyph>
<glyph name="uni031B" format="2">
  <unicode hex="031B"/>
  <anchor x="-84.80000000000001" y="530.0" name="_topright"/>
  <anchor x="55.4" y="686.6" name="topright"/>
  <outline>
    <contour>
      <point x="-90.4" y="513.0" type="line"/>
      <point x="-76.80000000000001" y="513.0" type="line" smooth="yes"/>
      <point x="8.0" y="513.0"/>
      <point x="36.2" y="596.2"/>
      <point x="10.2" y="686.6" type="curve"/>
      <point x="-8.8" y="683.0" type="line"/>
      <point x="16.4" y="601.4"/>
      <point x="-7.800000000000001" y="530.0"/>
      <point x="-76.4" y="530.0" type="curve" smooth="yes"/>
      <point x="-94.4" y="530.0" type="line"/>
    </contour>
  </outline>
</glyph>
<glyph name="uni0326" format="2">
  <unicode hex="0326"/>
  <anchor x="-217.6" y="0.0" name="_bottom"/>
  <anchor x="-276.0" y="-220.0" name="bottom"/>
  <outline>
    <contour>
      <point x="-239.8" y="-73.0" type="line"/>
      <point x="-238.4" y="-82.6"/>
      <point x="-238.6" y="-93.6"/>
      <point x="-240.2" y="-105.6" type="curve" smooth="yes"/>
      <point x="-245.0" y="-140.0"/>
      <point x="-258.6" y="-177.0"/>
      <point x="-285.6" y="-220.0" type="curve"/>
      <point x="-266.2" y="-220.0" type="line"/>
      <point x="-242.6" y="-182.8"/>
      <point x="-227.6" y="-148.2"/>
      <point x="-222.0" y="-105.0" type="curve" smooth="yes"/>
      <point x="-220.4" y="-93.6"/>
      <point x="-219.8" y="-83.2"/>
      <point x="-220.6" y="-73.0" type="curve"/>
    </contour>
  </outline>
</glyph>
<glyph name="uni0327" format="2">
  <unicode hex="0327"/>
  <anchor x="-217.6" y="0.0" name="_bottom"/>
  <anchor x="-257.4" y="-220.0" name="bottom"/>
  <outline>
    <contour>
      <point x="-308.4" y="-204.0" type="line"/>
      <point x="-291.8" y="-216.2"/>
      <point x="-274.2" y="-220.0"/>
      <point x="-255.6" y="-220.0" type="curve" smooth="yes"/>
      <point x="-205.0" y="-220.0"/>
      <point x="-181.2" y="-164.6"/>
      <point x="-181.2" y="-108.0" type="curve" smooth="yes"/>
      <point x="-181.2" y="-68.2"/>
      <point x="-192.2" y="-29.2"/>
      <point x="-210.4" y="0.0" type="curve"/>
      <point x="-231.0" y="0.0" type="line"/>
      <point x="-209.4" y="-36.4"/>
      <point x="-199.6" y="-71.8"/>
      <point x="-199.6" y="-107.6" type="curve" smooth="yes"/>
      <point x="-199.6" y="-166.8"/>
      <point x="-221.8" y="-202.8"/>
      <point x="-256.2" y="-202.8" type="curve" smooth="yes"/>
      <point x="-271.6" y="-202.8"/>
      <point x="-285.2" y="-198.2"/>
      <point x="-300.2" y="-188.6" type="curve"/>
    </contour>
  </outline>
</glyph>
<glyph name="uni0328" format="2">
  <unicode hex="0328"/>
  <anchor x="-195.0" y="0.0" name="_ogonek"/>
  <outline>
    <contour>
      <point x="-212.0" y="1.8" type="line"/>
      <point x="-276.0" y="-66.4"/>
      <point x="-306.2" y="-120.0"/>
      <point x="-306.2" y="-168.4" type="curve" smooth="yes"/>
      <point x="-306.2" y="-201.6"/>
      <point x="-285.8" y="-220.0"/>
      <point x="-260.2" y="-220.0" type="curve" smooth="yes"/>
      <point x="-244.4" y="-220.0"/>
      <point x="-230.6" y="-215.4"/>
      <point x="-221.4" y="-208.8" type="curve"/>
      <point x="-226.0" y="-195.0" type="line"/>
      <point x="-237.0" y="-200.0"/>
      <point x="-245.8" y="-202.8"/>
      <point x="-256.6" y="-202.8" type="curve" smooth="yes"/>
      <point x="-275.0" y="-202.8"/>
      <point x="-288.0" y="-189.4"/>
      <point x="-288.0" y="-164.4" type="curve" smooth="yes"/>
      <point x="-288.0" y="-119.2"/>
      <point x="-254.4" y="-58.4"/>
      <point x="-195.0" y="0.0" type="curve"/>
    </contour>
  </outline>
</glyph>
<glyph name="uni0335" format="2">
  <unicode hex="0335"/>
  <anchor x="-59.8" y="350.0" name="_center"/>
  <outline>
    <contour>
      <point x="-164.8" y="340.0" type="line"/>
      <point x="41.0" y="340.0" type="line"/>
      <point x="45.0" y="360.0" type="line"/>
      <point x="-160.8" y="360.0" type="line"/>
    </contour>
  </outline>
</glyph>
<glyph name="pi" format="2">
  <advance width="426.2"/>
  <unicode hex="03C0"/>
  <outline>
    <contour>
      <point x="302.6" y="-10.0" type="curve" smooth="yes"/>
      <point x="312.4" y="-10.0"/>
      <point x="323.2" y="-8.0"/>
      <point x="337.2" y="-1.2" type="curve"/>
      <point x="334.0" y="15.6" type="line"/>
      <point x="323.4" y="10.8"/>
      <point x="314.2" y="8.8"/>
      <point x="305.8" y="8.8" type="curve" smooth="yes"/>
      <point x="289.2" y="8.8"/>
      <point x="282.4" y="17.6"/>
      <point x="282.4" y="32.4" type="curve" smooth="yes"/>
      <point x="282.4" y="46.0"/>
      <point x="286.6" y="71.2"/>
      <point x="356.4" y="512.0" type="curve"/>
      <point x="412.4" y="512.0" type="line"/>
      <point x="414.6" y="530.0" type="line"/>
      <point x="228.0" y="530.0" type="line" smooth="yes"/>
      <point x="174.0" y="530.0"/>
      <point x="124.6" y="525.8"/>
      <point x="82.6" y="494.6" type="curve"/>
      <point x="86.6" y="478.0" type="line"/>
      <point x="125.4" y="503.2"/>
      <point x="158.8" y="509.4"/>
      <point x="180.4" y="511.2" type="curve"/>
      <point x="139.4" y="369.8"/>
      <point x="81.6" y="119.0"/>
      <point x="35.8" y="0.0" type="curve"/>
      <point x="53.6" y="0.0" type="line"/>
      <point x="101.8" y="126.2"/>
      <point x="159.8" y="373.8"/>
      <point x="198.4" y="512.0" type="curve"/>
      <point x="338.4" y="512.0" type="line"/>
      <point x="269.8" y="75.0"/>
      <point x="264.4" y="41.0"/>
      <point x="264.4" y="28.4" type="curve" smooth="yes"/>
      <point x="264.4" y="7.4"/>
      <point x="274.0" y="-10.0"/>
    </contour>
  </outline>
</glyph>
<glyph name="endash" format="2">
  <advance width="320.2"/>
  <unicode hex="2013"/>
  <outline>
    <contour>
      <point x="9.600000000000001" y="255.0" type="line"/>
      <point x="304.4" y="255.0" type="line"/>
      <point x="307.6" y="275.0" type="line"/>
      <point x="12.8" y="275.0" type="line"/>
    </contour>
  </outline>
</glyph>
<glyph name="emdash" format="2">
  <advance width="639.0"/>
  <unicode hex="2014"/>
  <outline>
    <contour>
      <point x="-0.7999999999999998" y="255.0" type="line"/>
      <point x="633.6" y="255.0" type="line"/>
      <point x="636.8" y="275.0" type="line"/>
      <point x="2.4000000000000004" y="275.0" type="line"/>
    </contour>
  </outline>
</glyph>
<glyph name="quoteleft" format="2">
  <advance width="122.6"/>
  <unicode hex="2018"/>
  <outline>
    <contour>
      <point x="60.4" y="430.0" type="curve"/>
      <point x="77.8" y="430.0" type="line"/>
      <point x="89.4" y="535.4"/>
      <point x="118.4" y="619.2"/>
      <point x="173.0" y="700.0" type="curve"/>
      <point x="155.2" y="700.0" type="line"/>
      <point x="103.0" y="628.2"/>
      <point x="69.4" y="529.4"/>
    </contour>
  </outline>
</glyph>
<glyph name="quoteright" format="2">
  <advance width="122.6"/>
  <unicode hex="2019"/>
  <outline>
    <contour>
      <point x="154.2" y="700.0" type="curve"/>
      <point x="136.8" y="700.0" type="line"/>
      <point x="125.2" y="594.6"/>
      <point x="96.2" y="510.8"/>
      <point x="41.6" y="430.0" type="curve"/>
      <point x="59.4" y="430.0" type="line"/>
      <point x="111.6" y="501.8"/>
      <point x="145.2" y="600.6"/>
    </contour>
  </outline>
</glyph>
<glyph name="dagger" format="2">
  <advance width="322.0"/>
  <unicode hex="2020"/>
  <outline>
    <contour>
      <point x="74.8" y="-210.0" type="line"/>
      <point x="92.8" y="-210.0" type="line"/>
      <point x="207.0" y="512.0" type="line"/>
      <point x="326.6" y="512.0" type="line"/>
      <point x="329.6" y="532.0" type="line"/>
      <point x="210.0" y="532.0" type="line"/>
      <point x="242.8" y="740.0" type="line"/>
      <point x="224.8" y="740.0" type="line"/>
      <point x="192.0" y="532.0" type="line"/>
      <point x="73.2" y="532.0" type="line"/>
      <point x="70.2" y="512.0" type="line"/>
      <point x="189.0" y="512.0" type="line"/>
    </contour>
  </outline>
</glyph>
<glyph name="daggerdbl" format="2">
  <advance width="322.0"/>
  <unicode hex="2021"/>
  <outline>
    <contour>
      <point x="246.2" y="0.0" type="line"/>
      <point x="249.2" y="20.0" type="line"/>
      <point x="129.6" y="20.0" type="line"/>
      <point x="207.6" y="510.0" type="line"/>
      <point x="327.2" y="510.0" type="line"/>
      <point x="330.2" y="530.0" type="line"/>
      <point x="210.6" y="530.0" type="line"/>
      <point x="243.6" y="740.0" type="line"/>
      <point x="225.6" y="740.0" type="line"/>
      <point x="192.6" y="530.0" type="line"/>
      <point x="73.8" y="530.0" type="line"/>
      <point x="70.8" y="510.0" type="line"/>
      <point x="189.6" y="510.0" type="line"/>
      <point x="111.6" y="20.0" type="line"/>
      <point x="-7.199999999999999" y="20.0" type="line"/>
      <point x="-10.2" y="0.0" type="line"/>
      <point x="108.6" y="0.0" type="line"/>
      <point x="75.6" y="-210.0" type="line"/>
      <point x="93.6" y="-210.0" type="line"/>
      <point x="126.6" y="0.0" type="line"/>
    </contour>
  </outline>
</glyph>
<glyph name="bullet" format="2">
  <advance width="228.0"/>
  <unicode hex="2022"/>
  <outline>
    <contour>
      <point x="105.4" y="233.6" type="curve" smooth="yes"/>
      <point x="150.2" y="233.6"/>
      <point x="196.2" y="278.0"/>
      <point x="196.2" y="329.2" type="curve" smooth="yes"/>
      <point x="196.2" y="368.2"/>
      <point x="169.0" y="398.4"/>
      <point x="131.2" y="398.4" type="curve" smooth="yes"/>
      <point x="84.4" y="398.4"/>
      <point x="41.2" y="353.0"/>
      <point x="41.2" y="300.8" type="curve" smooth="yes"/>
      <point x="41.2" y="262.8"/>
      <point x="67.8" y="233.6"/>
    </contour>
  </outline>
</glyph>
